<?xml version="1.0" encoding="utf-8"?>
<!-- Generator: Adobe Illustrator 16.0.0, SVG Export Plug-In . SVG Version: 6.00 Build 0)  -->
<!DOCTYPE svg PUBLIC "-//W3C//DTD SVG 1.1//EN" "http://www.w3.org/Graphics/SVG/1.1/DTD/svg11.dtd">
<svg version="1.1" id="图层_1" xmlns="http://www.w3.org/2000/svg" xmlns:xlink="http://www.w3.org/1999/xlink" x="0px" y="0px"
	 width="112.98px" height="142.797px" viewBox="0 0 112.98 142.797" enable-background="new 0 0 112.98 142.797"
	 xml:space="preserve">
<path fill="#96D17E" d="M32.356,6.263L18.928,29.52l13.429,23.258h26.856L72.639,29.52L59.213,6.263H32.356z M32.356,6.263"/>
<path fill="#73BEFF" d="M85.064,99.293l13.43-23.258l-13.43-23.257H58.209L44.784,76.035l13.425,23.258H85.064z M85.064,99.293"/>
<path fill="#2C9E1C" d="M44.805,29.521L31.375,52.777l13.429,23.258H71.66l13.426-23.258L71.66,29.521H44.805z M44.805,29.521"/>
<path fill="#0088FF" d="M44.805,30.52H17.949L4.52,53.777l13.429,23.258h26.856L58.23,53.777L44.805,30.52z M44.805,30.52"/>
<path fill="#1C9E75" d="M111.941,52.777L98.516,29.521H71.66L58.23,52.777l13.43,23.258h26.855L111.941,52.777z M111.941,52.777"/>
<path fill="#7EC8B0" d="M18.27,0H6.09L0,10.547l6.09,10.547h12.18l6.085-10.547L18.27,0z M18.27,0"/>
<path d="M24.035,142.523v-33.309h4.629v5.934l-0.234,4.324c0.34-0.48,0.707-0.871,1.105-1.184c0.399-0.313,0.809-0.563,1.227-0.754
	c0.422-0.188,0.851-0.32,1.281-0.398c0.434-0.082,0.863-0.121,1.293-0.121c1.477,0,2.613,0.516,3.414,1.547s1.199,2.578,1.199,4.645
	v19.316h-4.633v-19.152c0-1.113-0.171-1.887-0.511-2.316c-0.34-0.434-0.844-0.648-1.504-0.648c-0.461,0-0.926,0.152-1.399,0.465
	c-0.468,0.313-0.882,0.742-1.238,1.289v20.363H24.035z M49.102,142.797c-0.539,0-1.086-0.043-1.641-0.129
	c-0.555-0.086-1.094-0.262-1.613-0.531c-0.516-0.27-1.004-0.652-1.461-1.152c-0.457-0.5-0.86-1.16-1.199-1.98
	c-0.344-0.816-0.614-1.824-0.809-3.02c-0.195-1.195-0.293-2.625-0.293-4.285v-3.953c0-1.637,0.102-3.039,0.305-4.203
	c0.199-1.164,0.476-2.145,0.82-2.938c0.348-0.793,0.754-1.426,1.219-1.895c0.468-0.473,0.957-0.832,1.476-1.082
	c0.52-0.25,1.055-0.414,1.602-0.492c0.547-0.082,1.086-0.121,1.609-0.121c0.5,0,1.02,0.035,1.559,0.113
	c0.535,0.07,1.062,0.227,1.574,0.465c0.512,0.234,0.996,0.59,1.457,1.059c0.457,0.473,0.859,1.105,1.207,1.898
	c0.348,0.793,0.625,1.777,0.824,2.957c0.203,1.176,0.305,2.59,0.305,4.238v3.953c0,1.637-0.105,3.047-0.313,4.23
	c-0.207,1.184-0.488,2.188-0.843,3.004s-0.766,1.48-1.227,1.988c-0.465,0.504-0.953,0.898-1.465,1.18
	c-0.515,0.281-1.035,0.469-1.566,0.559C50.098,142.75,49.586,142.797,49.102,142.797L49.102,142.797z M49.137,139.227
	c0.418,0,0.765-0.105,1.054-0.32c0.286-0.215,0.516-0.566,0.696-1.051c0.176-0.488,0.304-1.133,0.386-1.934
	c0.075-0.801,0.114-1.793,0.114-2.977v-6.207c0-1.184-0.039-2.18-0.114-2.984c-0.082-0.805-0.21-1.457-0.386-1.949
	c-0.18-0.496-0.41-0.852-0.696-1.074c-0.289-0.215-0.636-0.324-1.054-0.324c-0.438,0-0.809,0.109-1.11,0.324
	c-0.297,0.223-0.543,0.578-0.738,1.074c-0.195,0.492-0.336,1.145-0.422,1.949c-0.086,0.805-0.129,1.801-0.129,2.984v6.207
	c0,1.184,0.043,2.176,0.129,2.977c0.086,0.801,0.227,1.445,0.422,1.934c0.195,0.484,0.441,0.836,0.738,1.051
	C48.328,139.121,48.699,139.227,49.137,139.227L49.137,139.227z M60.145,142.523v-25.215h3.586L64.133,120v0.02
	c0.367-0.574,0.758-1.051,1.176-1.438c0.414-0.383,0.844-0.691,1.289-0.926s0.902-0.398,1.371-0.496s0.938-0.145,1.402-0.145
	c0.988,0,1.824,0.238,2.508,0.715s1.203,1.191,1.559,2.141c0.363-0.547,0.75-1.008,1.16-1.371c0.41-0.367,0.832-0.66,1.273-0.883
	c0.438-0.219,0.887-0.375,1.34-0.465c0.449-0.09,0.906-0.137,1.371-0.137c1.465,0,2.598,0.516,3.398,1.547
	c0.797,1.031,1.195,2.578,1.195,4.645v19.316h-4.633v-19.152c0-0.551-0.043-1.016-0.125-1.395c-0.086-0.379-0.215-0.684-0.387-0.914
	s-0.391-0.398-0.66-0.504c-0.27-0.102-0.59-0.152-0.969-0.152c-0.426,0-0.855,0.152-1.281,0.465c-0.43,0.313-0.82,0.742-1.176,1.289
	c0.016,0.109,0.02,0.219,0.02,0.328c0,0.113,0,0.223,0,0.332v19.703h-4.629v-19.152c0-0.551-0.043-1.016-0.129-1.395
	s-0.215-0.684-0.387-0.914c-0.168-0.23-0.391-0.398-0.66-0.504c-0.266-0.102-0.59-0.152-0.969-0.152
	c-0.414,0-0.836,0.152-1.262,0.457c-0.43,0.305-0.813,0.727-1.156,1.262v20.398H60.145z M90.445,113.699
	c-0.855,0-1.527-0.254-2.023-0.77c-0.492-0.512-0.738-1.262-0.738-2.25c0-0.547,0.063-1.008,0.191-1.383
	c0.125-0.371,0.309-0.672,0.547-0.895c0.238-0.227,0.531-0.391,0.871-0.496c0.34-0.102,0.73-0.152,1.172-0.152
	c0.914,0,1.609,0.23,2.086,0.691c0.477,0.465,0.715,1.211,0.715,2.234c0,0.953-0.242,1.695-0.723,2.227
	C92.059,113.434,91.359,113.699,90.445,113.699L90.445,113.699z M88.047,142.523v-25.215h4.633v25.215H88.047z M97.516,142.523
	v-25.215h3.57l0.418,2.691v0.02c0.367-0.574,0.762-1.051,1.184-1.438c0.422-0.383,0.855-0.691,1.309-0.926
	c0.449-0.234,0.914-0.398,1.383-0.496s0.938-0.145,1.398-0.145c1.477,0,2.617,0.516,3.418,1.547
	c0.797,1.031,1.199,2.578,1.199,4.645v19.316h-4.633v-19.152c0-1.113-0.172-1.887-0.512-2.316c-0.344-0.434-0.844-0.648-1.504-0.648
	c-0.465,0-0.926,0.152-1.383,0.457s-0.863,0.727-1.219,1.262v20.398H97.516z M97.516,142.523"/>
</svg>
