<?xml version="1.0" encoding="UTF-8" standalone="no"?>
<svg
   xmlns:dc="http://purl.org/dc/elements/1.1/"
   xmlns:cc="http://creativecommons.org/ns#"
   xmlns:rdf="http://www.w3.org/1999/02/22-rdf-syntax-ns#"
   xmlns:svg="http://www.w3.org/2000/svg"
   xmlns="http://www.w3.org/2000/svg"
   xmlns:sodipodi="http://sodipodi.sourceforge.net/DTD/sodipodi-0.dtd"
   xmlns:inkscape="http://www.inkscape.org/namespaces/inkscape"
   id="workspace"
   version="1.1"
   sodipodi:docname="homin.svg"
   width="184.61841"
   height="209.494"
   inkscape:version="0.92.4 (5da689c313, 2019-01-14)">
  <metadata
     id="metadata634">
    <rdf:RDF>
      <cc:Work
         rdf:about="">
        <dc:format>image/svg+xml</dc:format>
        <dc:type
           rdf:resource="http://purl.org/dc/dcmitype/StillImage" />
      </cc:Work>
    </rdf:RDF>
  </metadata>
  <sodipodi:namedview
     pagecolor="#ffffff"
     bordercolor="#666666"
     borderopacity="1"
     objecttolerance="10"
     gridtolerance="10"
     guidetolerance="10"
     inkscape:pageopacity="0"
     inkscape:pageshadow="2"
     inkscape:window-width="3073"
     inkscape:window-height="2000"
     id="namedview632"
     showgrid="false"
     inkscape:zoom="2.8284271"
     inkscape:cx="-87.6192"
     inkscape:cy="48.209055"
     inkscape:window-x="0"
     inkscape:window-y="0"
     inkscape:window-maximized="0"
     inkscape:current-layer="workspace" />
  <desc
     id="desc323">Created with Snap</desc>
  <defs
     id="defs430">
    <linearGradient
       x1="0"
       y1="0.5"
       x2="1"
       y2="0.5"
       id="linearGradientSk88bhxg71c">
      <stop
         offset="0%"
         stop-color="#2c9e1c"
         id="stop325" />
      <stop
         offset="100%"
         stop-color="#2c9e1c"
         id="stop327" />
    </linearGradient>
    <linearGradient
       x1="0"
       y1="0.5"
       x2="1"
       y2="0.5"
       id="linearGradientSk88bhxg71l">
      <stop
         offset="0%"
         stop-color="#0088ff"
         id="stop330" />
      <stop
         offset="100%"
         stop-color="#0088ff"
         id="stop332" />
    </linearGradient>
    <linearGradient
       x1="0"
       y1="0.5"
       x2="1"
       y2="0.5"
       id="linearGradientSk88bhxg71u">
      <stop
         offset="0%"
         stop-color="#1c9e75"
         id="stop335" />
      <stop
         offset="100%"
         stop-color="#1c9e75"
         id="stop337" />
    </linearGradient>
    <linearGradient
       x1="0"
       y1="0.5"
       x2="1"
       y2="0.5"
       id="linearGradientSk88bhxg723">
      <stop
         offset="0%"
         stop-color="#0088ff"
         stop-opacity="0.55"
         id="stop340" />
      <stop
         offset="100%"
         stop-color="#0088ff"
         stop-opacity="0.55"
         id="stop342" />
    </linearGradient>
    <linearGradient
       x1="0"
       y1="0.5"
       x2="1"
       y2="0.5"
       id="linearGradientSk88bhxg72c">
      <stop
         offset="0%"
         stop-color="#1c9e75"
         stop-opacity="0.57"
         id="stop345" />
      <stop
         offset="100%"
         stop-color="#1c9e75"
         stop-opacity="0.57"
         id="stop347" />
    </linearGradient>
    <linearGradient
       x1="0"
       y1="0.5"
       x2="1"
       y2="0.5"
       id="linearGradientSk88bhxg72l">
      <stop
         offset="0%"
         stop-color="#5fb839"
         stop-opacity="0.65"
         id="stop350" />
      <stop
         offset="100%"
         stop-color="#5fb839"
         stop-opacity="0.65"
         id="stop352" />
    </linearGradient>
    <linearGradient
       x1="0"
       y1="0.5"
       x2="1"
       y2="0.5"
       id="linearGradientSk88bhxg72v">
      <stop
         offset="0%"
         stop-color="#2c9e1c"
         id="stop355" />
      <stop
         offset="100%"
         stop-color="#2c9e1c"
         id="stop357" />
    </linearGradient>
    <linearGradient
       x1="0"
       y1="0.5"
       x2="1"
       y2="0.5"
       id="linearGradientSk88bhxg72y">
      <stop
         offset="0%"
         stop-color="#0088ff"
         id="stop360" />
      <stop
         offset="100%"
         stop-color="#0088ff"
         id="stop362" />
    </linearGradient>
    <linearGradient
       x1="0"
       y1="0.5"
       x2="1"
       y2="0.5"
       id="linearGradientSk88bhxg731">
      <stop
         offset="0%"
         stop-color="#1c9e75"
         id="stop365" />
      <stop
         offset="100%"
         stop-color="#1c9e75"
         id="stop367" />
    </linearGradient>
    <linearGradient
       x1="0"
       y1="0.5"
       x2="1"
       y2="0.5"
       id="linearGradientSk88bhxg734">
      <stop
         offset="0%"
         stop-color="#0088ff"
         stop-opacity="0.55"
         id="stop370" />
      <stop
         offset="100%"
         stop-color="#0088ff"
         stop-opacity="0.55"
         id="stop372" />
    </linearGradient>
    <linearGradient
       x1="0"
       y1="0.5"
       x2="1"
       y2="0.5"
       id="linearGradientSk88bhxg737">
      <stop
         offset="0%"
         stop-color="#1c9e75"
         stop-opacity="0.57"
         id="stop375" />
      <stop
         offset="100%"
         stop-color="#1c9e75"
         stop-opacity="0.57"
         id="stop377" />
    </linearGradient>
    <linearGradient
       x1="0"
       y1="0.5"
       x2="1"
       y2="0.5"
       id="linearGradientSk88bhxg73a">
      <stop
         offset="0%"
         stop-color="#5fb839"
         stop-opacity="0.65"
         id="stop380" />
      <stop
         offset="100%"
         stop-color="#5fb839"
         stop-opacity="0.65"
         id="stop382" />
    </linearGradient>
    <linearGradient
       x1="6.4864111"
       y1="70.349449"
       x2="36.708248"
       y2="70.349449"
       id="linearGradientSk88bhxg73g"
       gradientTransform="scale(1.0745542,0.93061851)"
       gradientUnits="userSpaceOnUse">
      <stop
         offset="0%"
         stop-color="#2c9e1c"
         id="stop385" />
      <stop
         offset="100%"
         stop-color="#2c9e1c"
         id="stop387" />
    </linearGradient>
    <linearGradient
       x1="31.419058"
       y1="53.729073"
       x2="61.641361"
       y2="53.729073"
       id="linearGradientSk88bhxg73j"
       gradientTransform="scale(1.0745707,0.93060418)"
       gradientUnits="userSpaceOnUse">
      <stop
         offset="0%"
         stop-color="#0088ff"
         id="stop390" />
      <stop
         offset="100%"
         stop-color="#0088ff"
         id="stop392" />
    </linearGradient>
    <linearGradient
       x1="6.4864111"
       y1="37.105968"
       x2="36.708248"
       y2="37.105968"
       id="linearGradientSk88bhxg73m"
       gradientTransform="scale(1.0745542,0.93061851)"
       gradientUnits="userSpaceOnUse">
      <stop
         offset="0%"
         stop-color="#1c9e75"
         id="stop395" />
      <stop
         offset="100%"
         stop-color="#1c9e75"
         id="stop397" />
    </linearGradient>
    <linearGradient
       x1="56.353603"
       y1="37.105968"
       x2="86.575439"
       y2="37.105968"
       id="linearGradientSk88bhxg73p"
       gradientTransform="scale(1.0745542,0.93061851)"
       gradientUnits="userSpaceOnUse">
      <stop
         offset="0%"
         stop-color="#0088ff"
         stop-opacity="0.55"
         id="stop400" />
      <stop
         offset="100%"
         stop-color="#0088ff"
         stop-opacity="0.55"
         id="stop402" />
    </linearGradient>
    <linearGradient
       x1="31.419058"
       y1="20.484003"
       x2="61.641361"
       y2="20.484003"
       id="linearGradientSk88bhxg73s"
       gradientTransform="scale(1.0745707,0.93060418)"
       gradientUnits="userSpaceOnUse">
      <stop
         offset="0%"
         stop-color="#1c9e75"
         stop-opacity="0.57"
         id="stop405" />
      <stop
         offset="100%"
         stop-color="#1c9e75"
         stop-opacity="0.57"
         id="stop407" />
    </linearGradient>
    <linearGradient
       x1="0"
       y1="0.5"
       x2="1"
       y2="0.5"
       id="linearGradientSk88bhxg73v">
      <stop
         offset="0%"
         stop-color="#5fb839"
         stop-opacity="0.65"
         id="stop410" />
      <stop
         offset="100%"
         stop-color="#5fb839"
         stop-opacity="0.65"
         id="stop412" />
    </linearGradient>
    <linearGradient
       x1="-73.803047"
       y1="-72.620476"
       x2="73.743073"
       y2="-72.620476"
       id="linearGradientSk88bhxg73y"
       gradientTransform="scale(1.5788777,0.63336129)"
       gradientUnits="userSpaceOnUse">
      <stop
         offset="0%"
         stop-color="#000000"
         id="stop415" />
      <stop
         offset="100%"
         stop-color="#000000"
         id="stop417" />
    </linearGradient>
    <linearGradient
       x1="0"
       y1="0.5"
       x2="1"
       y2="0.5"
       id="linearGradientSk88bhxg741">
      <stop
         offset="0%"
         stop-color="#5fb839"
         stop-opacity="0.65"
         id="stop420" />
      <stop
         offset="100%"
         stop-color="#5fb839"
         stop-opacity="0.65"
         id="stop422" />
    </linearGradient>
    <linearGradient
       x1="31.419058"
       y1="86.973068"
       x2="61.641361"
       y2="86.973068"
       id="linearGradientSk88bhxg744"
       gradientTransform="scale(1.0745707,0.93060418)"
       gradientUnits="userSpaceOnUse">
      <stop
         offset="0%"
         stop-color="#5fb839"
         stop-opacity="0.65"
         id="stop425" />
      <stop
         offset="100%"
         stop-color="#5fb839"
         stop-opacity="0.65"
         id="stop427" />
    </linearGradient>
  </defs>
  <g
     class="selector-part"
     transform="translate(14.309,-5.1014)"
     id="g442">
    <rect
       x="0"
       y="0"
       width="0"
       height="0"
       fill="rgba(255,255,255,0)"
       id="rect440" />
  </g>
  <g
     class="svg-clip svg-visible"
     transform="matrix(2.2052,0,0,2.2052,54,63)"
     style="opacity:1"
     id="g514">
    <rect
       x="0"
       y="0"
       width="42"
       height="38"
       style="fill:none"
       class="svg-hitbox"
       id="rect498" />
    <svg
       width="42.474998"
       height="38.125"
       viewBox="55.555 15.469 42.475 38.125"
       version="1.1"
       id="svg512">
      <desc
         id="desc500">Created with Snap</desc>
      <defs
         id="defs502" />
      <g
         id="g504" />
      <g
         id="g506" />
      <g
         id="g510">
        <polygon
           points="84.911,48.594 93.03,34.531 84.911,20.469 68.673,20.469 60.555,34.531 68.673,48.594 "
           style="fill:url(#linearGradientSk88bhxg73p);stroke:none"
           id="polygon508" />
      </g>
    </svg>
  </g>
  <g
     id="g4511">
    <g
       id="g460"
       style="opacity:1"
       transform="matrix(2.2052,0,0,2.2052,37,32)"
       class="svg-clip svg-visible">
      <rect
         id="rect444"
         class="svg-hitbox"
         style="fill:none"
         height="38"
         width="42"
         y="0"
         x="0" />
      <svg
         id="svg458"
         version="1.1"
         viewBox="1.97 46.406 42.475 38.125"
         height="38.125"
         width="42.474998">
        <desc
           id="desc446">Created with Snap</desc>
        <defs
           id="defs448" />
        <g
           id="g450" />
        <g
           id="g452" />
        <g
           id="g456">
          <polygon
             id="polygon454"
             style="fill:url(#linearGradientSk88bhxg73g);stroke:none"
             points="15.089,51.406 6.97,65.469 15.089,79.531 31.327,79.531 39.445,65.469 31.327,51.406 " />
        </g>
      </svg>
    </g>
    <g
       id="g478"
       style="opacity:1"
       transform="matrix(2.2052,0,0,2.2052,0,32)"
       class="svg-clip svg-visible">
      <rect
         id="rect462"
         class="svg-hitbox"
         style="fill:none"
         height="38"
         width="42"
         y="0"
         x="0" />
      <svg
         id="svg476"
         version="1.1"
         viewBox="28.762 30.938 42.476 38.125"
         height="38.125"
         width="42.476002">
        <desc
           id="desc464">Created with Snap</desc>
        <defs
           id="defs466" />
        <g
           id="g468" />
        <g
           id="g470" />
        <g
           id="g474">
          <polygon
             id="polygon472"
             style="fill:url(#linearGradientSk88bhxg73j);stroke:none"
             points="58.119,35.938 41.881,35.938 33.762,50 41.881,64.063 58.119,64.063 66.238,50 " />
        </g>
      </svg>
    </g>
    <g
       id="g496"
       style="opacity:1"
       transform="matrix(2.2052,0,0,2.2052,73,32)"
       class="svg-clip svg-visible">
      <rect
         id="rect480"
         class="svg-hitbox"
         style="fill:none"
         height="38"
         width="42"
         y="0"
         x="0" />
      <svg
         id="svg494"
         version="1.1"
         viewBox="1.97 15.469 42.475 38.125"
         height="38.125"
         width="42.474998">
        <desc
           id="desc482">Created with Snap</desc>
        <defs
           id="defs484" />
        <g
           id="g486" />
        <g
           id="g488" />
        <g
           id="g492">
          <polygon
             id="polygon490"
             style="fill:url(#linearGradientSk88bhxg73m);stroke:none"
             points="39.445,34.531 31.327,20.469 15.089,20.469 6.97,34.531 15.089,48.594 31.327,48.594 " />
        </g>
      </svg>
    </g>
    <rect
       x="92"
       y="63"
       width="92.618401"
       height="83.7976"
       style="fill:none;stroke-width:2.20519996"
       class="svg-hitbox"
       id="rect516" />
    <svg
       width="42.476002"
       height="38.125"
       viewBox="28.762 0 42.476 38.125"
       version="1.1"
       id="svg530">
      <desc
         id="desc518">Created with Snap</desc>
      <defs
         id="defs520" />
      <g
         id="g522" />
      <g
         id="g524" />
      <g
         id="g528">
        <polygon
           points="58.119,5 41.881,5 33.762,19.063 41.881,33.125 58.119,33.125 66.238,19.063 "
           style="fill:url(#linearGradientSk88bhxg73s);stroke:none"
           id="polygon526" />
      </g>
    </svg>
    <g
       id="g550"
       style="opacity:1"
       transform="matrix(2.2052,0,0,2.2052,19,0)"
       class="svg-clip svg-visible">
      <rect
         id="rect534"
         class="svg-hitbox"
         style="fill:none"
         height="38"
         width="42"
         y="0"
         x="0" />
      <svg
         id="svg548"
         version="1.1"
         viewBox="28.762 61.875 42.476 38.125"
         height="38.125"
         width="42.476002">
        <desc
           id="desc536">Created with Snap</desc>
        <defs
           id="defs538" />
        <g
           id="g540" />
        <g
           id="g542" />
        <g
           id="g546">
          <polygon
             id="polygon544"
             style="fill:url(#linearGradientSk88bhxg744);stroke:none"
             points="58.119,95 66.238,80.938 58.119,66.875 41.881,66.875 33.762,80.938 41.881,95 " />
        </g>
      </svg>
    </g>
    <g
       id="g558"
       style="opacity:1"
       transform="matrix(0.5,0,0,0.5,95.309,147.8986)"
       class="svg-text svg-visible">
      <path
         inkscape:connector-curvature="0"
         id="path552"
         d="m -122.87598,105.68359 c 102.87598,-1 142.87598,-1 245.75196,0"
         style="fill:none" />
      <path
         style="fill:url(#linearGradientSk88bhxg73y)"
         inkscape:connector-curvature="0"
         id="path554"
         data-xmlspace="preserve"
         transform="translate(0,94.262695)"
         data-font-scale="contain"
         data-font-src="/Content/clientfonts/fjallaone.woff"
         data-font="Fjalla One"
         data-href=""
         data-dy="94.2626953125"
         data-dx="0"
         data-offset="0"
         data-side="left"
         data-letterspacing="0"
         data-font-size="100"
         data-text-anchor="middle"
         data-textpath="homin"
         d="m -116.52598,0 v -88.82 h 12.35 V -73 l -0.63,11.53 q 1.36,-1.91 2.95,-3.15 1.59,-1.25 3.270003,-2.01 1.69,-0.75 3.42,-1.07 1.73,-0.32 3.44,-0.32 v 0 q 5.91,0 9.11,4.13 3.2,4.12 3.2,12.38 v 0 V 0 h -12.36 v -51.07 q 0,-4.45 -1.36,-6.18 -1.37,-1.73 -4.01,-1.73 v 0 q -1.85,0 -3.730003,1.24 -1.88,1.25 -3.3,3.44 v 0 V 0 Z m 66.842347,0.73 v 0 q -2.15,0 -4.37,-0.34 -2.22,-0.34 -4.3,-1.42 -2.07,-1.07 -3.9,-3.07 -1.83,-2 -3.2,-5.28 -1.37,-3.27 -2.15,-8.05 -0.78,-4.79 -0.78,-11.43 v 0 -10.54 q 0,-6.55 0.81,-11.21 0.8,-4.66 2.19,-7.84 1.39,-3.17 3.25,-5.05 1.86,-1.88 3.93,-2.88 2.08,-1 4.27,-1.32 2.2,-0.32 4.3,-0.32 v 0 q 2,0 4.15,0.3 2.15,0.29 4.2,1.24 2.05,0.95 3.88,2.83 1.83,1.88 3.22,5.06 1.4,3.17 2.2,7.88 0.81,4.71 0.81,11.31 v 0 10.54 q 0,6.55 -0.83,11.28 -0.83,4.74 -2.25,8.01 -1.42,3.27 -3.27,5.3 -1.86,2.02 -3.91,3.15 -2.05,1.12 -4.17,1.49 -2.13,0.36 -4.08,0.36 z m 0.1,-9.52 v 0 q 1.66,0 2.81,-0.85 1.14,-0.86 1.85,-2.81 0.71,-1.95 1.03,-5.15 0.31,-3.2 0.31,-7.94 v 0 -16.55 q 0,-4.74 -0.31,-7.96 -0.32,-3.22 -1.03,-5.2 -0.71,-1.98 -1.85,-2.86 -1.15,-0.87 -2.81,-0.87 v 0 q -1.76,0 -2.96,0.87 -1.19,0.88 -1.97,2.86 -0.78,1.98 -1.13,5.2 -0.34,3.22 -0.34,7.96 v 0 16.55 q 0,4.74 0.34,7.94 0.35,3.2 1.13,5.15 0.78,1.95 1.97,2.81 1.2,0.85 2.96,0.85 z M -20.236914,0 v -67.24 h 9.57 l 1.0699999,7.18 v 0.05 q 1.47,-2.29 3.13,-3.83 1.66,-1.54 3.44,-2.47 1.78,-0.93 3.66000004,-1.32 1.87999996,-0.39 3.73999996,-0.39 v 0 q 3.95,0 6.6900001,1.91 2.73,1.9 4.15,5.71 v 0 q 1.46,-2.2 3.1,-3.66 1.63,-1.47 3.39,-2.35 1.76,-0.88 3.57,-1.24 1.8,-0.37 3.66,-0.37 v 0 q 5.86,0 9.06,4.13 3.19,4.12 3.19,12.38 v 0 V 0 h -12.35 v -51.07 q 0,-2.2 -0.34,-3.72 -0.34,-1.51 -1.03,-2.44 -0.68,-0.92 -1.76,-1.34 -1.07,-0.41 -2.58,-0.41 v 0 q -1.71,0 -3.42,1.24 -1.71,1.25 -3.13,3.44 v 0 q 0.05,0.44 0.05,0.88 0,0.44 0,0.88 v 0 V 0 H 4.2730859 v -51.07 q 0,-2.2 -0.34,-3.72 -0.34,-1.51 -1.03,-2.44 -0.68,-0.92 -1.76,-1.34 -1.06999996,-0.41 -2.58,-0.41 v 0 q -1.66,0 -3.37,1.22 -1.71,1.22 -3.08,3.37 v 0 V 0 Z m 80.80875,-76.86 v 0 q -3.42,0 -5.4,-2.05 -1.97,-2.05 -1.97,-6 v 0 q 0,-2.2 0.51,-3.69 0.51,-1.49 1.46,-2.39 0.96,-0.9 2.32,-1.32 1.37,-0.41 3.13,-0.41 v 0 q 3.66,0 5.56,1.85 1.91,1.86 1.91,5.96 v 0 q 0,3.81 -1.93,5.93 -1.93,2.12 -5.59,2.12 z m -6.4,76.86 v -67.24 h 12.36 V 0 Z m 25.249453,0 v -67.24 h 9.52 l 1.12,7.18 v 0.05 q 1.47,-2.29 3.15,-3.83 1.69,-1.54 3.49,-2.47 1.81,-0.93 3.690001,-1.32 1.88,-0.39 3.73,-0.39 v 0 q 5.91,0 9.11,4.13 3.2,4.12 3.2,12.38 v 0 V 0 h -12.35 v -51.07 q 0,-4.45 -1.37,-6.18 -1.37,-1.73 -4.010001,-1.73 v 0 q -1.85,0 -3.68,1.22 -1.83,1.22 -3.25,3.37 v 0 V 0 Z" />
      <rect
         id="rect556"
         height="0"
         width="0"
         y="0"
         x="0" />
    </g>
  </g>
  <g
     id="g562"
     transform="translate(-543.691,-815.1014)">
    <rect
       x="0"
       y="0"
       width="0"
       height="0"
       fill="rgba(255,136,0,0.1)"
       style="stroke:#ff8800;stroke-width:1"
       id="rect560" />
  </g>
  <g
     class="selector-part"
     id="g566"
     transform="translate(-543.691,-815.1014)">
    <rect
       x="0"
       y="0"
       width="0"
       height="0"
       fill="rgba(168,202,236,0.5)"
       style="stroke:#3399ff;stroke-width:1"
       id="rect564" />
  </g>
</svg>
