<?xml version="1.0" encoding="utf-8"?>
<!-- Generator: Adobe Illustrator 16.0.0, SVG Export Plug-In . SVG Version: 6.00 Build 0)  -->
<!DOCTYPE svg PUBLIC "-//W3C//DTD SVG 1.1//EN" "http://www.w3.org/Graphics/SVG/1.1/DTD/svg11.dtd">
<svg version="1.1" id="图层_1" xmlns="http://www.w3.org/2000/svg" xmlns:xlink="http://www.w3.org/1999/xlink" x="0px" y="0px"
	 width="199.93px" height="231.147px" viewBox="0 0 199.93 231.147" enable-background="new 0 0 199.93 231.147"
	 xml:space="preserve">
<path fill="#E35D5D" d="M111.09,138.194c-3.461,0-6.785-1.198-9.445-3.594c-18.36-15.965-59.066-49.09-40.309-77.426
	c5.32-8.117,14.5-13.039,24.344-13.039c7.98,0,15.433,3.063,21.019,8.649c1.73,1.729,3.324,3.594,4.789,5.719
	c7.582-9.446,17.16-14.5,27.539-14.5c12.637,0,22.348,6.652,26.074,17.695c5.719,17.293-2.66,41.64-45.23,73.698
	C117.211,137.261,114.281,138.194,111.09,138.194L111.09,138.194z M85.68,51.32c-7.449,0-14.235,3.594-18.227,9.715
	c-16.097,24.344,25.809,56.672,38.98,68.112c2.395,2.129,6.254,2.262,8.914,0.398c36.984-27.804,48.156-49.355,42.703-65.585
	c-2.793-8.25-9.578-12.641-19.156-12.641c-11.309,0-19.156,7.983-23.281,13.702c6.254,11.441,9.844,26.742,5.055,35.388
	c-2.129,3.726-5.719,5.854-10.109,5.854c-3.992,0-7.316-1.996-9.313-5.59c-4.258-7.847-1.73-23.144,5.719-35.652
	c-1.73-2.659-3.59-4.922-5.586-6.918C97.254,53.714,91.668,51.32,85.68,51.32L85.68,51.32z M111.223,72.472
	c-4.789,9.981-5.855,20.224-3.594,24.614c0.668,1.332,1.598,1.863,2.93,1.863c1.727,0,2.926-0.668,3.723-2.129
	C116.676,92.562,115.879,82.718,111.223,72.472L111.223,72.472z M111.223,72.472"/>
<path fill="#737680" d="M85.223,26.957c0.371,0.824,1.179,1.315,2.031,1.315c0.301,0,0.609-0.062,0.902-0.194
	c1.121-0.5,1.625-1.813,1.125-2.935L78.649,1.32c-0.5-1.121-1.817-1.63-2.934-1.125c-1.121,0.5-1.621,1.812-1.121,2.934
	L85.223,26.957z M85.223,26.957"/>
<path fill="#737680" d="M67.992,35.652c0.653,0,1.301-0.285,1.739-0.837c0.765-0.961,0.609-2.354-0.352-3.12L55.524,20.647
	c-0.958-0.766-2.356-0.608-3.122,0.353c-0.765,0.961-0.605,2.354,0.352,3.121l13.855,11.047
	C67.02,35.496,67.508,35.652,67.992,35.652L67.992,35.652z M67.992,35.652"/>
<path fill="#737680" d="M139.426,28.261c0.301,0.137,0.613,0.2,0.922,0.2c0.844,0,1.648-0.481,2.023-1.297l8.258-18.06
	c0.512-1.112,0.02-2.434-1.094-2.94c-1.113-0.508-2.438-0.021-2.945,1.093l-8.258,18.059
	C137.82,26.433,138.313,27.754,139.426,28.261L139.426,28.261z M139.426,28.261"/>
<path fill="#737680" d="M167.105,20.19l-11.164,12.919c-0.805,0.93-0.703,2.331,0.227,3.133c0.418,0.362,0.938,0.539,1.449,0.539
	c0.625,0,1.242-0.259,1.684-0.767l11.164-12.918c0.801-0.929,0.699-2.332-0.227-3.133C169.309,19.164,167.906,19.265,167.105,20.19
	L167.105,20.19z M167.105,20.19"/>
<path fill="#737680" d="M112.477,25.683c0.027,0,0.051,0.004,0.078,0.004c1.191,0,2.176-0.944,2.215-2.147l0.516-15.301
	c0.043-1.228-0.918-2.255-2.141-2.298c-1.207-0.012-2.254,0.918-2.297,2.148l-0.516,15.301
	C110.293,24.617,111.254,25.644,112.477,25.683L112.477,25.683z M112.477,25.683"/>
<g>
	<path fill="#737680" d="M173.293,50.937c-0.816,0.396-1.277,1.224-1.246,2.074c0.012,0.301,0.082,0.606,0.227,0.896
		c0.535,1.101,1.867,1.558,2.969,1.019l23.441-11.457c1.102-0.539,1.559-1.871,1.02-2.968c-0.539-1.103-1.871-1.56-2.973-1.021
		L173.293,50.937z M173.293,50.937"/>
</g>
<g>
	<path fill="#737680" d="M173.953,105.086c-0.125,0.3-0.18,0.617-0.168,0.925c0.027,0.844,0.539,1.633,1.367,1.978l18.332,7.625
		c1.133,0.469,2.434-0.067,2.906-1.199c0.469-1.129-0.066-2.435-1.199-2.903l-18.336-7.625
		C175.727,103.418,174.422,103.953,173.953,105.086L173.953,105.086z M173.953,105.086"/>
</g>
<g>
	<path fill="#737680" d="M183.07,132.858l-13.297-10.707c-0.953-0.77-2.352-0.617-3.121,0.336c-0.348,0.434-0.508,0.953-0.492,1.47
		c0.023,0.62,0.305,1.229,0.828,1.651l13.297,10.707c0.957,0.771,2.355,0.621,3.125-0.336
		C184.18,135.026,184.027,133.629,183.07,132.858L183.07,132.858z M183.07,132.858"/>
</g>
<g>
	<path fill="#737680" d="M175.188,78.843c0,0.028,0,0.051,0,0.078c0.043,1.192,1.023,2.141,2.223,2.141l15.313-0.019
		c1.227,0,2.219-0.997,2.219-2.223c-0.031-1.207-0.996-2.22-2.227-2.22l-15.309,0.021C176.18,76.621,175.188,77.617,175.188,78.843
		L175.188,78.843z M175.188,78.843"/>
</g>
<g>
	<path fill="#737680" d="M51.813,50.937c0.812,0.396,1.273,1.224,1.246,2.074c-0.012,0.301-0.086,0.606-0.227,0.896
		c-0.539,1.101-1.867,1.558-2.969,1.019L26.422,43.468c-1.102-0.539-1.563-1.871-1.02-2.968c0.539-1.103,1.868-1.56,2.969-1.021
		L51.813,50.937z M51.813,50.937"/>
</g>
<g>
	<path fill="#737680" d="M51.149,105.086c0.128,0.3,0.179,0.617,0.171,0.925c-0.031,0.844-0.543,1.633-1.367,1.978l-18.336,7.625
		c-1.133,0.469-2.433-0.067-2.902-1.199c-0.473-1.129,0.066-2.435,1.195-2.903l18.336-7.625
		C49.379,103.418,50.68,103.953,51.149,105.086L51.149,105.086z M51.149,105.086"/>
</g>
<g>
	<path fill="#737680" d="M42.031,132.858l13.297-10.707c0.957-0.77,2.356-0.617,3.125,0.336c0.348,0.434,0.508,0.953,0.488,1.47
		c-0.019,0.62-0.304,1.229-0.824,1.651l-13.301,10.707c-0.953,0.771-2.351,0.621-3.121-0.336
		C40.926,135.026,41.074,133.629,42.031,132.858L42.031,132.858z M42.031,132.858"/>
</g>
<g>
	<path fill="#737680" d="M49.914,78.843c0,0.028,0,0.051,0,0.078c-0.043,1.192-1.019,2.141-2.223,2.141l-15.312-0.019
		c-1.227,0-2.215-0.997-2.215-2.223c0.031-1.207,0.996-2.22,2.223-2.22l15.312,0.021C48.922,76.621,49.918,77.617,49.914,78.843
		L49.914,78.843z M49.914,78.843"/>
</g>
<path fill="#737680" d="M142.879,147.425c-0.367-0.824-1.18-1.316-2.031-1.316c-0.301,0-0.609,0.063-0.902,0.195
	c-1.121,0.5-1.621,1.813-1.121,2.934l10.629,23.824c0.5,1.121,1.816,1.629,2.934,1.125c1.121-0.5,1.625-1.812,1.125-2.933
	L142.879,147.425z M142.879,147.425"/>
<g>
	<path fill="#737680" d="M159.809,138.558c-0.648-0.09-1.328,0.102-1.84,0.586c-0.891,0.844-0.93,2.25-0.086,3.141l12.184,12.867
		c0.84,0.892,2.25,0.931,3.137,0.086c0.895-0.844,0.93-2.25,0.09-3.141l-12.184-12.867
		C160.75,138.851,160.289,138.629,159.809,138.558L159.809,138.558z M159.809,138.558"/>
</g>
<path fill="#737680" d="M88.676,146.121c-0.297-0.138-0.613-0.2-0.922-0.2c-0.84,0-1.648,0.48-2.02,1.297l-8.261,18.059
	c-0.512,1.113-0.02,2.435,1.097,2.941c1.114,0.508,2.434,0.02,2.942-1.093l8.262-18.06
	C90.281,147.948,89.789,146.629,88.676,146.121L88.676,146.121z M88.676,146.121"/>
<path fill="#737680" d="M61,154.19l11.164-12.918c0.801-0.93,0.699-2.332-0.23-3.133c-0.418-0.363-0.934-0.539-1.45-0.539
	c-0.621,0-1.242,0.258-1.679,0.766l-11.164,12.918c-0.805,0.93-0.703,2.332,0.226,3.134C58.793,155.218,60.195,155.116,61,154.19
	L61,154.19z M61,154.19"/>
<path fill="#737680" d="M115.629,148.698c-0.027,0-0.051-0.004-0.078-0.004c-1.191,0-2.18,0.945-2.219,2.148l-0.516,15.301
	c-0.039,1.228,0.922,2.254,2.145,2.297c1.207,0.012,2.254-0.918,2.297-2.147l0.512-15.302
	C117.813,149.765,116.852,148.737,115.629,148.698L115.629,148.698z M115.629,148.698"/>
<path fill="#737680" d="M12.316,222.698c0.911,0,1.723-0.198,2.438-0.594l-0.297,6.723c-1.863,1.548-3.984,2.32-6.367,2.32
	c-3.606,0-5.949-0.832-7.02-2.5C0.359,227.539,0,226.358,0,225.108s0.082-2.352,0.238-3.301l3.571-20.109h10.113L10.59,220.44
	c-0.039,0.234-0.059,0.453-0.059,0.652C10.531,222.164,11.125,222.698,12.316,222.698L12.316,222.698z M4.996,192.004
	c0-2.54,0.567-4.396,1.699-5.563c1.129-1.172,2.883-1.754,5.262-1.754c3.332,0,5,1.465,5,4.402c0,2.497-0.566,4.32-1.695,5.473
	c-1.133,1.149-2.906,1.723-5.324,1.723C6.645,196.284,4.996,194.858,4.996,192.004L4.996,192.004z M37.539,212.05
	c0-1.703-0.824-2.559-2.469-2.559c-1.644,0-3.004,0.617-4.074,1.845l-3.332,18.979H17.551l5.055-28.617h9.402l-0.656,3.513
	c2.339-2.896,5.297-4.345,8.863-4.345c3.57,0,5.891,0.871,6.961,2.617c0.676,1.109,1.012,2.379,1.012,3.81
	c0,1.425-0.098,2.753-0.297,3.983l-1.606,9.164c-0.039,0.234-0.062,0.453-0.062,0.652c0,1.071,0.597,1.605,1.785,1.605
	c0.914,0,1.726-0.198,2.441-0.594l-0.297,6.723c-1.867,1.548-3.988,2.32-6.367,2.32c-5.394,0-8.09-2.262-8.09-6.781
	c0-0.793,0.079-1.648,0.239-2.559l1.425-7.914C37.481,213.183,37.539,212.565,37.539,212.05L37.539,212.05z M37.539,212.05"/>
</svg>
