<svg id="workspace" xmlns="http://www.w3.org/2000/svg" xmlns:xlink="http://www.w3.org/1999/xlink" style="text-rendering: geometricprecision;"><desc>Created with Snap</desc><defs><linearGradient x1="0" y1="0.5" x2="1" y2="0.5" id="linearGradientSk54swxoh1c"><stop offset="0%" stop-color="#ffc04a"></stop><stop offset="100%" stop-color="#ff6347"></stop></linearGradient><linearGradient x1="0" y1="0.5" x2="1" y2="0.5" id="linearGradientSk54swxoh1m"><stop offset="0%" stop-color="#ffc04a"></stop><stop offset="100%" stop-color="#ff6347"></stop></linearGradient><linearGradient x1="0" y1="0.5" x2="1" y2="0.5" id="linearGradientSk54swxoh1s"><stop offset="0%" stop-color="#ffc04a"></stop><stop offset="100%" stop-color="#ff6347"></stop></linearGradient><linearGradient x1="0" y1="0.5" x2="1" y2="0.5" id="linearGradientSk54swxoh1y"><stop offset="0%" stop-color="#ffc04a"></stop><stop offset="100%" stop-color="#ff6347"></stop></linearGradient><linearGradient x1="0" y1="0.5" x2="1" y2="0.5" id="linearGradientSk54swxoh21"><stop offset="0%" stop-color="#ffc04a"></stop><stop offset="100%" stop-color="#ff6347"></stop></linearGradient><linearGradient x1="0" y1="0.5" x2="1" y2="0.5" id="linearGradientSk54swxoh27"><stop offset="0%" stop-color="#3a3a3a"></stop><stop offset="100%" stop-color="#3a3a3a"></stop></linearGradient></defs><g class="background-part"><rect x="0" y="0" width="2290" height="1202" fill="rgba(255,255,255,0.25)" style=""></rect></g><g class="selector-part"><rect x="0" y="0" width="1851" height="1202" fill="rgba(255,255,255,0)" style="transition: all 0.6s ease 0s;"></rect></g><g class="selector-part" transform="matrix(1,0,0,1,1074,644)"><rect x="0" y="0" width="0" height="0" fill="rgba(255,255,255,0)" style="cursor: move;"></rect></g><g class="svg-clip svg-visible" transform="matrix(3.6289,0,0,3.6289,927.2244,422.4315)" style="cursor: move; opacity: 1;"><rect x="0" y="0" width="109" height="67" fill="none" class="svg-hitbox" style=""></rect><svg width="109.999" height="67.98799999999999" viewBox="-4.624,14.508999999999997,109.999,67.98799999999999"><desc>Created with Snap</desc><defs></defs><g></g><g></g><g><path fill="url('#linearGradientSk54swxoh21')" d="M96.897,37.513c1.921,0,3.478-1.558,3.478-3.479c0-1.92-1.557-3.478-3.478-3.478s-3.478,1.558-3.478,3.478  c0,0.422,0.079,0.825,0.217,1.2l-10.153,8.649l-12.864-7.567c0.073-0.297,0.116-0.607,0.116-0.927c0-2.142-1.736-3.878-3.878-3.878  c-0.869,0-1.668,0.289-2.314,0.772L52.92,23.054c0.054-0.22,0.086-0.448,0.086-0.684c0-1.581-1.281-2.861-2.861-2.861  s-2.861,1.281-2.861,2.861c0,0.729,0.275,1.393,0.724,1.898l-5.835,12.488c-0.26-0.045-0.526-0.074-0.8-0.074  c-0.86,0-1.662,0.239-2.351,0.647l-15.438-6.915c0.036-0.225,0.06-0.454,0.06-0.689c0-2.38-1.929-4.309-4.309-4.309  c-2.379,0-4.309,1.929-4.309,4.309s1.929,4.309,4.309,4.309c1.352,0,2.556-0.623,3.346-1.596l14.682,6.576  c-0.384,0.674-0.607,1.452-0.607,2.284c0,0.852,0.293,1.605,0.694,2.29l-8.233,8.237c-1.136-0.811-2.506-1.294-4.003-1.294  c-2.642,0-4.915,1.501-6.082,3.684l-0.096-0.032c-0.001,0.012-0.004,0.023-0.005,0.035L7.553,49.002  c0.016-0.134,0.025-0.271,0.025-0.409c0-1.989-1.612-3.601-3.601-3.601s-3.601,1.612-3.601,3.601s1.612,3.601,3.601,3.601  c1.054,0,1.999-0.455,2.657-1.177l11.723,5.329c-0.005,0.013-0.009,0.025-0.015,0.037l0.056,0.019  c-0.054,0.348-0.108,0.694-0.108,1.055c0,1.954,0.813,3.716,2.115,4.975l-0.017,0.013c0.004,0.005,0.008,0.01,0.012,0.014  l-5.973,8.802c-0.155-0.027-0.314-0.044-0.478-0.044c-1.479,0-2.678,1.198-2.678,2.678c0,1.479,1.199,2.678,2.678,2.678  c1.479,0,2.678-1.199,2.678-2.678c0-0.501-0.14-0.969-0.38-1.37l5.364-7.904l0.71-0.877c0.881,0.407,1.859,0.641,2.894,0.641  c1.902,0,3.629-0.771,4.883-2.016l6.993,4.991c-0.199,0.514-0.334,1.06-0.334,1.641c0,2.548,2.065,4.617,4.617,4.617  c2.159,0,3.965-1.483,4.471-3.482l15.916-4.923c0.977,1.815,2.893,3.05,5.099,3.05c1.273,0,2.447-0.417,3.403-1.114l7.12,6.611  c-0.038,0.193-0.059,0.393-0.059,0.597c0,1.734,1.406,3.14,3.14,3.14s3.139-1.405,3.139-3.14c0-1.733-1.405-3.139-3.139-3.139  c-0.707,0-1.358,0.236-1.883,0.631l-6.811-6.323c0.552-0.887,0.893-1.93,0.893-3.05c0-2.815-1.661-5.16-4.661-5.677V39.104  c1-0.172,1.082-0.478,1.513-0.878l13.332,7.848l11.179,15.655c-0.092,0.23-0.146,0.481-0.146,0.745c0,1.125,0.91,2.037,2.035,2.037  s2.037-0.912,2.037-2.037s-0.913-2.037-2.038-2.037c-0.03,0-0.06,0.003-0.09,0.005L85.094,45.422l9.931-8.459  C95.565,37.31,96.207,37.513,96.897,37.513z M61.07,62.474c0,0.21,0.013,0.416,0.035,0.62l-15.275,4.724  c-0.522-1.975-2.316-3.435-4.458-3.435c-1.123,0-2.114,0.451-2.913,1.113l-7.038-5.022c0.447-0.92,0.717-1.93,0.717-3.017  c0-1.492-0.487-2.871-1.29-3.999l8.233-8.237c0.686,0.401,1.438,0.694,2.291,0.694c1.642,0,3.079-0.857,3.897-2.147l17.222,14.914  C61.609,59.699,61.07,61.022,61.07,62.474z M66,56.797c-1,0.1-1.135,0.273-1.596,0.502l-18.36-15.846  c0.002-0.052-0.023-0.102-0.023-0.154c0-1.485-0.718-2.802-1.806-3.646l5.799-12.428c0.046,0.002,0.088,0.007,0.134,0.007  c0.53,0,1.023-0.147,1.449-0.399l11.621,9.229c-0.151,0.415-0.113,0.861-0.113,1.328c0,1.757,0.895,3.238,2.895,3.715V56.797z" stroke="none" style=""></path></g></svg></g><g class="svg-text svg-visible" transform="matrix(1.0872,0,0,1.0872,1126,648)" style="pointer-events: fill; cursor: move; opacity: 1;"><path fill="none" style="" d="M-47.8,101.9 C-20,100.9 20,100.9 47.8,101.9"></path><path d="M-40.599999999999994 0L-40.599999999999994-53.8L-24.999999999999996-53.8L-24.999999999999996 0L-40.599999999999994 0ZM-32.8-61.3Q-37.099999999999994-61.3 -39.8-63.8Q-42.5-66.3 -42.5-70L-42.5-70Q-42.5-73.7 -39.8-76.2Q-37.099999999999994-78.7 -32.8-78.7L-32.8-78.7Q-28.499999999999996-78.7 -25.799999999999997-76.3Q-23.099999999999998-73.9 -23.099999999999998-70.3L-23.099999999999998-70.3Q-23.099999999999998-66.4 -25.799999999999997-63.85Q-28.499999999999996-61.3 -32.8-61.3L-32.8-61.3ZM 15.100000000000001 0.8Q 6.600000000000005 0.8 -0.14999999999999503-2.75Q-6.899999999999995-6.3 -10.699999999999996-12.6Q-14.499999999999996-18.9 -14.499999999999996-26.9L-14.499999999999996-26.9Q-14.499999999999996-34.9 -10.699999999999996-41.2Q-6.899999999999995-47.5 -0.14999999999999503-51.05Q 6.600000000000005-54.6  15.100000000000001-54.6L 15.100000000000001-54.6Q 23.6-54.6  30.300000000000004-51.05Q 37.00000000000001-47.5  40.800000000000004-41.2Q 44.6-34.9  44.6-26.9L 44.6-26.9Q 44.6-18.9  40.800000000000004-12.6Q 37.00000000000001-6.3  30.300000000000004-2.75Q 23.6 0.8  15.100000000000001 0.8L 15.100000000000001 0.8ZM 15.100000000000001-12Q 21.1-12  24.950000000000003-16.05Q 28.800000000000004-20.1  28.800000000000004-26.9L 28.800000000000004-26.9Q 28.800000000000004-33.7  24.950000000000003-37.75Q 21.1-41.8  15.100000000000001-41.8L 15.100000000000001-41.8Q 9.100000000000005-41.8  5.200000000000003-37.75Q 1.3000000000000043-33.7  1.3000000000000043-26.9L 1.3000000000000043-26.9Q 1.3000000000000043-20.1  5.200000000000003-16.05Q 9.100000000000005-12  15.100000000000001-12L 15.100000000000001-12Z" data-textpath="io" data-text-anchor="middle" data-font-size="100" data-letterspacing="0" data-side="left" data-offset="0" data-dx="0" data-dy="91.42500000000001" data-href="" data-font="Montserrat" data-font-src="/Content/clientfonts/montserrat-bold.woff" data-font-scale="contain" transform="translate(0,91.42500000000001)" data-xmlspace="preserve" fill="url('#linearGradientSk54swxoh27')"></path><rect x="0" y="0" width="0" height="0"></rect></g><g><rect x="0" y="0" width="0" height="0" fill="rgba(255,136,0,0.1)" stroke="#ff8800" style="stroke-width: 1;"></rect></g><g class="selector-part"><rect x="0" y="0" width="0" height="0" fill="rgba(168,202,236,0.5)" stroke="#3399ff" style="stroke-width: 1;"></rect></g><g class="selector-part" transform="matrix(1,0,0,1,1074,644)"><rect x="0" y="0" width="0" height="0" fill="none" stroke="#2390bb" style="stroke-width: 2;"></rect><g transform="matrix(0.5,0,0,0.5,0,0)"><svg version="1.1" id="Calque_1" xmlns="http://www.w3.org/2000/svg" xmlns:xlink="http://www.w3.org/1999/xlink" x="0" y="-71px" width="28.94px" height="30px" viewBox="0 -15 28.94 30" enable-background="new 0 -15 28.94 30" xml:space="preserve" style="cursor: pointer;">
<g>
	<path fill="rgba(0,0,0,0)" d="M23.355-9.979c-0.352-0.263-0.712-0.511-1.084-0.739L20.34-7.486c0.317,0.195,0.629,0.414,0.929,0.646
		L23.355-9.979z" style=""></path>
	<path fill="rgba(0,0,0,0)" d="M28.894,0.081L25.092-0.13c0.292,2.317-0.217,4.718-1.539,6.756l-0.037-0.021
		c-0.376,0.583-0.821,1.137-1.335,1.648c-3.808,3.809-9.902,3.942-13.871,0.396C8.282,8.623,8.255,8.602,8.227,8.576
		C8.143,8.498,8.059,8.421,7.976,8.339c-0.052-0.051-0.104-0.1-0.153-0.152C7.8,8.163,7.776,8.14,7.753,8.115
		c-0.084-0.091-0.167-0.18-0.25-0.271v0.002C4.312,4.293,4.087-0.98,6.821-4.782l4.123,4.124l3.401-14.306L0.037-11.566l4.102,4.098
		C-0.064-2.14,0.193,5.554,4.917,10.587l0,0c0.012,0.016,0.023,0.025,0.033,0.037c0.091,0.098,0.181,0.199,0.278,0.293
		c0.021,0.023,0.047,0.043,0.07,0.068c0.075,0.074,0.148,0.146,0.225,0.22c0.051,0.045,0.099,0.086,0.15,0.133
		c0.053,0.047,0.104,0.094,0.156,0.14c0.144,0.13,0.291,0.257,0.439,0.375c0.01,0.012,0.018,0.016,0.027,0.023
		c5.574,4.563,13.804,4.115,18.842-1.194C27.94,7.722,29.185,3.851,28.894,0.081z" style=""></path>
	<path fill="rgba(0,0,0,0)" d="M24.122-3.353l3.544-1.319c-0.426-0.932-0.962-1.826-1.611-2.662L22.88-5.276
		C23.373-4.675,23.79-4.027,24.122-3.353z" style=""></path>
</g>
<desc>Created with Snap</desc><defs></defs><circle cx="14.5" cy="0" r="15" style="" fill="rgba(0,0,0,0)"></circle></svg></g><rect x="0" y="-21" width="0" height="21" fill="rgba(255,255,255,0)" stroke="#2390bb" style="stroke-width: 1; cursor: pointer;"></rect><circle cx="103" cy="142" r="0" fill="#ffffff" stroke="#2390bb" style="stroke-width: 2; cursor: se-resize;"></circle><circle cx="0" cy="142" r="0" fill="#ffffff" stroke="#2390bb" style="stroke-width: 2; cursor: sw-resize;"></circle><circle cx="103" cy="0" r="0" fill="#ffffff" stroke="#2390bb" style="stroke-width: 2; cursor: ne-resize;"></circle><circle cx="0" cy="0" r="0" fill="#ffffff" stroke="#2390bb" style="stroke-width: 2; cursor: nw-resize;"></circle><circle cx="52" cy="142" r="0" fill="#ffffff" stroke="#2390bb" style="stroke-width: 2; cursor: s-resize;"></circle><circle cx="52" cy="0" r="0" fill="#ffffff" stroke="#2390bb" style="stroke-width: 2; cursor: n-resize;"></circle><circle cx="0" cy="71" r="0" fill="#ffffff" stroke="#2390bb" style="stroke-width: 2; cursor: w-resize;"></circle><circle cx="103" cy="71" r="0" fill="#ffffff" stroke="#2390bb" style="stroke-width: 2; cursor: e-resize;"></circle><path stroke="#ff0000" fill="none" style="stroke-width: 3;"></path><line x1="0" x2="0" y1="0" y2="0" fill="rgba(255,255,255,0)" stroke="#2390bb" style="stroke-width: 1;"></line><line x1="0" x2="0" y1="0" y2="0" fill="rgba(255,255,255,0)" stroke="#2390bb" style="stroke-width: 1;"></line><circle cx="0" cy="0" r="0" fill="#ff0000" stroke="#2390bb" style="stroke-width: 2; cursor: pointer;"></circle><circle cx="0" cy="0" r="0" fill="#ffa500" stroke="#2390bb" style="stroke-width: 2; cursor: pointer;"></circle><circle cx="0" cy="0" r="0" fill="#ffa500" stroke="#2390bb" style="stroke-width: 2; cursor: pointer;"></circle><circle cx="0" cy="0" r="0" fill="#ff0000" stroke="#2390bb" style="stroke-width: 2; cursor: pointer;"></circle><g style="cursor: pointer; visibility: hidden; opacity: 0;" transform="matrix(1,0,0,1,-50,-15)"><rect x="0" y="0" width="30" height="30" fill="#2390bb" rx="5" ry="5" style=""></rect><rect x="6" y="6" width="18" height="4" style="" fill="#ffffff"></rect><rect x="6" y="13" width="18" height="4" fill="#ffffff" style=""></rect><rect x="6" y="20" width="18" height="4" fill="#ffffff" style=""></rect></g></g></svg>