<?xml version="1.0" encoding="utf-8"?>
<!-- Generator: Adobe Illustrator 16.0.0, SVG Export Plug-In . SVG Version: 6.00 Build 0)  -->
<!DOCTYPE svg PUBLIC "-//W3C//DTD SVG 1.1//EN" "http://www.w3.org/Graphics/SVG/1.1/DTD/svg11.dtd">
<svg version="1.1" id="图层_1" xmlns="http://www.w3.org/2000/svg" xmlns:xlink="http://www.w3.org/1999/xlink" x="0px" y="0px"
	 width="207.965px" height="152.591px" viewBox="0 0 207.965 152.591" enable-background="new 0 0 207.965 152.591"
	 xml:space="preserve">
<path fill="#52C8FA" d="M88.05,35.045c2.063-1.321,5.035-0.684,6.364,1.386c1.371,2.141,0.746,4.996-1.391,6.367
	c-1.398,0.899-3.184,0.969-4.652,0.192c-0.692-0.371-1.286-0.914-1.711-1.578C85.289,39.267,85.914,36.412,88.05,35.045
	L88.05,35.045z M84.585,54.923c-0.789,0.016-1.57-0.171-2.261-0.539c-1.473-0.781-2.41-2.3-2.449-3.964
	c-0.028-1.231,0.421-2.399,1.273-3.286c0.852-0.89,1.996-1.398,3.227-1.425c2.46-0.055,4.652,2.054,4.707,4.5
	C89.144,52.748,87.121,54.865,84.585,54.923L84.585,54.923z M89.304,65.716c-2.242-1.191-3.097-3.984-1.906-6.226
	c1.191-2.242,3.988-3.098,6.23-1.906c2.243,1.195,3.098,3.988,1.907,6.23C94.343,66.056,91.546,66.912,89.304,65.716L89.304,65.716z
	 M101.679,42.443c-2.242-1.191-3.097-3.984-1.906-6.227c1.191-2.246,3.988-3.097,6.231-1.906c2.242,1.192,3.098,3.985,1.906,6.231
	C106.715,42.783,103.921,43.638,101.679,42.443L101.679,42.443z M107.262,64.982c-1.402,0.899-3.184,0.969-4.657,0.188
	c-0.695-0.368-1.285-0.914-1.715-1.579c-0.664-1.035-0.883-2.269-0.617-3.468c0.262-1.203,0.977-2.231,2.012-2.895
	c2.059-1.32,5.035-0.687,6.363,1.387C110.023,60.759,109.398,63.611,107.262,64.982L107.262,64.982z M114.164,52.9
	c-0.852,0.891-1.996,1.391-3.227,1.422c-0.785,0.019-1.57-0.168-2.266-0.535c-1.469-0.781-2.406-2.301-2.445-3.969
	c-0.027-1.227,0.422-2.395,1.273-3.285c0.852-0.887,2-1.391,3.227-1.422c2.465-0.051,4.656,2.059,4.711,4.504
	C115.465,50.841,115.008,52.009,114.164,52.9L114.164,52.9z M114.164,52.9"/>
<path fill="#7E7E7E" d="M96.769,0.002c-7.363,0.129-13.25,6.218-13.121,13.589c0.125,7.368,6.227,13.25,13.59,13.125
	c7.368-0.128,13.254-6.226,13.129-13.593C110.238,5.756,104.141-0.127,96.769,0.002L96.769,0.002z M97.128,20.482
	c-3.925,0.07-7.179-3.066-7.25-7c-0.066-3.926,3.079-7.18,7-7.25c3.93-0.066,7.185,3.078,7.251,7.004
	C104.199,17.166,101.058,20.416,97.128,20.482L97.128,20.482z M97.128,20.482"/>
<path fill="#7E7E7E" d="M98.269,76.501c-7.363,0.129-13.25,6.227-13.121,13.59c0.125,7.367,6.227,13.25,13.59,13.125
	c7.368-0.129,13.258-6.227,13.129-13.59C111.738,82.259,105.641,76.373,98.269,76.501L98.269,76.501z M98.628,96.978
	c-3.925,0.07-7.179-3.066-7.25-6.996c-0.066-3.93,3.079-7.184,7-7.25c3.93-0.07,7.185,3.074,7.251,7.004
	C105.699,93.662,102.558,96.912,98.628,96.978L98.628,96.978z M98.628,96.978"/>
<path fill="#7E7E7E" d="M57.667,45.279c2.016,1.086,4.286,1.629,6.559,1.59c4.824-0.086,9.246-2.77,11.531-7.02
	c3.5-6.488,1.067-14.605-5.422-18.097c-6.273-3.395-14.722-0.832-18.097,5.418C48.742,33.654,51.179,41.775,57.667,45.279
	L57.667,45.279z M57.73,30.134c1.227-2.265,3.582-3.703,6.164-3.75c1.207-0.019,2.414,0.274,3.488,0.856
	c3.461,1.867,4.758,6.195,2.895,9.656c-1.219,2.266-3.574,3.699-6.152,3.742c-1.211,0.024-2.418-0.273-3.489-0.843
	C57.164,37.92,55.867,33.588,57.73,30.134L57.73,30.134z M57.73,30.134"/>
<path fill="#7E7E7E" d="M137.848,57.748c-6.301-3.395-14.738-0.813-18.098,5.425c-1.688,3.149-2.066,6.75-1.039,10.172
	c1.023,3.426,3.32,6.239,6.453,7.934c2.02,1.09,4.281,1.637,6.566,1.598c4.828-0.082,9.25-2.773,11.547-7.02
	C146.766,69.369,144.34,61.248,137.848,57.748L137.848,57.748z M137.777,72.892c-1.793,3.34-6.293,4.715-9.652,2.899
	c-1.672-0.907-2.895-2.414-3.445-4.235c-0.551-1.82-0.352-3.754,0.555-5.425c1.219-2.266,3.574-3.708,6.16-3.754
	c1.207-0.02,2.418,0.281,3.496,0.855C138.348,65.099,139.648,69.427,137.777,72.892L137.777,72.892z M137.777,72.892"/>
<path fill="#7E7E7E" d="M124.023,20.47c-3.078,1.801-5.273,4.696-6.188,8.145c-0.91,3.453-0.406,7.043,1.387,10.125
	c2.438,4.172,6.953,6.707,11.781,6.621c2.277-0.039,4.531-0.668,6.5-1.824c3.082-1.797,5.27-4.692,6.188-8.141
	c0.902-3.453,0.41-7.055-1.383-10.129C138.723,19.138,130.191,16.873,124.023,20.47L124.023,20.47z M137.656,33.814
	c-0.48,1.836-1.648,3.383-3.297,4.344c-1.055,0.617-2.258,0.953-3.465,0.976c-2.578,0.043-4.988-1.308-6.289-3.531
	c-0.957-1.644-1.223-3.566-0.742-5.41c0.484-1.836,1.656-3.379,3.297-4.34c1.047-0.613,2.25-0.953,3.465-0.972
	c2.582-0.047,4.992,1.316,6.289,3.523C137.879,30.056,138.145,31.97,137.656,33.814L137.656,33.814z M137.656,33.814"/>
<path fill="#7E7E7E" d="M58.015,58.72c-3.078,1.801-5.273,4.696-6.176,8.145c-0.91,3.453-0.418,7.051,1.383,10.133
	c2.438,4.164,6.949,6.699,11.793,6.617c2.274-0.043,4.512-0.668,6.492-1.813c6.36-3.723,8.504-11.925,4.789-18.281
	C72.714,57.392,64.187,55.123,58.015,58.72L58.015,58.72z M68.355,76.412c-1.055,0.617-2.254,0.945-3.457,0.965
	c-2.582,0.047-4.996-1.309-6.301-3.52c-0.957-1.648-1.222-3.566-0.742-5.414c0.477-1.84,1.645-3.387,3.297-4.34
	c1.051-0.617,2.242-0.953,3.449-0.976c2.59-0.043,4.996,1.316,6.305,3.535C72.89,70.06,71.742,74.431,68.355,76.412L68.355,76.412z
	 M68.355,76.412"/>
<path fill="#52C8FA" d="M32.707,126.38c3.289,0,5.875,0.93,7.753,2.793c1.879,1.859,2.817,4.605,2.817,8.23v14.945h-3.539v-14.602
	c0-2.68-0.656-4.723-1.969-6.125c-1.316-1.406-3.168-2.109-5.562-2.109c-2.723,0-4.868,0.828-6.43,2.477
	c-1.563,1.648-2.344,3.926-2.344,6.836v13.523h-3.539v-14.602c0-2.68-0.66-4.723-1.973-6.125c-1.312-1.406-3.179-2.109-5.609-2.109
	c-2.691,0-4.828,0.828-6.406,2.477c-1.578,1.648-2.367,3.926-2.367,6.836v13.523H0v-25.773h3.39v4.703
	c0.93-1.566,2.227-2.777,3.887-3.625c1.664-0.852,3.574-1.273,5.734-1.273c2.196,0,4.098,0.457,5.711,1.371
	c1.61,0.914,2.817,2.27,3.613,4.066c0.965-1.699,2.352-3.031,4.165-3.992C28.312,126.861,30.378,126.38,32.707,126.38L32.707,126.38
	z M63.718,152.591c-2.523,0-4.801-0.563-6.828-1.688c-2.031-1.129-3.625-2.688-4.789-4.68s-1.746-4.246-1.746-6.762
	s0.582-4.77,1.746-6.762s2.758-3.547,4.789-4.656c2.027-1.109,4.305-1.664,6.828-1.664c2.528,0,4.805,0.555,6.832,1.664
	c2.028,1.109,3.614,2.664,4.762,4.656c1.145,1.992,1.719,4.246,1.719,6.762s-0.574,4.77-1.719,6.762
	c-1.148,1.992-2.734,3.551-4.762,4.68C68.523,152.029,66.246,152.591,63.718,152.591L63.718,152.591z M63.718,149.505
	c1.864,0,3.532-0.418,5.012-1.25c1.48-0.833,2.633-2.016,3.465-3.551s1.246-3.285,1.246-5.242c0-1.961-0.414-3.707-1.246-5.242
	s-1.985-2.723-3.465-3.555s-3.148-1.25-5.012-1.25c-1.859,0-3.531,0.418-5.011,1.25c-1.477,0.832-2.641,2.02-3.489,3.555
	c-0.847,1.535-1.273,3.281-1.273,5.242c0,1.957,0.426,3.707,1.273,5.242c0.848,1.535,2.012,2.718,3.489,3.551
	C60.187,149.087,61.859,149.505,63.718,149.505L63.718,149.505z M85.507,149.458h16.805v2.891h-21.34v-2.305l16.504-20.531H81.269
	v-2.938h20.742v2.301L85.507,149.458z M109.742,152.591c-0.734,0-1.355-0.262-1.871-0.781c-0.516-0.523-0.773-1.16-0.773-1.914
	c0-0.75,0.258-1.379,0.773-1.883c0.516-0.508,1.137-0.762,1.871-0.762c0.73,0,1.359,0.254,1.895,0.762
	c0.531,0.504,0.797,1.133,0.797,1.883c0,0.754-0.266,1.391-0.797,1.914C111.102,152.33,110.473,152.591,109.742,152.591
	L109.742,152.591z M130.684,152.591c-2.527,0-4.805-0.563-6.832-1.688c-2.027-1.129-3.625-2.688-4.789-4.68
	c-1.16-1.992-1.742-4.246-1.742-6.762s0.582-4.77,1.742-6.762c1.164-1.992,2.762-3.547,4.789-4.656s4.305-1.664,6.832-1.664
	c2.523,0,4.801,0.555,6.828,1.664s3.617,2.664,4.762,4.656c1.148,1.992,1.723,4.246,1.723,6.762s-0.574,4.77-1.723,6.762
	c-1.145,1.992-2.734,3.551-4.762,4.68C135.484,152.029,133.207,152.591,130.684,152.591L130.684,152.591z M130.684,149.505
	c1.859,0,3.531-0.418,5.008-1.25c1.48-0.833,2.637-2.016,3.465-3.551c0.832-1.535,1.25-3.285,1.25-5.242
	c0-1.961-0.418-3.707-1.25-5.242c-0.828-1.535-1.984-2.723-3.465-3.555c-1.477-0.832-3.148-1.25-5.008-1.25
	c-1.863,0-3.535,0.418-5.012,1.25c-1.48,0.832-2.645,2.02-3.492,3.555s-1.27,3.281-1.27,5.242c0,1.957,0.422,3.707,1.27,5.242
	s2.012,2.718,3.492,3.551C127.148,149.087,128.82,149.505,130.684,149.505L130.684,149.505z M164.586,126.38
	c3.293,0,5.91,0.938,7.852,2.816c1.945,1.879,2.918,4.613,2.918,8.207v14.945h-3.539v-14.602c0-2.68-0.68-4.723-2.043-6.125
	c-1.363-1.406-3.309-2.109-5.836-2.109c-2.824,0-5.059,0.828-6.707,2.477c-1.645,1.648-2.465,3.926-2.465,6.836v13.523h-3.543
	v-25.773h3.391v4.754c0.965-1.57,2.305-2.785,4.016-3.652S162.328,126.38,164.586,126.38L164.586,126.38z M207.965,139.462
	l-0.051,1.078h-21.938c0.199,2.676,1.246,4.84,3.141,6.492c1.895,1.648,4.289,2.473,7.18,2.473c1.629,0,3.125-0.285,4.488-0.855
	c1.363-0.574,2.543-1.414,3.539-2.523l1.996,2.254c-1.164,1.371-2.617,2.414-4.363,3.133s-3.664,1.078-5.758,1.078
	c-2.695,0-5.078-0.563-7.156-1.688c-2.078-1.129-3.699-2.688-4.863-4.68c-1.16-1.992-1.742-4.246-1.742-6.762
	s0.555-4.77,1.668-6.762s2.645-3.547,4.59-4.656c1.941-1.109,4.129-1.664,6.555-1.664s4.605,0.555,6.531,1.664
	c1.93,1.109,3.441,2.656,4.539,4.629C207.418,134.65,207.965,136.912,207.965,139.462L207.965,139.462z M195.25,129.369
	c-2.527,0-4.645,0.793-6.355,2.375c-1.715,1.586-2.684,3.652-2.918,6.199h18.598c-0.234-2.547-1.203-4.613-2.918-6.199
	C199.945,130.162,197.809,129.369,195.25,129.369L195.25,129.369z M195.25,129.369"/>
<path fill="#52C8FA" d="M88.05,35.045c2.063-1.321,5.035-0.684,6.364,1.386c1.371,2.141,0.746,4.996-1.391,6.367
	c-1.398,0.899-3.184,0.969-4.652,0.192c-0.692-0.371-1.286-0.914-1.711-1.578C85.289,39.267,85.914,36.412,88.05,35.045
	L88.05,35.045z M84.585,54.923c-0.789,0.016-1.57-0.171-2.261-0.539c-1.473-0.781-2.41-2.3-2.449-3.964
	c-0.028-1.231,0.421-2.399,1.273-3.286c0.852-0.89,1.996-1.398,3.227-1.425c2.46-0.055,4.652,2.054,4.707,4.5
	C89.144,52.748,87.121,54.865,84.585,54.923L84.585,54.923z M89.304,65.716c-2.242-1.191-3.097-3.984-1.906-6.226
	c1.191-2.242,3.988-3.098,6.23-1.906c2.243,1.195,3.098,3.988,1.907,6.23C94.343,66.056,91.546,66.912,89.304,65.716L89.304,65.716z
	 M101.679,42.443c-2.242-1.191-3.097-3.984-1.906-6.227c1.191-2.246,3.988-3.097,6.231-1.906c2.242,1.192,3.098,3.985,1.906,6.231
	C106.715,42.783,103.921,43.638,101.679,42.443L101.679,42.443z M107.262,64.982c-1.402,0.899-3.184,0.969-4.657,0.188
	c-0.695-0.368-1.285-0.914-1.715-1.579c-0.664-1.035-0.883-2.269-0.617-3.468c0.262-1.203,0.977-2.231,2.012-2.895
	c2.059-1.32,5.035-0.687,6.363,1.387C110.023,60.759,109.398,63.611,107.262,64.982L107.262,64.982z M114.164,52.9
	c-0.852,0.891-1.996,1.391-3.227,1.422c-0.785,0.019-1.57-0.168-2.266-0.535c-1.469-0.781-2.406-2.301-2.445-3.969
	c-0.027-1.227,0.422-2.395,1.273-3.285c0.852-0.887,2-1.391,3.227-1.422c2.465-0.051,4.656,2.059,4.711,4.504
	C115.465,50.841,115.008,52.009,114.164,52.9L114.164,52.9z M114.164,52.9"/>
<path fill="#7E7E7E" d="M96.769,0.002c-7.363,0.129-13.25,6.218-13.121,13.589c0.125,7.368,6.227,13.25,13.59,13.125
	c7.368-0.128,13.254-6.226,13.129-13.593C110.238,5.756,104.141-0.127,96.769,0.002L96.769,0.002z M97.128,20.482
	c-3.925,0.07-7.179-3.066-7.25-7c-0.066-3.926,3.079-7.18,7-7.25c3.93-0.066,7.185,3.078,7.251,7.004
	C104.199,17.166,101.058,20.416,97.128,20.482L97.128,20.482z M97.128,20.482"/>
<path fill="#7E7E7E" d="M98.269,76.501c-7.363,0.129-13.25,6.227-13.121,13.59c0.125,7.367,6.227,13.25,13.59,13.125
	c7.368-0.129,13.258-6.227,13.129-13.59C111.738,82.259,105.641,76.373,98.269,76.501L98.269,76.501z M98.628,96.978
	c-3.925,0.07-7.179-3.066-7.25-6.996c-0.066-3.93,3.079-7.184,7-7.25c3.93-0.07,7.185,3.074,7.251,7.004
	C105.699,93.662,102.558,96.912,98.628,96.978L98.628,96.978z M98.628,96.978"/>
<path fill="#7E7E7E" d="M57.667,45.279c2.016,1.086,4.286,1.629,6.559,1.59c4.824-0.086,9.246-2.77,11.531-7.02
	c3.5-6.488,1.067-14.605-5.422-18.097c-6.273-3.395-14.722-0.832-18.097,5.418C48.742,33.654,51.179,41.775,57.667,45.279
	L57.667,45.279z M57.73,30.134c1.227-2.265,3.582-3.703,6.164-3.75c1.207-0.019,2.414,0.274,3.488,0.856
	c3.461,1.867,4.758,6.195,2.895,9.656c-1.219,2.266-3.574,3.699-6.152,3.742c-1.211,0.024-2.418-0.273-3.489-0.843
	C57.164,37.92,55.867,33.588,57.73,30.134L57.73,30.134z M57.73,30.134"/>
<path fill="#7E7E7E" d="M137.848,57.748c-6.301-3.395-14.738-0.813-18.098,5.425c-1.688,3.149-2.066,6.75-1.039,10.172
	c1.023,3.426,3.32,6.239,6.453,7.934c2.02,1.09,4.281,1.637,6.566,1.598c4.828-0.082,9.25-2.773,11.547-7.02
	C146.766,69.369,144.34,61.248,137.848,57.748L137.848,57.748z M137.777,72.892c-1.793,3.34-6.293,4.715-9.652,2.899
	c-1.672-0.907-2.895-2.414-3.445-4.235c-0.551-1.82-0.352-3.754,0.555-5.425c1.219-2.266,3.574-3.708,6.16-3.754
	c1.207-0.02,2.418,0.281,3.496,0.855C138.348,65.099,139.648,69.427,137.777,72.892L137.777,72.892z M137.777,72.892"/>
<path fill="#7E7E7E" d="M124.023,20.47c-3.078,1.801-5.273,4.696-6.188,8.145c-0.91,3.453-0.406,7.043,1.387,10.125
	c2.438,4.172,6.953,6.707,11.781,6.621c2.277-0.039,4.531-0.668,6.5-1.824c3.082-1.797,5.27-4.692,6.188-8.141
	c0.902-3.453,0.41-7.055-1.383-10.129C138.723,19.138,130.191,16.873,124.023,20.47L124.023,20.47z M137.656,33.814
	c-0.48,1.836-1.648,3.383-3.297,4.344c-1.055,0.617-2.258,0.953-3.465,0.976c-2.578,0.043-4.988-1.308-6.289-3.531
	c-0.957-1.644-1.223-3.566-0.742-5.41c0.484-1.836,1.656-3.379,3.297-4.34c1.047-0.613,2.25-0.953,3.465-0.972
	c2.582-0.047,4.992,1.316,6.289,3.523C137.879,30.056,138.145,31.97,137.656,33.814L137.656,33.814z M137.656,33.814"/>
<path fill="#7E7E7E" d="M58.015,58.72c-3.078,1.801-5.273,4.696-6.176,8.145c-0.91,3.453-0.418,7.051,1.383,10.133
	c2.438,4.164,6.949,6.699,11.793,6.617c2.274-0.043,4.512-0.668,6.492-1.813c6.36-3.723,8.504-11.925,4.789-18.281
	C72.714,57.392,64.187,55.123,58.015,58.72L58.015,58.72z M68.355,76.412c-1.055,0.617-2.254,0.945-3.457,0.965
	c-2.582,0.047-4.996-1.309-6.301-3.52c-0.957-1.648-1.222-3.566-0.742-5.414c0.477-1.84,1.645-3.387,3.297-4.34
	c1.051-0.617,2.242-0.953,3.449-0.976c2.59-0.043,4.996,1.316,6.305,3.535C72.89,70.06,71.742,74.431,68.355,76.412L68.355,76.412z
	 M68.355,76.412"/>
<path fill="#52C8FA" d="M32.707,126.38c3.289,0,5.875,0.93,7.753,2.793c1.879,1.859,2.817,4.605,2.817,8.23v14.945h-3.539v-14.602
	c0-2.68-0.656-4.723-1.969-6.125c-1.316-1.406-3.168-2.109-5.562-2.109c-2.723,0-4.868,0.828-6.43,2.477
	c-1.563,1.648-2.344,3.926-2.344,6.836v13.523h-3.539v-14.602c0-2.68-0.66-4.723-1.973-6.125c-1.312-1.406-3.179-2.109-5.609-2.109
	c-2.691,0-4.828,0.828-6.406,2.477c-1.578,1.648-2.367,3.926-2.367,6.836v13.523H0v-25.773h3.39v4.703
	c0.93-1.566,2.227-2.777,3.887-3.625c1.664-0.852,3.574-1.273,5.734-1.273c2.196,0,4.098,0.457,5.711,1.371
	c1.61,0.914,2.817,2.27,3.613,4.066c0.965-1.699,2.352-3.031,4.165-3.992C28.312,126.861,30.378,126.38,32.707,126.38L32.707,126.38
	z M63.718,152.591c-2.523,0-4.801-0.563-6.828-1.688c-2.031-1.129-3.625-2.688-4.789-4.68s-1.746-4.246-1.746-6.762
	s0.582-4.77,1.746-6.762s2.758-3.547,4.789-4.656c2.027-1.109,4.305-1.664,6.828-1.664c2.528,0,4.805,0.555,6.832,1.664
	c2.028,1.109,3.614,2.664,4.762,4.656c1.145,1.992,1.719,4.246,1.719,6.762s-0.574,4.77-1.719,6.762
	c-1.148,1.992-2.734,3.551-4.762,4.68C68.523,152.029,66.246,152.591,63.718,152.591L63.718,152.591z M63.718,149.505
	c1.864,0,3.532-0.418,5.012-1.25c1.48-0.833,2.633-2.016,3.465-3.551s1.246-3.285,1.246-5.242c0-1.961-0.414-3.707-1.246-5.242
	s-1.985-2.723-3.465-3.555s-3.148-1.25-5.012-1.25c-1.859,0-3.531,0.418-5.011,1.25c-1.477,0.832-2.641,2.02-3.489,3.555
	c-0.847,1.535-1.273,3.281-1.273,5.242c0,1.957,0.426,3.707,1.273,5.242c0.848,1.535,2.012,2.718,3.489,3.551
	C60.187,149.087,61.859,149.505,63.718,149.505L63.718,149.505z M85.507,149.458h16.805v2.891h-21.34v-2.305l16.504-20.531H81.269
	v-2.938h20.742v2.301L85.507,149.458z M109.742,152.591c-0.734,0-1.355-0.262-1.871-0.781c-0.516-0.523-0.773-1.16-0.773-1.914
	c0-0.75,0.258-1.379,0.773-1.883c0.516-0.508,1.137-0.762,1.871-0.762c0.73,0,1.359,0.254,1.895,0.762
	c0.531,0.504,0.797,1.133,0.797,1.883c0,0.754-0.266,1.391-0.797,1.914C111.102,152.33,110.473,152.591,109.742,152.591
	L109.742,152.591z M130.684,152.591c-2.527,0-4.805-0.563-6.832-1.688c-2.027-1.129-3.625-2.688-4.789-4.68
	c-1.16-1.992-1.742-4.246-1.742-6.762s0.582-4.77,1.742-6.762c1.164-1.992,2.762-3.547,4.789-4.656s4.305-1.664,6.832-1.664
	c2.523,0,4.801,0.555,6.828,1.664s3.617,2.664,4.762,4.656c1.148,1.992,1.723,4.246,1.723,6.762s-0.574,4.77-1.723,6.762
	c-1.145,1.992-2.734,3.551-4.762,4.68C135.484,152.029,133.207,152.591,130.684,152.591L130.684,152.591z M130.684,149.505
	c1.859,0,3.531-0.414,5.008-1.25c1.48-0.833,2.637-2.016,3.465-3.551c0.832-1.535,1.25-3.285,1.25-5.242
	c0-1.961-0.418-3.707-1.25-5.242c-0.828-1.535-1.984-2.723-3.465-3.555c-1.477-0.832-3.148-1.25-5.008-1.25
	c-1.863,0-3.535,0.418-5.012,1.25c-1.48,0.832-2.645,2.02-3.492,3.555s-1.27,3.281-1.27,5.242c0,1.957,0.422,3.707,1.27,5.242
	s2.012,2.718,3.492,3.551C127.148,149.091,128.82,149.505,130.684,149.505L130.684,149.505z M164.586,126.38
	c3.293,0,5.91,0.938,7.852,2.816c1.945,1.879,2.918,4.613,2.918,8.207v14.945h-3.539v-14.602c0-2.68-0.68-4.723-2.043-6.125
	c-1.363-1.406-3.309-2.109-5.836-2.109c-2.824,0-5.059,0.828-6.707,2.477c-1.645,1.648-2.465,3.926-2.465,6.836v13.523h-3.543
	v-25.773h3.391v4.754c0.965-1.57,2.305-2.785,4.016-3.652S162.328,126.38,164.586,126.38L164.586,126.38z M207.965,139.462
	l-0.051,1.078h-21.938c0.199,2.676,1.246,4.84,3.141,6.492c1.895,1.648,4.289,2.473,7.18,2.473c1.629,0,3.125-0.285,4.488-0.855
	c1.363-0.574,2.543-1.414,3.539-2.523l1.996,2.254c-1.164,1.371-2.617,2.414-4.363,3.133s-3.664,1.078-5.758,1.078
	c-2.695,0-5.078-0.563-7.156-1.688c-2.078-1.129-3.699-2.688-4.863-4.68c-1.16-1.992-1.742-4.246-1.742-6.762
	s0.555-4.77,1.668-6.762s2.645-3.547,4.59-4.656c1.941-1.109,4.129-1.664,6.555-1.664s4.605,0.555,6.531,1.664
	c1.93,1.109,3.441,2.656,4.539,4.629C207.418,134.65,207.965,136.912,207.965,139.462L207.965,139.462z M195.25,129.369
	c-2.527,0-4.645,0.793-6.355,2.375c-1.715,1.586-2.684,3.652-2.918,6.199h18.598c-0.234-2.547-1.203-4.613-2.918-6.199
	C199.945,130.162,197.809,129.369,195.25,129.369L195.25,129.369z M195.25,129.369"/>
</svg>
