<?xml version="1.0" encoding="utf-8"?>
<!-- Generator: Adobe Illustrator 16.0.0, SVG Export Plug-In . SVG Version: 6.00 Build 0)  -->
<!DOCTYPE svg PUBLIC "-//W3C//DTD SVG 1.1//EN" "http://www.w3.org/Graphics/SVG/1.1/DTD/svg11.dtd">
<svg version="1.1" id="svgcanvas" xmlns="http://www.w3.org/2000/svg" xmlns:xlink="http://www.w3.org/1999/xlink" x="0px" y="0px"
	 width="164.954px" height="226.711px" viewBox="382.858 135.645 164.954 226.711"
	 enable-background="new 382.858 135.645 164.954 226.711" xml:space="preserve">
<path fill="none" enable-background="new    " d="z"/>
<g id="text_1" transform="rotate(0,380.1868133544922,330.64453125) matrix(1.2,0,0,1.2,380.1868133544922,330.64453125)">
	<path fill="#0E93AA" d="M23.32,26.426V13.418c0.02-1.25-0.21-2.114-0.688-2.593s-1.343-0.708-2.593-0.688H2.226v16.289h5.566
		V12.422h2.168v14.004h5.625V12.422h0.996c0.859-0.078,1.25,0.313,1.172,1.172v12.832H23.32z M43.301,26.426V13.418
		c0.02-1.25-0.21-2.114-0.688-2.593s-1.343-0.708-2.593-0.688H28.008v16.289H43.301z M33.691,24.141V12.422h2.754
		c0.859-0.078,1.25,0.313,1.172,1.172v10.547H33.691z M63.926,26.426v-2.285h-9.023l8.027-10.781
		c1.426-2.129,1.035-3.203-1.172-3.223H48.281v2.285h6.855c0.977-0.02,1.23,0.332,0.762,1.055l-9.609,12.949H63.926z M76.172,26.426
		v-4.219h-6.211v4.219H76.172z M98.906,26.426V13.418c0.02-1.25-0.21-2.114-0.688-2.593s-1.343-0.708-2.593-0.688H83.613v16.289
		H98.906z M89.297,24.141V12.422h2.754c0.859-0.078,1.25,0.313,1.172,1.172v10.547H89.297z M118.886,26.426V13.418
		c0.02-1.25-0.21-2.114-0.688-2.593s-1.343-0.708-2.593-0.688h-11.719v16.289h5.566V12.422h2.695
		c0.859-0.078,1.25,0.313,1.172,1.172v12.832H118.886z M139.687,26.426v-2.285h-10.078v-4.277h10.078v-6.445
		c0.02-1.25-0.21-2.114-0.688-2.593s-1.343-0.708-2.593-0.688h-12.539v16.289H139.687z M129.609,17.578v-5.156h3.223
		c0.859-0.078,1.25,0.313,1.172,1.172v3.984H129.609z"/>
</g>
<rect id="border_text_1" x="380.187" y="330.645" display="none" fill="none" stroke="#000000" stroke-width="0.5" stroke-dasharray="2,2" width="167.627" height="31.711"/>
<polygon id="border_text_2" display="none" fill="none" stroke="#000000" stroke-width="0.5" stroke-dasharray="2,2" points="
	462.892,373.16 462.892,373.16 462.892,373.16 "/>
<g>
	
		<rect id="selectArea" x="0" display="none" fill="#008000" fill-opacity="0.1" stroke="#008000" stroke-width="0.1" width="10" height="10"/>
</g>
<desc>www.logoaa.com</desc>
<polygon fill="#0A7080" points="384.926,135.645 465.476,315.644 384.926,245 "/>
<polygon fill="#0E93AA" points="508.457,219.388 465.476,315.644 384.926,135.645 "/>
<polygon fill="#7A9C57" points="545.926,135.645 545.5,244.5 508.457,219.388 "/>
<polygon fill="#83C258" points="545.926,135.645 508.457,219.388 465.476,190.072 "/>
<polygon fill="#39A9BC" points="465.476,315.644 545.5,244.5 508.457,219.388 "/>
</svg>
