<svg id="workspace" xmlns="http://www.w3.org/2000/svg" xmlns:xlink="http://www.w3.org/1999/xlink" style="text-rendering: geometricprecision; cursor: auto;"><desc>Created with Snap</desc><defs><linearGradient x1="0" y1="0.5" x2="1" y2="0.5" id="linearGradientSk54rvqpu6jz"><stop offset="0%" stop-color="#24b3ab"></stop><stop offset="100%" stop-color="#24b3ab"></stop></linearGradient><linearGradient x1="0" y1="0.5" x2="1" y2="0.5" id="linearGradientSk54rvqpu6k8"><stop offset="0%" stop-color="#1a918b"></stop><stop offset="100%" stop-color="#1a918b"></stop></linearGradient><linearGradient x1="0" y1="0.5" x2="1" y2="0.5" id="linearGradientSk54rvqpu6kh"><stop offset="0%" stop-color="#34d1c9"></stop><stop offset="100%" stop-color="#34d1c9"></stop></linearGradient><linearGradient x1="0" y1="0.5" x2="1" y2="0.5" id="linearGradientSk54rvqpu6kq"><stop offset="0%" stop-color="#106964"></stop><stop offset="100%" stop-color="#106964"></stop></linearGradient><linearGradient x1="0" y1="0.5" x2="1" y2="0.5" id="linearGradientSk54rvqpu6kz"><stop offset="0%" stop-color="#34d1c9"></stop><stop offset="100%" stop-color="#34d1c9"></stop></linearGradient><linearGradient x1="0" y1="0.5" x2="1" y2="0.5" id="linearGradientSk54rvqpu6l8"><stop offset="0%" stop-color="#0b4d49"></stop><stop offset="100%" stop-color="#0b4d49"></stop></linearGradient><linearGradient x1="0" y1="0.5" x2="1" y2="0.5" id="linearGradientSk54rvqpu6lh"><stop offset="0%" stop-color="#34d1c9"></stop><stop offset="100%" stop-color="#34d1c9"></stop></linearGradient><linearGradient x1="0" y1="0.5" x2="1" y2="0.5" id="linearGradientSk54rvqpu6lr"><stop offset="0%" stop-color="#24b3ab"></stop><stop offset="100%" stop-color="#24b3ab"></stop></linearGradient><linearGradient x1="0" y1="0.5" x2="1" y2="0.5" id="linearGradientSk54rvqpu6lu"><stop offset="0%" stop-color="#1a918b"></stop><stop offset="100%" stop-color="#1a918b"></stop></linearGradient><linearGradient x1="0" y1="0.5" x2="1" y2="0.5" id="linearGradientSk54rvqpu6lx"><stop offset="0%" stop-color="#34d1c9"></stop><stop offset="100%" stop-color="#34d1c9"></stop></linearGradient><linearGradient x1="0" y1="0.5" x2="1" y2="0.5" id="linearGradientSk54rvqpu6m0"><stop offset="0%" stop-color="#106964"></stop><stop offset="100%" stop-color="#106964"></stop></linearGradient><linearGradient x1="0" y1="0.5" x2="1" y2="0.5" id="linearGradientSk54rvqpu6m3"><stop offset="0%" stop-color="#34d1c9"></stop><stop offset="100%" stop-color="#34d1c9"></stop></linearGradient><linearGradient x1="0" y1="0.5" x2="1" y2="0.5" id="linearGradientSk54rvqpu6m6"><stop offset="0%" stop-color="#0b4d49"></stop><stop offset="100%" stop-color="#0b4d49"></stop></linearGradient><linearGradient x1="0" y1="0.5" x2="1" y2="0.5" id="linearGradientSk54rvqpu6m9"><stop offset="0%" stop-color="#34d1c9"></stop><stop offset="100%" stop-color="#34d1c9"></stop></linearGradient><linearGradient x1="0" y1="0.5" x2="1" y2="0.5" id="linearGradientSk54rvqpu6mf"><stop offset="0%" stop-color="#24b3ab"></stop><stop offset="100%" stop-color="#24b3ab"></stop></linearGradient><linearGradient x1="0" y1="0.5" x2="1" y2="0.5" id="linearGradientSk54rvqpu6mi"><stop offset="0%" stop-color="#1a918b"></stop><stop offset="100%" stop-color="#1a918b"></stop></linearGradient><linearGradient x1="0" y1="0.5" x2="1" y2="0.5" id="linearGradientSk54rvqpu6ml"><stop offset="0%" stop-color="#34d1c9"></stop><stop offset="100%" stop-color="#34d1c9"></stop></linearGradient><linearGradient x1="0" y1="0.5" x2="1" y2="0.5" id="linearGradientSk54rvqpu6mo"><stop offset="0%" stop-color="#106964"></stop><stop offset="100%" stop-color="#106964"></stop></linearGradient><linearGradient x1="0" y1="0.5" x2="1" y2="0.5" id="linearGradientSk54rvqpu6mr"><stop offset="0%" stop-color="#34d1c9"></stop><stop offset="100%" stop-color="#34d1c9"></stop></linearGradient><linearGradient x1="0" y1="0.5" x2="1" y2="0.5" id="linearGradientSk54rvqpu6mu"><stop offset="0%" stop-color="#0b4d49"></stop><stop offset="100%" stop-color="#0b4d49"></stop></linearGradient><linearGradient x1="0" y1="0.5" x2="1" y2="0.5" id="linearGradientSk54rvqpu6mx"><stop offset="0%" stop-color="#34d1c9"></stop><stop offset="100%" stop-color="#34d1c9"></stop></linearGradient><linearGradient x1="0" y1="0.5" x2="1" y2="0.5" id="linearGradientSk54rvqpu6n3"><stop offset="0%" stop-color="#34d1c9"></stop><stop offset="100%" stop-color="#34d1c9"></stop></linearGradient><linearGradient x1="0" y1="0.5" x2="1" y2="0.5" id="linearGradientSk54rvqpu6n6"><stop offset="0%" stop-color="#24b3ab"></stop><stop offset="100%" stop-color="#24b3ab"></stop></linearGradient><linearGradient x1="0" y1="0.5" x2="1" y2="0.5" id="linearGradientSk54rvqpu6n9"><stop offset="0%" stop-color="#1a918b"></stop><stop offset="100%" stop-color="#1a918b"></stop></linearGradient><linearGradient x1="0" y1="0.5" x2="1" y2="0.5" id="linearGradientSk54rvqpu6nc"><stop offset="0%" stop-color="#1a918b"></stop><stop offset="100%" stop-color="#1a918b"></stop></linearGradient><linearGradient x1="0" y1="0.5" x2="1" y2="0.5" id="linearGradientSk54rvqpu6nl"><stop offset="0%" stop-color="#34d1c9"></stop><stop offset="100%" stop-color="#34d1c9"></stop></linearGradient><linearGradient x1="0" y1="0.5" x2="1" y2="0.5" id="linearGradientSk54rvqpu6no"><stop offset="0%" stop-color="#34d1c9"></stop><stop offset="100%" stop-color="#34d1c9"></stop></linearGradient><linearGradient x1="0" y1="0.5" x2="1" y2="0.5" id="linearGradientSk54rvqpu6nu"><stop offset="0%" stop-color="#3a3a3a"></stop><stop offset="100%" stop-color="#3a3a3a"></stop></linearGradient></defs><g class="background-part"><rect x="0" y="0" width="1004" height="1189" fill="rgba(255,255,255,0.25)" style=""></rect></g><g class="selector-part"><rect x="0" y="0" width="1851" height="1202" fill="rgba(255,255,255,0)" style="transition: all 0.6s ease 0s;"></rect></g><g class="selector-part" transform="matrix(1,0,0,1,354,646)"><rect x="0" y="0" width="0" height="0" fill="rgba(255,255,255,0)" style="cursor: move;"></rect></g><g class="svg-clip svg-visible" transform="matrix(3.7304,0,0,3.7304,400.4908,386.7953)" style="cursor: move; opacity: 1;"><rect x="0" y="0" width="63" height="43" fill="none" class="svg-hitbox" style=""></rect><svg width="63.16360180355823" height="43.69" viewBox="23.309398196441755,28.979,63.16360180355823,43.69"><desc>Created with Snap</desc><defs></defs><g></g><g><path fill-rule="evenodd" clip-rule="evenodd" d="M30.568,33.979c0.838,1.473,1.64,2.878,2.44,4.287    c2.275,4.006,4.545,8.015,6.834,12.014c0.12,0.209,0.373,0.415,0.602,0.478c12.388,3.371,24.78,6.727,37.173,10.078    c0.335,0.091,0.549,0.243,0.712,0.571c0.941,1.904,1.914,3.794,2.874,5.688c0.078,0.155,0.149,0.317,0.27,0.574    c-0.722-0.16-1.359-0.297-1.994-0.444c-13.55-3.151-27.098-6.304-40.648-9.45c-0.323-0.074-0.528-0.217-0.681-0.528    c-3.237-6.543-6.482-13.082-9.738-19.615c-0.153-0.307-0.138-0.511,0.066-0.782C29.17,35.931,29.835,34.99,30.568,33.979z" fill="url('#linearGradientSk54rvqpu6n6')" stroke="none" style=""></path></g></svg></g><g class="svg-clip svg-visible" transform="matrix(3.9222,0,0,3.9222,382.5661,408.7885)" style="cursor: move; opacity: 1;"><rect x="0" y="0" width="66" height="46" fill="none" class="svg-hitbox" style=""></rect><svg width="66.1578794379586" height="46.59285671254629" viewBox="19.284120562041387,35.06,66.1578794379586,46.59285671254629"><desc>Created with Snap</desc><defs></defs><g></g><g><path fill-rule="evenodd" clip-rule="evenodd" d="M26.162,40.06c0.232,0.515,0.433,0.952,0.625,1.392    c3.278,7.468,6.559,14.934,9.825,22.408c0.14,0.319,0.31,0.473,0.648,0.538c4.554,0.882,9.106,1.774,13.658,2.667    c6.381,1.25,12.762,2.503,19.144,3.754c3.231,0.634,6.461,1.268,9.692,1.901c0.186,0.035,0.371,0.081,0.688,0.151    c-0.243,0.113-0.378,0.181-0.515,0.236c-2.746,1.123-5.506,2.218-8.232,3.383c-0.742,0.317-1.406,0.092-2.09-0.014    c-5.447-0.857-10.893-1.741-16.338-2.615c-5.879-0.944-11.757-1.891-17.636-2.828c-0.309-0.048-0.463-0.186-0.579-0.481    c-3.557-9.141-7.123-18.276-10.696-27.41c-0.105-0.271-0.108-0.461,0.079-0.706C25.011,41.679,25.557,40.897,26.162,40.06z" fill="url('#linearGradientSk54rvqpu6nc')" stroke="none" style=""></path></g></svg></g><g class="svg-clip svg-visible" transform="matrix(3.9222,0,0,3.9222,415.9829,358.4386)" style="cursor: move; opacity: 1;"><rect x="0" y="0" width="51" height="37" fill="none" class="svg-hitbox" style=""></rect><svg width="51.296490620007404" height="37.282" viewBox="28.176509379992595,21.565000000000005,51.296490620007404,37.282"><desc>Created with Snap</desc><defs></defs><g></g><g><path fill-rule="evenodd" clip-rule="evenodd" d="M74.473,53.847c-1.346-0.415-2.564-0.789-3.782-1.168    c-9.46-2.943-18.917-5.89-28.38-8.82c-0.451-0.139-0.742-0.365-0.998-0.757c-2.648-4.067-5.311-8.125-7.985-12.175    c-0.207-0.312-0.203-0.504,0.019-0.799c0.867-1.155,1.703-2.333,2.595-3.563c0.127,0.155,0.235,0.282,0.338,0.414    c2.299,2.985,4.594,5.973,6.904,8.948c0.167,0.214,0.424,0.407,0.679,0.497c8.649,3.066,17.301,6.122,25.96,9.164    c0.436,0.153,0.69,0.392,0.893,0.797c1.142,2.294,2.31,4.575,3.468,6.861C74.263,53.404,74.336,53.564,74.473,53.847z" fill="url('#linearGradientSk54rvqpu6n3')" stroke="none" style=""></path></g></svg></g><g class="svg-clip svg-visible" transform="matrix(3.9222,0,0,3.9222,369.944,427.944)" style="cursor: move; opacity: 1;"><rect x="0" y="0" width="50" height="50" fill="none" class="svg-hitbox" style=""></rect><svg width="50.13825659873821" height="50.13027990786883" viewBox="15.924743401261782,40.12,50.13825659873821,50.13027990786883"><desc>Created with Snap</desc><defs></defs><g></g><g><path fill-rule="evenodd" clip-rule="evenodd" d="M22.501,45.12c0.544,1.554,1.053,3.002,1.561,4.452    c3.165,9.058,6.333,18.116,9.489,27.178c0.134,0.385,0.307,0.542,0.729,0.593c3.802,0.46,7.602,0.949,11.401,1.435    c3.96,0.505,7.92,1.016,11.881,1.521c0.887,0.113,1.771,0.215,2.657,0.327c0.232,0.03,0.463,0.075,0.844,0.139    c-0.272,0.126-0.406,0.195-0.547,0.253c-3.317,1.354-6.642,2.693-9.947,4.076c-0.661,0.277-1.281,0.112-1.911,0.06    c-3.381-0.297-6.758-0.626-10.136-0.946c-2.005-0.19-4.01-0.376-6.012-0.594c-0.153-0.015-0.358-0.245-0.412-0.414    c-0.902-2.826-1.782-5.658-2.672-8.488c-2.804-8.923-5.608-17.845-8.429-26.761c-0.128-0.406-0.094-0.688,0.167-1.013    C21.611,46.38,22.012,45.791,22.501,45.12z" fill="url('#linearGradientSk54rvqpu6mo')" stroke="none" style=""></path></g></svg></g><g class="svg-clip svg-visible" transform="matrix(3.9222,0,0,3.9222,442.3997,320.1275)" style="cursor: move; opacity: 1;"><rect x="0" y="0" width="36" height="29" fill="none" class="svg-hitbox" style=""></rect><svg width="36.900999999999996" height="29.831000000000003" viewBox="34.07700000000001,12.277000000000001,36.900999999999996,29.831000000000003"><desc>Created with Snap</desc><defs></defs><g></g><g><path fill-rule="evenodd" clip-rule="evenodd" d="M42.671,17.277c1.332,1.174,2.578,2.316,3.877,3.395    c0.475,0.395,1.053,0.689,1.622,0.943c4.117,1.839,8.24,3.659,12.366,5.477c0.34,0.15,0.578,0.352,0.75,0.696    c1.491,2.972,3.002,5.933,4.506,8.897c0.058,0.114,0.103,0.235,0.186,0.423c-0.186-0.058-0.317-0.088-0.442-0.138    c-6.662-2.642-13.323-5.285-19.981-7.934c-0.204-0.081-0.418-0.196-0.566-0.354c-1.923-2.073-3.835-4.155-5.75-6.236    c-0.054-0.058-0.098-0.125-0.162-0.211C40.269,20.59,41.456,18.952,42.671,17.277z" fill="url('#linearGradientSk54rvqpu6mr')" stroke="none" style=""></path></g></svg></g><g class="svg-clip svg-visible" transform="matrix(3.9222,0,0,3.9222,361.1275,444.0995)" style="cursor: move; opacity: 1;"><rect x="0" y="0" width="29" height="54" fill="none" class="svg-hitbox" style=""></rect><svg width="29.487047844911334" height="54.083999999999996" viewBox="13.527952155088666,44.418,29.487047844911334,54.083999999999996"><desc>Created with Snap</desc><defs></defs><g></g><g><path fill-rule="evenodd" clip-rule="evenodd" d="M38.015,90.19c-2.696,1.099-5.392,2.195-8.135,3.312    c-0.343-1.275-0.679-2.506-1.007-3.738c-3.43-12.874-6.858-25.749-10.298-38.621c-0.09-0.338-0.059-0.586,0.164-0.846    c0.217-0.252,0.402-0.533,0.66-0.879c0.369,1.288,0.713,2.48,1.051,3.675c3.418,12.035,6.836,24.071,10.248,36.11    c0.083,0.294,0.206,0.417,0.521,0.437c2.108,0.12,4.214,0.261,6.322,0.397c0.157,0.01,0.313,0.034,0.469,0.053    C38.012,90.125,38.014,90.157,38.015,90.19z" fill="url('#linearGradientSk54rvqpu6mu')" stroke="none" style=""></path></g></svg></g><g class="svg-clip svg-visible" transform="matrix(3.9222,0,0,3.9222,471.6998,275.7776)" style="cursor: move; opacity: 1;"><rect x="0" y="0" width="18" height="20" fill="none" class="svg-hitbox" style=""></rect><svg width="18.873000000000005" height="20.073999999999998" viewBox="41.665,1.4960000000000004,18.873000000000005,20.073999999999998"><desc>Created with Snap</desc><defs></defs><g></g><g><path fill-rule="evenodd" clip-rule="evenodd" d="M55.457,16.57c-2.911-1.598-6.107-2.669-8.792-4.804    c1.256-1.736,2.508-3.465,3.816-5.27c1.708,3.367,3.382,6.667,5.057,9.968C55.51,16.5,55.483,16.535,55.457,16.57z" fill="url('#linearGradientSk54rvqpu6no')" stroke="none" style=""></path></g></svg></g><g class="svg-text svg-visible" transform="matrix(1.488,0,0,1.488,483,652)" style="pointer-events: fill; cursor: move; opacity: 1;"><path fill="none" style="" d="M-86.7,101.9 C-20,100.9 20,100.9 86.7,101.9"></path><path d="M-53.90000000000002 0.8Q-62.40000000000002 0.8 -69.15000000000002-2.75Q-75.90000000000002-6.3 -79.70000000000002-12.6Q-83.50000000000001-18.9 -83.50000000000001-26.9L-83.50000000000001-26.9Q-83.50000000000001-34.9 -79.70000000000002-41.2Q-75.90000000000002-47.5 -69.15000000000002-51.05Q-62.40000000000002-54.6 -53.90000000000002-54.6L-53.90000000000002-54.6Q-45.40000000000002-54.6 -38.70000000000002-51.05Q-32.000000000000014-47.5 -28.200000000000017-41.2Q-24.40000000000002-34.9 -24.40000000000002-26.9L-24.40000000000002-26.9Q-24.40000000000002-18.9 -28.200000000000017-12.6Q-32.000000000000014-6.3 -38.70000000000002-2.75Q-45.40000000000002 0.8 -53.90000000000002 0.8L-53.90000000000002 0.8ZM-53.90000000000002-12Q-47.90000000000002-12 -44.05000000000002-16.05Q-40.20000000000002-20.1 -40.20000000000002-26.9L-40.20000000000002-26.9Q-40.20000000000002-33.7 -44.05000000000002-37.75Q-47.90000000000002-41.8 -53.90000000000002-41.8L-53.90000000000002-41.8Q-59.90000000000002-41.8 -63.80000000000002-37.75Q-67.70000000000002-33.7 -67.70000000000002-26.9L-67.70000000000002-26.9Q-67.70000000000002-20.1 -63.80000000000002-16.05Q-59.90000000000002-12 -53.90000000000002-12L-53.90000000000002-12ZM-15.000000000000004-21.9L-15.000000000000004-34.4L 13.299999999999997-34.4L 13.299999999999997-21.9L-15.000000000000004-21.9ZM 52.7 1.2Q 44 1.2  37.2-3.1Q 30.400000000000006-7.4  26.550000000000004-15.55Q 22.700000000000003-23.7  22.700000000000003-35L 22.700000000000003-35Q 22.700000000000003-46.3  26.550000000000004-54.45Q 30.400000000000006-62.6  37.2-66.9Q 44-71.2  52.7-71.2L 52.7-71.2Q 61.400000000000006-71.2  68.2-66.9Q 75-62.6  78.85-54.45Q 82.7-46.3  82.7-35L 82.7-35Q 82.7-23.7  78.85-15.55Q 75-7.4  68.2-3.1Q 61.400000000000006 1.2  52.7 1.2L 52.7 1.2ZM 52.7-12.5Q 59.1-12.5  62.75000000000001-18Q 66.4-23.5  66.4-35L 66.4-35Q 66.4-46.5  62.75000000000001-52Q 59.1-57.5  52.7-57.5L 52.7-57.5Q 46.400000000000006-57.5  42.75-52Q 39.10000000000001-46.5  39.10000000000001-35L 39.10000000000001-35Q 39.10000000000001-23.5  42.75-18Q 46.400000000000006-12.5  52.7-12.5L 52.7-12.5Z" data-textpath="o-0" data-text-anchor="middle" data-font-size="100" data-letterspacing="0" data-side="left" data-offset="0" data-dx="0" data-dy="91.42500000000001" data-href="" data-font="Montserrat" data-font-src="/Content/clientfonts/montserrat-bold.woff" data-font-scale="contain" transform="translate(0,91.42500000000001)" data-xmlspace="preserve" fill="url('#linearGradientSk54rvqpu6nu')"></path><rect x="0" y="0" width="0" height="0"></rect></g><g><rect x="0" y="0" width="0" height="0" fill="rgba(255,136,0,0.1)" stroke="#ff8800" style="stroke-width: 1;"></rect></g><g class="selector-part"><rect x="0" y="0" width="0" height="0" fill="rgba(168,202,236,0.5)" stroke="#3399ff" style="stroke-width: 1;"></rect></g><g class="selector-part" transform="matrix(1,0,0,1,354,646)"><rect x="0" y="0" width="0" height="0" fill="none" stroke="#2390bb" style="stroke-width: 2;"></rect><g transform="matrix(0.5,0,0,0.5,0,0)"><svg version="1.1" id="Calque_1" xmlns="http://www.w3.org/2000/svg" xmlns:xlink="http://www.w3.org/1999/xlink" x="0" y="-71px" width="28.94px" height="30px" viewBox="0 -15 28.94 30" enable-background="new 0 -15 28.94 30" xml:space="preserve" style="cursor: pointer;">
<g>
	<path fill="rgba(0,0,0,0)" d="M23.355-9.979c-0.352-0.263-0.712-0.511-1.084-0.739L20.34-7.486c0.317,0.195,0.629,0.414,0.929,0.646
		L23.355-9.979z" style=""></path>
	<path fill="rgba(0,0,0,0)" d="M28.894,0.081L25.092-0.13c0.292,2.317-0.217,4.718-1.539,6.756l-0.037-0.021
		c-0.376,0.583-0.821,1.137-1.335,1.648c-3.808,3.809-9.902,3.942-13.871,0.396C8.282,8.623,8.255,8.602,8.227,8.576
		C8.143,8.498,8.059,8.421,7.976,8.339c-0.052-0.051-0.104-0.1-0.153-0.152C7.8,8.163,7.776,8.14,7.753,8.115
		c-0.084-0.091-0.167-0.18-0.25-0.271v0.002C4.312,4.293,4.087-0.98,6.821-4.782l4.123,4.124l3.401-14.306L0.037-11.566l4.102,4.098
		C-0.064-2.14,0.193,5.554,4.917,10.587l0,0c0.012,0.016,0.023,0.025,0.033,0.037c0.091,0.098,0.181,0.199,0.278,0.293
		c0.021,0.023,0.047,0.043,0.07,0.068c0.075,0.074,0.148,0.146,0.225,0.22c0.051,0.045,0.099,0.086,0.15,0.133
		c0.053,0.047,0.104,0.094,0.156,0.14c0.144,0.13,0.291,0.257,0.439,0.375c0.01,0.012,0.018,0.016,0.027,0.023
		c5.574,4.563,13.804,4.115,18.842-1.194C27.94,7.722,29.185,3.851,28.894,0.081z" style=""></path>
	<path fill="rgba(0,0,0,0)" d="M24.122-3.353l3.544-1.319c-0.426-0.932-0.962-1.826-1.611-2.662L22.88-5.276
		C23.373-4.675,23.79-4.027,24.122-3.353z" style=""></path>
</g>
<desc>Created with Snap</desc><defs></defs><circle cx="14.5" cy="0" r="15" style="" fill="rgba(0,0,0,0)"></circle></svg></g><rect x="0" y="-21" width="0" height="21" fill="rgba(255,255,255,0)" stroke="#2390bb" style="stroke-width: 1; cursor: pointer;"></rect><circle cx="258" cy="191" r="0" fill="#ffffff" stroke="#2390bb" style="stroke-width: 2; cursor: se-resize;"></circle><circle cx="0" cy="191" r="0" fill="#ffffff" stroke="#2390bb" style="stroke-width: 2; cursor: sw-resize;"></circle><circle cx="258" cy="0" r="0" fill="#ffffff" stroke="#2390bb" style="stroke-width: 2; cursor: ne-resize;"></circle><circle cx="0" cy="0" r="0" fill="#ffffff" stroke="#2390bb" style="stroke-width: 2; cursor: nw-resize;"></circle><circle cx="129" cy="191" r="0" fill="#ffffff" stroke="#2390bb" style="stroke-width: 2; cursor: s-resize;"></circle><circle cx="129" cy="0" r="0" fill="#ffffff" stroke="#2390bb" style="stroke-width: 2; cursor: n-resize;"></circle><circle cx="0" cy="96" r="0" fill="#ffffff" stroke="#2390bb" style="stroke-width: 2; cursor: w-resize;"></circle><circle cx="258" cy="96" r="0" fill="#ffffff" stroke="#2390bb" style="stroke-width: 2; cursor: e-resize;"></circle><path stroke="#ff0000" fill="none" style="stroke-width: 3;"></path><line x1="0" x2="0" y1="0" y2="0" fill="rgba(255,255,255,0)" stroke="#2390bb" style="stroke-width: 1;"></line><line x1="0" x2="0" y1="0" y2="0" fill="rgba(255,255,255,0)" stroke="#2390bb" style="stroke-width: 1;"></line><circle cx="0" cy="0" r="0" fill="#ff0000" stroke="#2390bb" style="stroke-width: 2; cursor: pointer;"></circle><circle cx="0" cy="0" r="0" fill="#ffa500" stroke="#2390bb" style="stroke-width: 2; cursor: pointer;"></circle><circle cx="0" cy="0" r="0" fill="#ffa500" stroke="#2390bb" style="stroke-width: 2; cursor: pointer;"></circle><circle cx="0" cy="0" r="0" fill="#ff0000" stroke="#2390bb" style="stroke-width: 2; cursor: pointer;"></circle><g style="cursor: pointer; visibility: hidden; opacity: 0;" transform="matrix(1,0,0,1,-50,-15)"><rect x="0" y="0" width="30" height="30" fill="#2390bb" rx="5" ry="5" style=""></rect><rect x="6" y="6" width="18" height="4" style="" fill="#ffffff"></rect><rect x="6" y="13" width="18" height="4" fill="#ffffff" style=""></rect><rect x="6" y="20" width="18" height="4" fill="#ffffff" style=""></rect></g></g></svg>