<?xml version="1.0" encoding="utf-8"?>
<!-- Generator: Adobe Illustrator 16.0.0, SVG Export Plug-In . SVG Version: 6.00 Build 0)  -->
<!DOCTYPE svg PUBLIC "-//W3C//DTD SVG 1.1//EN" "http://www.w3.org/Graphics/SVG/1.1/DTD/svg11.dtd">
<svg version="1.1" id="图层_1" xmlns="http://www.w3.org/2000/svg" xmlns:xlink="http://www.w3.org/1999/xlink" x="0px" y="0px"
	 width="197.767px" height="370.828px" viewBox="0 0 197.767 370.828" enable-background="new 0 0 197.767 370.828"
	 xml:space="preserve">
<g>
	<path fill-rule="evenodd" clip-rule="evenodd" fill="#24B3AB" d="M51.614,82.547c2.343,4.121,4.589,8.051,6.828,11.992
		c6.363,11.207,12.715,22.426,19.117,33.613c0.336,0.586,1.043,1.161,1.687,1.336c34.657,9.434,69.329,18.821,104,28.2
		c0.938,0.253,1.536,0.679,1.993,1.597c2.632,5.324,5.354,10.613,8.043,15.91c0.214,0.434,0.414,0.891,0.753,1.61
		c-2.019-0.449-3.8-0.832-5.578-1.242c-37.91-8.817-75.815-17.641-113.726-26.442c-0.903-0.207-1.477-0.605-1.906-1.476
		c-9.055-18.305-18.133-36.602-27.243-54.879c-0.429-0.86-0.386-1.43,0.184-2.188C47.703,88.008,49.563,85.375,51.614,82.547
		L51.614,82.547z M51.614,82.547"/>
	<path fill-rule="evenodd" clip-rule="evenodd" fill="#1A918B" d="M38.094,99.758c0.684,1.515,1.274,2.801,1.84,4.098
		c9.641,21.968,19.293,43.929,28.902,65.914c0.41,0.941,0.91,1.39,1.903,1.582c13.398,2.597,26.789,5.218,40.179,7.847
		c18.771,3.676,37.539,7.364,56.313,11.043c9.508,1.864,19.008,3.731,28.512,5.59c0.546,0.106,1.093,0.238,2.023,0.445
		c-0.716,0.332-1.109,0.532-1.517,0.696c-8.078,3.304-16.194,6.522-24.215,9.948c-2.183,0.935-4.136,0.273-6.148-0.039
		c-16.022-2.52-32.043-5.121-48.059-7.691c-17.293-2.777-34.585-5.563-51.878-8.32c-0.911-0.14-1.364-0.547-1.704-1.414
		c-10.464-26.891-20.953-53.762-31.464-80.633c-0.309-0.797-0.317-1.355,0.23-2.074C34.707,104.523,36.313,102.223,38.094,99.758
		L38.094,99.758z M38.094,99.758"/>
	<path fill-rule="evenodd" clip-rule="evenodd" fill="#34D1C9" d="M179.114,142.25c-3.961-1.219-7.543-2.32-11.125-3.434
		c-27.829-8.66-55.649-17.328-83.485-25.945c-1.328-0.41-2.183-1.074-2.937-2.226C73.778,98.68,65.946,86.742,58.078,74.828
		c-0.609-0.918-0.597-1.48,0.055-2.351c2.551-3.395,5.012-6.864,7.633-10.481c0.375,0.457,0.691,0.832,0.996,1.219
		c6.762,8.781,13.516,17.57,20.309,26.32c0.492,0.633,1.246,1.199,1.996,1.465c25.444,9.02,50.894,18.008,76.367,26.957
		c1.28,0.449,2.03,1.152,2.625,2.344c3.358,6.746,6.797,13.457,10.202,20.183C178.496,140.949,178.711,141.418,179.114,142.25
		L179.114,142.25z M179.114,142.25"/>
	<path fill-rule="evenodd" clip-rule="evenodd" fill="#106964" d="M27.739,114.125c1.601,4.574,3.097,8.832,4.593,13.098
		c9.309,26.644,18.629,53.289,27.914,79.949c0.395,1.134,0.903,1.595,2.145,1.742c11.184,1.356,22.363,2.793,33.535,4.223
		c11.652,1.484,23.301,2.988,34.953,4.473c2.61,0.332,5.207,0.633,7.813,0.961c0.683,0.09,1.363,0.223,2.483,0.411
		c-0.801,0.371-1.194,0.574-1.608,0.746c-9.758,3.979-19.539,7.921-29.262,11.987c-1.941,0.816-3.767,0.332-5.621,0.177
		c-9.945-0.871-19.879-1.841-29.816-2.782c-5.899-0.559-11.797-1.105-17.684-1.746c-0.449-0.047-1.055-0.722-1.211-1.218
		c-2.656-8.313-5.242-16.646-7.863-24.97c-8.246-26.25-16.496-52.496-24.793-78.723c-0.379-1.195-0.278-2.023,0.492-2.98
		C25.121,117.832,26.301,116.102,27.739,114.125L27.739,114.125z M27.739,114.125"/>
	<path fill-rule="evenodd" clip-rule="evenodd" fill="#34D1C9" d="M88.016,33.262c3.918,3.457,7.586,6.816,11.406,9.988
		c1.399,1.164,3.099,2.027,4.771,2.773c12.113,5.411,24.242,10.766,36.379,16.114c1,0.441,1.699,1.035,2.207,2.047
		c4.382,8.742,8.828,17.453,13.254,26.172c0.171,0.335,0.304,0.691,0.546,1.242c-0.546-0.168-0.933-0.258-1.3-0.403
		c-19.598-7.773-39.192-15.547-58.778-23.339c-0.597-0.239-1.23-0.579-1.664-1.043C89.18,60.715,83.555,54.59,77.922,48.469
		c-0.16-0.172-0.289-0.367-0.476-0.621C80.953,43.008,84.442,38.191,88.016,33.262L88.016,33.262z M88.016,33.262"/>
	<path fill-rule="evenodd" clip-rule="evenodd" fill="#0B4D49" d="M73.817,246.18c-7.934,3.234-15.864,6.457-23.934,9.742
		c-1.008-3.75-1.996-7.371-2.961-10.996c-10.09-37.87-20.172-75.742-30.293-113.609c-0.265-0.992-0.172-1.722,0.485-2.488
		c0.636-0.742,1.179-1.566,1.941-2.586c1.082,3.789,2.098,7.297,3.09,10.813c10.055,35.402,20.109,70.808,30.144,106.222
		c0.246,0.864,0.61,1.227,1.536,1.286c6.199,0.351,12.394,0.765,18.597,1.168c0.461,0.026,0.918,0.097,1.379,0.155
		C73.805,245.988,73.813,246.082,73.817,246.18L73.817,246.18z M73.817,246.18"/>
	<path fill-rule="evenodd" clip-rule="evenodd" fill="#34D1C9" d="M125.282,29.637c-8.563-4.703-17.965-7.852-25.86-14.133
		c3.692-5.106,7.375-10.191,11.224-15.504c5.022,9.906,9.948,19.613,14.875,29.324C125.438,29.43,125.36,29.531,125.282,29.637
		L125.282,29.637z M125.282,29.637"/>
	<path fill="#3A3A3A" d="M33.035,370.383c-6.324,0-11.996-1.319-17.019-3.961c-5.023-2.641-8.945-6.305-11.773-10.991
		C1.414,350.742,0,345.422,0,339.469c0-5.948,1.414-11.27,4.243-15.957c2.828-4.688,6.75-8.352,11.773-10.991
		c5.023-2.642,10.695-3.965,17.019-3.965c6.325,0,11.977,1.323,16.961,3.965c4.989,2.64,8.891,6.304,11.719,10.991
		c2.828,4.688,4.242,10.009,4.242,15.957c0,5.953-1.414,11.273-4.242,15.962c-2.828,4.687-6.73,8.351-11.719,10.991
		C45.012,369.063,39.36,370.383,33.035,370.383L33.035,370.383z M33.035,356.099c4.465,0,8.129-1.509,10.993-4.521
		c2.863-3.012,4.297-7.051,4.297-12.109s-1.434-9.094-4.297-12.109c-2.864-3.011-6.528-4.52-10.993-4.52
		c-4.464,0-8.148,1.509-11.05,4.52c-2.899,3.016-4.352,7.051-4.352,12.109s1.453,9.098,4.352,12.109
		C24.887,354.59,28.571,356.099,33.035,356.099L33.035,356.099z M76.446,345.051v-13.948h31.586v13.948H76.446z M152,370.828
		c-6.472,0-12.238-1.597-17.297-4.797c-5.058-3.199-9.022-7.832-11.886-13.895c-2.864-6.063-4.297-13.301-4.297-21.706
		c0-8.407,1.433-15.642,4.297-21.707c2.863-6.063,6.828-10.696,11.886-13.896c5.059-3.199,10.825-4.797,17.297-4.797
		c6.474,0,12.239,1.598,17.297,4.797c5.06,3.199,9.024,7.832,11.888,13.896c2.862,6.065,4.297,13.3,4.297,21.707
		c0,8.405-1.435,15.644-4.297,21.706c-2.863,6.063-6.828,10.695-11.888,13.895C164.239,369.231,158.474,370.828,152,370.828
		L152,370.828z M152,355.539c4.762,0,8.5-2.047,11.215-6.137c2.716-4.093,4.074-10.418,4.074-18.972
		c0-8.556-1.358-14.88-4.074-18.974c-2.715-4.09-6.453-6.137-11.215-6.137c-4.687,0-8.386,2.047-11.104,6.137
		c-2.715,4.094-4.07,10.418-4.07,18.974c0,8.554,1.355,14.879,4.07,18.972C143.614,353.492,147.313,355.539,152,355.539L152,355.539
		z M152,355.539"/>
</g>
</svg>
