<?xml version="1.0" encoding="utf-8"?>
<!-- Generator: Adobe Illustrator 16.0.0, SVG Export Plug-In . SVG Version: 6.00 Build 0)  -->
<!DOCTYPE svg PUBLIC "-//W3C//DTD SVG 1.1//EN" "http://www.w3.org/Graphics/SVG/1.1/DTD/svg11.dtd">
<svg version="1.1" id="图层_1" xmlns="http://www.w3.org/2000/svg" xmlns:xlink="http://www.w3.org/1999/xlink" x="0px" y="0px"
	 width="472px" height="141px" viewBox="0 0 472 141" enable-background="new 0 0 472 141" xml:space="preserve">
<g>
	<g>
		<defs>
			<rect id="SVGID_1_" width="472" height="141"/>
		</defs>
		<clipPath id="SVGID_2_">
			<use xlink:href="#SVGID_1_"  overflow="visible"/>
		</clipPath>
		<path clip-path="url(#SVGID_2_)" fill="#334747" d="M124.977,0.125H59.691c-8.972,0.008-16.246,7.277-16.261,16.25v28.109H15.18
			C6.871,44.492,0.137,51.227,0.125,59.535v46.442c-0.008,4,1.57,7.839,4.395,10.675c2.824,2.832,6.66,4.43,10.66,4.434h6.64v15.906
			c-0.019,3.196,3.856,4.797,6.102,2.524l18.531-18.431h26.496c4-0.004,7.836-1.602,10.66-4.434
			c2.825-2.836,4.403-6.675,4.391-10.675V84.013h2.637l20.554,20.468c2.247,2.25,6.094,0.656,6.086-2.523V84.013h7.711
			c8.977-0.017,16.242-7.294,16.25-16.267V16.434c0.008-4.321-1.703-8.465-4.75-11.524C133.438,1.852,129.297,0.129,124.977,0.125
			L124.977,0.125z M80.875,105.978c-0.008,4.371-3.551,7.914-7.926,7.921H44.898c-0.945,0-1.855,0.375-2.523,1.043L28.949,128.34
			v-10.819c0-1.97-1.597-3.563-3.566-3.563H15.18c-2.114-0.004-4.133-0.848-5.621-2.344c-1.489-1.5-2.317-3.527-2.305-5.636V59.535
			c0.008-4.371,3.551-7.914,7.926-7.922h28.265v16.133c0.008,8.973,7.274,16.25,16.246,16.267h21.184V105.978z M134.113,67.746
			c0,2.422-0.965,4.746-2.675,6.461c-1.715,1.715-4.04,2.676-6.461,2.676h-11.278c-1.965,0-3.562,1.598-3.562,3.563v12.914
			L94.672,77.926c-0.668-0.668-1.578-1.043-2.524-1.043H59.691c-2.421,0-4.746-0.961-6.457-2.676
			c-1.714-1.715-2.675-4.039-2.675-6.461V16.434c0.007-5.039,4.093-9.121,9.132-9.121h65.286c5.039,0,9.128,4.082,9.136,9.121
			V67.746z M134.113,67.746"/>
	</g>
	<path fill="#D41717" d="M92.664,33.352c-5.601-12.102-25.117-5.664-20.156,10.054c2.664,7.813,8.074,11.278,20.156,19.992
		c12.082-8.714,17.492-12.179,20.156-19.992C117.777,27.688,98.266,21.25,92.664,33.352L92.664,33.352z M92.664,33.352"/>
	<path fill="#334747" d="M206.203,38.004h-5.191v8.859h5.191c1.199,0,2.004-0.308,2.422-0.933c0.414-0.621,0.621-1.395,0.621-2.317
		v-2.355c0-0.922-0.207-1.695-0.621-2.32C208.207,38.316,207.402,38.004,206.203,38.004L206.203,38.004z M198.52,75.383h-10.661
		c-0.879,0-1.511-0.194-1.902-0.59c-0.394-0.391-0.59-1.026-0.59-1.901V28.039c0-0.879,0.196-1.512,0.59-1.906
		c0.391-0.391,1.023-0.586,1.902-0.586h23.047c5.172,0,8.735,1.07,10.696,3.219c1.961,2.144,2.941,4.925,2.941,8.339v3.184
		c0,1.938-0.289,3.586-0.863,4.949c-0.578,1.36-1.582,2.34-3.012,2.942c2.492,0.277,4.512,1.293,6.055,3.047
		c1.547,1.753,2.32,4.082,2.32,6.988v14.676c0,0.875-0.195,1.511-0.59,1.901c-0.39,0.396-1.023,0.59-1.902,0.59h-10.727
		c-0.879,0-1.511-0.194-1.906-0.59c-0.391-0.391-0.586-1.026-0.586-1.901v-10.59c0-1.016-0.199-1.766-0.59-2.25
		c-0.39-0.485-1.074-0.727-2.043-0.727h-9.687v13.567c0,0.875-0.199,1.511-0.59,1.901C200.031,75.188,199.395,75.383,198.52,75.383
		L198.52,75.383z M279.227,28.039v34.262c0,2.121-0.313,4.047-0.934,5.777c-0.625,1.731-1.73,3.207-3.324,4.43
		c-1.594,1.227-3.773,2.184-6.539,2.875c-2.77,0.691-6.301,1.039-10.594,1.039c-4.289,0-7.82-0.348-10.59-1.039
		c-2.766-0.691-4.949-1.648-6.539-2.875c-1.594-1.223-2.699-2.699-3.324-4.43c-0.621-1.73-0.934-3.656-0.934-5.777V28.039
		c0-0.879,0.196-1.512,0.59-1.906c0.391-0.391,1.027-0.586,1.902-0.586h10.867c0.875,0,1.512,0.195,1.902,0.586
		c0.395,0.394,0.59,1.027,0.59,1.906v31.563c0,0.921,0.344,1.695,1.039,2.316c0.691,0.625,2.238,0.937,4.637,0.937
		c2.445,0,4.016-0.313,4.707-0.937c0.691-0.621,1.039-1.395,1.039-2.316V28.039c0-0.879,0.195-1.512,0.586-1.906
		c0.395-0.391,1.027-0.586,1.906-0.586h10.52c0.875,0,1.512,0.195,1.902,0.586C279.031,26.527,279.227,27.16,279.227,28.039
		L279.227,28.039z M330.656,38.695v23.606c0,2.121-0.313,4.047-0.938,5.777c-0.621,1.731-1.73,3.207-3.32,4.43
		c-1.594,1.227-3.785,2.184-6.578,2.875c-2.789,0.691-6.332,1.039-10.625,1.039c-4.289,0-7.844-0.348-10.656-1.039
		c-2.816-0.691-5.02-1.648-6.613-2.875c-1.59-1.223-2.699-2.699-3.32-4.43c-0.625-1.73-0.934-3.656-0.934-5.777V38.695
		c0-2.121,0.309-4.047,0.934-5.777c0.621-1.729,1.73-3.219,3.32-4.465c1.594-1.246,3.797-2.215,6.613-2.906
		c2.813-0.695,6.367-1.039,10.656-1.039c4.293,0,7.836,0.344,10.625,1.039c2.793,0.691,4.984,1.66,6.578,2.906
		c1.59,1.246,2.699,2.735,3.32,4.465C330.344,34.648,330.656,36.574,330.656,38.695L330.656,38.695z M303.383,41.188v18.621
		c0,0.921,0.348,1.695,1.039,2.32c0.691,0.621,2.285,0.934,4.773,0.934c2.492,0,4.086-0.313,4.777-0.934
		c0.691-0.625,1.039-1.399,1.039-2.32V41.188c0-0.875-0.348-1.625-1.039-2.25c-0.691-0.622-2.285-0.934-4.777-0.934
		c-2.488,0-4.082,0.312-4.773,0.934C303.73,39.563,303.383,40.313,303.383,41.188L303.383,41.188z M377.168,75.383h-35.23
		c-0.879,0-1.512-0.194-1.902-0.59c-0.395-0.391-0.59-1.026-0.59-1.901V28.039c0-0.879,0.195-1.512,0.59-1.906
		c0.391-0.391,1.023-0.586,1.902-0.586h10.727c0.879,0,1.512,0.195,1.906,0.586c0.391,0.394,0.586,1.027,0.586,1.906v34.262h9.484
		V51.086c0-0.875,0.195-1.512,0.59-1.902c0.391-0.391,1.023-0.59,1.902-0.59h10.035c0.879,0,1.512,0.199,1.902,0.59
		c0.395,0.39,0.59,1.027,0.59,1.902v21.805c0,0.875-0.195,1.511-0.59,1.901C378.68,75.188,378.047,75.383,377.168,75.383
		L377.168,75.383z M418.422,75.383h-29.488c-0.875,0-1.508-0.194-1.902-0.59c-0.391-0.391-0.586-1.026-0.586-1.901v-8.239
		c0-0.875,0.195-1.511,0.586-1.902c0.395-0.391,1.027-0.59,1.902-0.59h6.855V38.906h-6.855c-0.875,0-1.508-0.199-1.902-0.59
		c-0.391-0.39-0.586-1.027-0.586-1.902v-8.375c0-0.879,0.195-1.512,0.586-1.906c0.395-0.391,1.027-0.586,1.902-0.586h29.488
		c0.879,0,1.512,0.195,1.902,0.586c0.395,0.394,0.59,1.027,0.59,1.906v8.375c0,0.875-0.195,1.512-0.59,1.902
		c-0.391,0.391-1.023,0.59-1.902,0.59h-6.715V62.16h6.715c0.879,0,1.512,0.199,1.902,0.59c0.395,0.391,0.59,1.027,0.59,1.902v8.239
		c0,0.875-0.195,1.511-0.59,1.901C419.934,75.188,419.301,75.383,418.422,75.383L418.422,75.383z M442.301,75.383h-10.383
		c-0.875,0-1.508-0.194-1.902-0.59c-0.391-0.391-0.586-1.026-0.586-1.901V28.039c0-0.879,0.195-1.512,0.586-1.906
		c0.395-0.391,1.027-0.586,1.902-0.586h7.199c0.879,0,1.629,0.137,2.25,0.414c0.625,0.277,1.234,0.762,1.836,1.453l13.426,15.367
		V28.039c0-0.879,0.199-1.512,0.59-1.906c0.391-0.391,1.027-0.586,1.902-0.586h10.383c0.879,0,1.512,0.195,1.902,0.586
		c0.395,0.394,0.59,1.027,0.59,1.906v44.853c0,0.875-0.195,1.511-0.59,1.901c-0.391,0.396-1.023,0.59-1.902,0.59h-10.383
		c-0.875,0-1.512-0.194-1.902-0.59c-0.391-0.391-0.59-1.026-0.59-1.901v-8.517l-11.836-14.328v22.844
		c0,0.875-0.195,1.511-0.586,1.901C443.813,75.188,443.18,75.383,442.301,75.383L442.301,75.383z M442.301,75.383"/>
</g>
</svg>
