<svg id="workspace" xmlns="http://www.w3.org/2000/svg" xmlns:xlink="http://www.w3.org/1999/xlink" style="text-rendering: geometricprecision;"><desc>Created with Snap</desc><defs><linearGradient x1="0" y1="0.5" x2="1" y2="0.5" id="linearGradientSk54t44711c"><stop offset="0%" stop-color="#334747"></stop><stop offset="100%" stop-color="#334747"></stop></linearGradient><linearGradient x1="0" y1="0.5" x2="1" y2="0.5" id="linearGradientSk54t44711l"><stop offset="0%" stop-color="#d41717"></stop><stop offset="100%" stop-color="#d41717"></stop></linearGradient><linearGradient x1="0" y1="0.5" x2="1" y2="0.5" id="linearGradientSk54t44711v"><stop offset="0%" stop-color="#334747"></stop><stop offset="100%" stop-color="#334747"></stop></linearGradient><linearGradient x1="0" y1="0.5" x2="1" y2="0.5" id="linearGradientSk54t44711y"><stop offset="0%" stop-color="#d41717"></stop><stop offset="100%" stop-color="#d41717"></stop></linearGradient><linearGradient x1="0" y1="0.5" x2="1" y2="0.5" id="linearGradientSk54t447124"><stop offset="0%" stop-color="#334747"></stop><stop offset="100%" stop-color="#334747"></stop></linearGradient><linearGradient x1="0" y1="0.5" x2="1" y2="0.5" id="linearGradientSk54t447127"><stop offset="0%" stop-color="#d41717"></stop><stop offset="100%" stop-color="#d41717"></stop></linearGradient><linearGradient x1="0" y1="0.5" x2="1" y2="0.5" id="linearGradientSk54t44712d"><stop offset="0%" stop-color="#334747"></stop><stop offset="100%" stop-color="#334747"></stop></linearGradient><linearGradient x1="0" y1="0.5" x2="1" y2="0.5" id="linearGradientSk54t44712j"><stop offset="0%" stop-color="#334747"></stop><stop offset="100%" stop-color="#334747"></stop></linearGradient></defs><g class="background-part"><rect x="0" y="0" width="1851" height="1202" fill="rgba(255,255,255,0.25)" style=""></rect></g><g class="selector-part"><rect x="0" y="0" width="1851" height="1202" fill="rgba(255,255,255,0)" style="transition: all 0.6s ease 0s;"></rect></g><g class="selector-part" transform="matrix(1,0,0,1,834,535)"><rect x="0" y="0" width="0" height="0" fill="rgba(255,255,255,0)" style="cursor: move;"></rect></g><g class="svg-clip svg-visible" transform="matrix(1.9005,0,0,1.9005,583.4244,498.3746)" style="cursor: move; opacity: 1;"><rect x="0" y="0" width="109" height="108" fill="none" class="svg-hitbox" style=""></rect><svg width="109.00006141828241" height="108.53834554845157" viewBox="-4.500043515033521,-4.26,109.00006141828241,108.53834554845157"><desc>Created with Snap</desc><defs></defs><g></g><g></g><g><path d="M88.09.74H42.29a11.42,11.42,0,0,0-11.41,11.4V31.86H11.06A10.57,10.57,0,0,0,.5,42.42V75A10.57,10.57,0,0,0,11.06,85.6h4.66V96.76A2.5,2.5,0,0,0,20,98.53l13-12.93H51.59A10.57,10.57,0,0,0,62.15,75V59.59H64L78.42,73.95a2.5,2.5,0,0,0,4.27-1.77V59.59h5.41A11.42,11.42,0,0,0,99.5,48.18v-36A11.42,11.42,0,0,0,88.09.74ZM57.15,75a5.57,5.57,0,0,1-5.56,5.56H31.91a2.5,2.5,0,0,0-1.77.73l-9.42,9.4V83.1a2.5,2.5,0,0,0-2.5-2.5H11.06A5.57,5.57,0,0,1,5.5,75V42.42a5.57,5.57,0,0,1,5.56-5.56H30.89V48.18A11.42,11.42,0,0,0,42.29,59.59H57.15ZM94.5,48.18a6.41,6.41,0,0,1-6.41,6.41H80.18a2.5,2.5,0,0,0-2.5,2.5v9.06L66.83,55.32a2.5,2.5,0,0,0-1.77-.73H42.29a6.41,6.41,0,0,1-6.41-6.41v-36a6.41,6.41,0,0,1,6.41-6.4h45.8a6.41,6.41,0,0,1,6.41,6.4Z" stroke="none" fill="url('#linearGradientSk54t44712d')" style=""></path></g></svg></g><g class="svg-clip svg-visible" transform="matrix(0.6209,0,0,0.6209,685.2645,540.6795)" style="cursor: move; opacity: 1;"><rect x="0" y="0" width="99" height="88" fill="none" class="svg-hitbox" style=""></rect><svg width="99.99950951353819" height="88.03920118088783" viewBox="-4.999910643668814,-5.000201180887821,99.99950951353819,88.03920118088783"><desc>Created with Snap</desc><defs></defs><g></g><g></g><g><path d="M45.002,13.514C32.973-12.474-8.937,1.357,1.718,35.105C7.436,51.887,19.058,59.327,45,78.039    c25.945-18.712,37.563-26.154,43.283-42.934C98.933,1.357,57.028-12.474,45.002,13.514z" stroke="none" fill="url('#linearGradientSk54t447127')" style=""></path></g></svg></g><g class="svg-text svg-visible" transform="matrix(0.9229,0,0,0.9229,1031,539)" style="pointer-events: fill; cursor: move; opacity: 1;"><path fill="none" style="" d="M-213.95000000000002,80 C-20,79 20,79 213.95000000000002,80"></path><path d="M-176.95000000000002-54L-184.45000000000002-54L-184.45000000000002-41.2L-176.95000000000002-41.2Q-174.35000000000002-41.2 -173.45000000000002-42.55Q-172.55-43.9 -172.55-45.9L-172.55-45.9L-172.55-49.3Q-172.55-51.3 -173.45000000000002-52.65Q-174.35000000000002-54 -176.95000000000002-54L-176.95000000000002-54ZM-188.05 0L-188.05 0L-203.45000000000002 0Q-205.35000000000002 0 -206.20000000000002-0.85Q-207.05-1.7 -207.05-3.6L-207.05-3.6L-207.05-68.4Q-207.05-70.3 -206.20000000000002-71.15Q-205.35000000000002-72 -203.45000000000002-72L-203.45000000000002-72L-170.15000000000003-72Q-158.95000000000002-72 -154.70000000000002-67.35Q-150.45000000000002-62.7 -150.45000000000002-55.3L-150.45000000000002-55.3L-150.45000000000002-50.7Q-150.45000000000002-46.5 -151.70000000000002-43.55Q-152.95000000000002-40.6 -156.05-39.3L-156.05-39.3Q-150.65000000000003-38.7 -147.3-34.9Q-143.95000000000002-31.1 -143.95000000000002-24.8L-143.95000000000002-24.8L-143.95000000000002-3.6Q-143.95000000000002-1.7 -144.8-0.85Q-145.65000000000003 0 -147.55 0L-147.55 0L-163.05 0Q-164.95000000000002 0 -165.8-0.85Q-166.65000000000003-1.7 -166.65000000000003-3.6L-166.65000000000003-3.6L-166.65000000000003-18.9Q-166.65000000000003-21.1 -167.5-22.15Q-168.35000000000002-23.2 -170.45000000000002-23.2L-170.45000000000002-23.2L-184.45000000000002-23.2L-184.45000000000002-3.6Q-184.45000000000002-1.7 -185.3-0.85Q-186.15 0 -188.05 0ZM-71.45-68.4L-71.45-18.9Q-71.45-14.3 -72.80000000000001-10.55Q-74.15-6.8 -77.60000000000001-4.15Q-81.05000000000001-1.5 -87.05000000000001 0Q-93.05000000000001 1.5 -102.35000000000001 1.5L-102.35000000000001 1.5Q-111.65 1.5 -117.65 0Q-123.65-1.5 -127.10000000000001-4.15Q-130.55-6.8 -131.9-10.55Q-133.25-14.3 -133.25-18.9L-133.25-18.9L-133.25-68.4Q-133.25-70.3 -132.4-71.15Q-131.55-72 -129.65-72L-129.65-72L-113.95-72Q-112.05000000000001-72 -111.2-71.15Q-110.35000000000001-70.3 -110.35000000000001-68.4L-110.35000000000001-68.4L-110.35000000000001-22.8Q-110.35000000000001-20.8 -108.85000000000001-19.45Q-107.35000000000001-18.1 -102.15-18.1L-102.15-18.1Q-96.85000000000001-18.1 -95.35000000000001-19.45Q-93.85000000000001-20.8 -93.85000000000001-22.8L-93.85000000000001-22.8L-93.85000000000001-68.4Q-93.85000000000001-70.3 -93-71.15Q-92.15-72 -90.25-72L-90.25-72L-75.05000000000001-72Q-73.15-72 -72.30000000000001-71.15Q-71.45-70.3 -71.45-68.4L-71.45-68.4ZM 2.8500000000000085-53L 2.8500000000000085-18.9Q 2.8500000000000085-14.3  1.5-10.55Q 0.15000000000000568-6.8 -3.299999999999997-4.15Q-6.75-1.5 -12.799999999999997 0Q-18.849999999999994 1.5 -28.15 1.5L-28.15 1.5Q-37.449999999999996 1.5 -43.55 0Q-49.65-1.5 -53.099999999999994-4.15Q-56.55-6.8 -57.9-10.55Q-59.25-14.3 -59.25-18.9L-59.25-18.9L-59.25-53Q-59.25-57.6 -57.9-61.35Q-56.55-65.1 -53.099999999999994-67.8Q-49.65-70.5 -43.55-72Q-37.449999999999996-73.5 -28.15-73.5L-28.15-73.5Q-18.849999999999994-73.5 -12.799999999999997-72Q-6.75-70.5 -3.299999999999997-67.8Q 0.15000000000000568-65.1  1.5-61.35Q 2.8500000000000085-57.6  2.8500000000000085-53L 2.8500000000000085-53ZM-36.55-49.4L-36.55-22.5Q-36.55-20.5 -35.05-19.15Q-33.55-17.8 -28.15-17.8L-28.15-17.8Q-22.75-17.8 -21.25-19.15Q-19.75-20.5 -19.75-22.5L-19.75-22.5L-19.75-49.4Q-19.75-51.3 -21.25-52.65Q-22.75-54 -28.15-54L-28.15-54Q-33.55-54 -35.05-52.65Q-36.55-51.3 -36.55-49.4L-36.55-49.4ZM 70.05000000000001 0L 70.05000000000001 0L 19.15000000000002 0Q 17.25000000000002 0  16.40000000000002-0.85Q 15.55000000000002-1.7  15.55000000000002-3.6L 15.55000000000002-3.6L 15.55000000000002-68.4Q 15.55000000000002-70.3  16.40000000000002-71.15Q 17.25000000000002-72  19.15000000000002-72L 19.15000000000002-72L 34.65000000000002-72Q 36.55000000000002-72  37.40000000000002-71.15Q 38.25000000000002-70.3  38.25000000000002-68.4L 38.25000000000002-68.4L 38.25000000000002-18.9L 51.95000000000002-18.9L 51.95000000000002-35.1Q 51.95000000000002-37  52.80000000000002-37.85Q 53.65000000000002-38.7  55.55000000000002-38.7L 55.55000000000002-38.7L 70.05000000000001-38.7Q 71.95000000000002-38.7  72.80000000000003-37.85Q 73.65000000000002-37  73.65000000000002-35.1L 73.65000000000002-35.1L 73.65000000000002-3.6Q 73.65000000000002-1.7  72.80000000000003-0.85Q 71.95000000000002 0  70.05000000000001 0ZM 129.65 0L 87.05000000000001 0Q 85.15 0  84.30000000000001-0.85Q 83.45-1.7  83.45-3.6L 83.45-3.6L 83.45-15.5Q 83.45-17.4  84.30000000000001-18.25Q 85.15-19.1  87.05000000000001-19.1L 87.05000000000001-19.1L 96.95-19.1L 96.95-52.7L 87.05000000000001-52.7Q 85.15-52.7  84.30000000000001-53.55Q 83.45-54.4  83.45-56.3L 83.45-56.3L 83.45-68.4Q 83.45-70.3  84.30000000000001-71.15Q 85.15-72  87.05000000000001-72L 87.05000000000001-72L 129.65-72Q 131.55-72  132.4-71.15Q 133.25-70.3  133.25-68.4L 133.25-68.4L 133.25-56.3Q 133.25-54.4  132.4-53.55Q 131.55-52.7  129.65-52.7L 129.65-52.7L 119.95-52.7L 119.95-19.1L 129.65-19.1Q 131.55-19.1  132.4-18.25Q 133.25-17.4  133.25-15.5L 133.25-15.5L 133.25-3.6Q 133.25-1.7  132.4-0.85Q 131.55 0  129.65 0L 129.65 0ZM 164.14999999999998 0L 164.14999999999998 0L 149.14999999999998 0Q 147.24999999999997 0  146.39999999999998-0.85Q 145.54999999999998-1.7  145.54999999999998-3.6L 145.54999999999998-3.6L 145.54999999999998-68.4Q 145.54999999999998-70.3  146.39999999999998-71.15Q 147.24999999999997-72  149.14999999999998-72L 149.14999999999998-72L 159.54999999999998-72Q 161.45-72  162.79999999999998-71.4Q 164.14999999999998-70.8  165.45-69.3L 165.45-69.3L 184.84999999999997-47.1L 184.84999999999997-68.4Q 184.84999999999997-70.3  185.7-71.15Q 186.54999999999998-72  188.45-72L 188.45-72L 203.45-72Q 205.34999999999997-72  206.2-71.15Q 207.04999999999998-70.3  207.04999999999998-68.4L 207.04999999999998-68.4L 207.04999999999998-3.6Q 207.04999999999998-1.7  206.2-0.85Q 205.34999999999997 0  203.45 0L 203.45 0L 188.45 0Q 186.54999999999998 0  185.7-0.85Q 184.84999999999997-1.7  184.84999999999997-3.6L 184.84999999999997-3.6L 184.84999999999997-15.9L 167.74999999999997-36.6L 167.74999999999997-3.6Q 167.74999999999997-1.7  166.89999999999998-0.85Q 166.04999999999998 0  164.14999999999998 0Z" data-textpath="ruolin" data-text-anchor="middle" data-font-size="100" data-letterspacing="0" data-side="left" data-offset="0" data-dx="0" data-dy="75" data-href="" data-font="Bungee" data-font-src="/Content/clientfonts/bungee.woff" data-font-scale="contain" transform="translate(0,75)" data-xmlspace="preserve" fill="url('#linearGradientSk54t44712j')"></path><rect x="0" y="0" width="0" height="0"></rect></g><g><rect x="0" y="0" width="0" height="0" fill="rgba(255,136,0,0.1)" stroke="#ff8800" style="stroke-width: 1;"></rect></g><g class="selector-part"><rect x="0" y="0" width="0" height="0" fill="rgba(168,202,236,0.5)" stroke="#3399ff" style="stroke-width: 1;"></rect></g><g class="selector-part" transform="matrix(1,0,0,1,834,535)"><rect x="0" y="0" width="0" height="0" fill="none" stroke="#2390bb" style="stroke-width: 2;"></rect><g transform="matrix(0.5,0,0,0.5,0,0)"><svg version="1.1" id="Calque_1" xmlns="http://www.w3.org/2000/svg" xmlns:xlink="http://www.w3.org/1999/xlink" x="0" y="-71px" width="28.94px" height="30px" viewBox="0 -15 28.94 30" enable-background="new 0 -15 28.94 30" xml:space="preserve" style="cursor: pointer;">
<g>
	<path fill="rgba(0,0,0,0)" d="M23.355-9.979c-0.352-0.263-0.712-0.511-1.084-0.739L20.34-7.486c0.317,0.195,0.629,0.414,0.929,0.646
		L23.355-9.979z" style=""></path>
	<path fill="rgba(0,0,0,0)" d="M28.894,0.081L25.092-0.13c0.292,2.317-0.217,4.718-1.539,6.756l-0.037-0.021
		c-0.376,0.583-0.821,1.137-1.335,1.648c-3.808,3.809-9.902,3.942-13.871,0.396C8.282,8.623,8.255,8.602,8.227,8.576
		C8.143,8.498,8.059,8.421,7.976,8.339c-0.052-0.051-0.104-0.1-0.153-0.152C7.8,8.163,7.776,8.14,7.753,8.115
		c-0.084-0.091-0.167-0.18-0.25-0.271v0.002C4.312,4.293,4.087-0.98,6.821-4.782l4.123,4.124l3.401-14.306L0.037-11.566l4.102,4.098
		C-0.064-2.14,0.193,5.554,4.917,10.587l0,0c0.012,0.016,0.023,0.025,0.033,0.037c0.091,0.098,0.181,0.199,0.278,0.293
		c0.021,0.023,0.047,0.043,0.07,0.068c0.075,0.074,0.148,0.146,0.225,0.22c0.051,0.045,0.099,0.086,0.15,0.133
		c0.053,0.047,0.104,0.094,0.156,0.14c0.144,0.13,0.291,0.257,0.439,0.375c0.01,0.012,0.018,0.016,0.027,0.023
		c5.574,4.563,13.804,4.115,18.842-1.194C27.94,7.722,29.185,3.851,28.894,0.081z" style=""></path>
	<path fill="rgba(0,0,0,0)" d="M24.122-3.353l3.544-1.319c-0.426-0.932-0.962-1.826-1.611-2.662L22.88-5.276
		C23.373-4.675,23.79-4.027,24.122-3.353z" style=""></path>
</g>
<desc>Created with Snap</desc><defs></defs><circle cx="14.5" cy="0" r="15" style="" fill="rgba(0,0,0,0)"></circle></svg></g><rect x="0" y="-21" width="0" height="21" fill="rgba(255,255,255,0)" stroke="#2390bb" style="stroke-width: 1; cursor: pointer;"></rect><circle cx="394" cy="102" r="0" fill="#ffffff" stroke="#2390bb" style="stroke-width: 2; cursor: se-resize;"></circle><circle cx="0" cy="102" r="0" fill="#ffffff" stroke="#2390bb" style="stroke-width: 2; cursor: sw-resize;"></circle><circle cx="394" cy="0" r="0" fill="#ffffff" stroke="#2390bb" style="stroke-width: 2; cursor: ne-resize;"></circle><circle cx="0" cy="0" r="0" fill="#ffffff" stroke="#2390bb" style="stroke-width: 2; cursor: nw-resize;"></circle><circle cx="197" cy="102" r="0" fill="#ffffff" stroke="#2390bb" style="stroke-width: 2; cursor: s-resize;"></circle><circle cx="197" cy="0" r="0" fill="#ffffff" stroke="#2390bb" style="stroke-width: 2; cursor: n-resize;"></circle><circle cx="0" cy="51" r="0" fill="#ffffff" stroke="#2390bb" style="stroke-width: 2; cursor: w-resize;"></circle><circle cx="394" cy="51" r="0" fill="#ffffff" stroke="#2390bb" style="stroke-width: 2; cursor: e-resize;"></circle><path stroke="#ff0000" fill="none" style="stroke-width: 3;"></path><line x1="0" x2="0" y1="0" y2="0" fill="rgba(255,255,255,0)" stroke="#2390bb" style="stroke-width: 1;"></line><line x1="0" x2="0" y1="0" y2="0" fill="rgba(255,255,255,0)" stroke="#2390bb" style="stroke-width: 1;"></line><circle cx="0" cy="0" r="0" fill="#ff0000" stroke="#2390bb" style="stroke-width: 2; cursor: pointer;"></circle><circle cx="0" cy="0" r="0" fill="#ffa500" stroke="#2390bb" style="stroke-width: 2; cursor: pointer;"></circle><circle cx="0" cy="0" r="0" fill="#ffa500" stroke="#2390bb" style="stroke-width: 2; cursor: pointer;"></circle><circle cx="0" cy="0" r="0" fill="#ff0000" stroke="#2390bb" style="stroke-width: 2; cursor: pointer;"></circle><g style="cursor: pointer; visibility: hidden; opacity: 0;" transform="matrix(1,0,0,1,-50,-15)"><rect x="0" y="0" width="30" height="30" fill="#2390bb" rx="5" ry="5" style=""></rect><rect x="6" y="6" width="18" height="4" style="" fill="#ffffff"></rect><rect x="6" y="13" width="18" height="4" fill="#ffffff" style=""></rect><rect x="6" y="20" width="18" height="4" fill="#ffffff" style=""></rect></g></g></svg>