<?xml version="1.0" encoding="utf-8"?>
<!-- Generator: Adobe Illustrator 16.0.0, SVG Export Plug-In . SVG Version: 6.00 Build 0)  -->
<!DOCTYPE svg PUBLIC "-//W3C//DTD SVG 1.1//EN" "http://www.w3.org/Graphics/SVG/1.1/DTD/svg11.dtd">
<svg version="1.1" id="Layer_1" xmlns="http://www.w3.org/2000/svg" xmlns:xlink="http://www.w3.org/1999/xlink" x="0px" y="0px"
	 width="603px" height="180px" viewBox="0 0 603 180" enable-background="new 0 0 603 180" xml:space="preserve">
<g>
	<g>
		<path fill="#404040" d="M290.692,25.5c0.944,0,1.5,0.779,1.667,2.334v3.585h21.43c1.277,0.112,1.917,0.557,1.917,1.334
			c0,0.834-0.528,1.251-1.583,1.251h-44.694c-1.057,0-1.584-0.417-1.584-1.251c0-0.777,0.75-1.222,2.251-1.334h19.095v-3.585
			C289.191,26.389,289.691,25.611,290.692,25.5z M305.201,36.506c0.277,0,0.416,0.417,0.416,1.251c0,4.114-1.224,8.394-3.669,12.841
			c-1.724,3.836-4.392,7.644-8.004,11.424c3.39,4.058,6.614,8.45,9.672,13.174c5.447,8.395,8.505,17.872,9.173,28.434
			c0,0.5-0.112,0.751-0.334,0.751c-0.167-0.057-0.307-0.308-0.417-0.751c-2.113-9.285-5.282-17.344-9.506-24.182
			c-3.836-5.391-7.644-10.256-11.424-14.592l-0.083,0.083c-5.226,5.336-9.506,11.09-12.841,17.26
			c-4.002,7.561-6.643,14.452-7.921,20.68c-0.279,1.11-0.556,1.667-0.834,1.667c-0.445,0-0.667-0.474-0.667-1.417
			c1-7.672,2.918-14.453,5.753-20.346c3.057-6.837,7.143-13.063,12.257-18.678c0.722-0.667,1.418-1.334,2.085-2.001
			c-0.557-0.555-1.057-1.084-1.501-1.584c-6.337-6.17-10.368-13.813-12.091-22.931c0-0.444,0.083-0.667,0.25-0.667
			c0.167,0,0.361,0.223,0.583,0.667c2.668,7.004,6.587,12.953,11.757,17.844c1.334,1.279,2.557,2.558,3.669,3.835
			c2.89-3.057,5.281-6.031,7.171-8.922c3.002-4.336,4.892-8.533,5.671-12.591C304.367,36.923,304.644,36.506,305.201,36.506z"/>
		<path fill="#404040" d="M375.576,25.833c1.001,0,1.556,0.862,1.668,2.584v1.834c6.004,0.112,11.95,0.779,17.844,2.001
			c0.777-1.167,1.835-2.195,3.168-3.085c0.334,0,0.501,0.056,0.501,0.167c0,0.112-0.14,0.333-0.417,0.667
			c-0.779,2.391-1.167,4.531-1.167,6.42c0,1.057,0.11,2.308,0.333,3.752c0.222,1.446,0.527,2.947,0.917,4.503
			c0,0.223-0.056,0.417-0.167,0.583c-0.333,0-0.612-0.138-0.833-0.417c-0.946-0.834-1.779-2.139-2.501-3.919
			c-0.613-1.723-0.918-3.363-0.918-4.919c0-0.5,0.027-0.917,0.084-1.251c-6.283-1.278-12.647-1.918-19.096-1.918
			c-6.06,0-12.036,0.696-17.928,2.084c0.111,0.557,0.167,1.057,0.167,1.501c0,3.335-1.14,6.283-3.418,8.839
			c-0.445,0.556-0.835,0.834-1.168,0.834c-0.39,0-0.583-0.278-0.583-0.834c1.11-3.78,1.722-6.587,1.834-8.422
			c0-2.001-0.333-4.141-1-6.42c0-0.555,0.166-0.834,0.5-0.834c0.388,0,0.693,0.279,0.917,0.834c0.722,0.667,1.306,1.334,1.751,2.001
			c6.004-1.389,11.979-2.139,17.928-2.251v-1.751C373.992,26.862,374.52,26,375.576,25.833z M355.647,99.044h42.108
			c1.389,0.11,2.085,0.527,2.085,1.25c0,0.89-0.584,1.334-1.751,1.334H354.98c-1.057,0-1.584-0.444-1.584-1.334
			C353.396,99.571,354.146,99.154,355.647,99.044z M362.485,39.758h26.516c1.222,0.056,1.834,0.446,1.834,1.167
			c0,0.89-0.5,1.334-1.5,1.334h-27.434c-1.001,0-1.501-0.444-1.501-1.334C360.4,40.204,361.095,39.814,362.485,39.758z
			 M375.242,47.93c4.28,0,8.506,0.333,12.675,1c0.333-1.278,0.751-1.918,1.251-1.918c1.11,0,1.722,2.141,1.834,6.42v14.759
			c0,16.622-4.948,24.931-14.842,24.931c-10.34,0-15.51-8.31-15.51-24.931v-16.26c0-3.335,0.611-5.003,1.835-5.003
			c0.388,0,0.721,0.557,1,1.668C367.432,48.152,371.352,47.93,375.242,47.93z M363.818,51.265c0.056,0.279,0.084,0.5,0.084,0.667
			v6.838h23.682v-5.337c0-0.778,0.026-1.445,0.083-2.001c-4.115-0.555-8.284-0.834-12.508-0.834
			C371.323,50.598,367.543,50.82,363.818,51.265z M363.902,61.271v6.754c0,14.621,4.029,21.93,12.091,21.93
			c7.726,0,11.591-7.309,11.591-21.93v-6.754H363.902z"/>
		<path fill="#404040" d="M459.377,30.419v-1.667c0-1.612,0.555-2.502,1.667-2.668c1.001,0,1.612,0.89,1.835,2.668v1.667
			c6.003,0.112,11.951,0.612,17.844,1.501c0.334-0.945,0.861-1.751,1.584-2.418c0.277-0.444,0.584-0.667,0.917-0.667
			c0.39,0,0.584,0.223,0.584,0.667c-0.556,1.668-0.834,3.475-0.834,5.42c0,3.335,0.584,6.587,1.751,9.756
			c0,0.556-0.111,0.833-0.333,0.833c-0.334,0-0.667-0.221-1.001-0.667c-2.279-2.501-3.418-5.697-3.418-9.589
			c0-0.222,0.026-0.417,0.083-0.584c-6.449-1-12.953-1.501-19.512-1.501c-6.394,0-12.73,0.557-19.012,1.668v0.417
			c0,3.892-1.307,7.087-3.918,9.589c-0.335,0.446-0.641,0.667-0.918,0.667c-0.223,0-0.333-0.277-0.333-0.833
			c1.444-3.169,2.168-6.421,2.168-9.756c0-1.945-0.112-3.779-0.334-5.503c0-0.444,0.193-0.667,0.584-0.667
			c0.333,0,0.638,0.223,0.917,0.667c0.667,0.612,1.139,1.529,1.417,2.751C447.174,31.059,453.261,30.475,459.377,30.419z
			 M446.952,36.506c0.278,0,0.528,0.195,0.751,0.584c0.277,0.556,0.527,1.167,0.75,1.834c4.058-0.722,8.115-1.084,12.174-1.084
			c4.336,0,8.644,0.306,12.925,0.917c0.11-0.611,0.222-1.139,0.334-1.584c0.11-0.5,0.305-0.75,0.583-0.75
			c0.222,0.167,0.334,0.417,0.334,0.75c-0.112,5.003-0.167,12.12-0.167,21.346c0,15.455,1.472,28.907,4.419,40.358h4.503
			c1.445,0.111,2.169,0.583,2.169,1.417c0,0.89-0.613,1.334-1.835,1.334h-45.444c-1.224,0-1.834-0.444-1.834-1.334
			c0-0.834,0.834-1.306,2.501-1.417h2.752c3.336-10.34,5.058-22.902,5.169-37.689V49.764c0-5.614-0.139-9.839-0.416-12.674
			C446.619,36.701,446.729,36.506,446.952,36.506z M471.217,58.853h-20.929v2.335c-0.39,16.01-2.781,28.573-7.171,37.689h34.438
			C473.439,88.816,471.327,75.475,471.217,58.853z M472.969,41.342c-4.115-0.555-8.284-0.834-12.509-0.834
			c-3.725,0-7.449,0.306-11.173,0.917c0.5,2.057,0.805,4.309,0.918,6.754h21.763C472.245,45.624,472.578,43.343,472.969,41.342z
			 M471.717,50.681h-21.429v5.753h21.013C471.411,54.378,471.551,52.461,471.717,50.681z"/>
		<path fill="#404040" d="M523.915,50.098h20.263c0.055-1.222,0.111-2.279,0.167-3.169c0.277-0.944,0.583-1.417,0.917-1.417
			c0.222,0,0.444,0.417,0.667,1.251c0.111,1.057,0.222,2.168,0.333,3.335h21.097c1.278,0.112,1.918,0.529,1.918,1.25
			c0,0.946-0.529,1.417-1.585,1.417H546.43c0.055,0.446,0.083,0.863,0.083,1.251c0.277,0.112,0.5,0.223,0.667,0.333
			c3.669,1.334,6.559,3.502,8.672,6.504c1.889,2.558,3.669,6.42,5.337,11.59c0.888,6.226,2.001,11.285,3.335,15.176
			c2.502,6.559,5.864,11.618,10.09,15.176c0,0.444-0.168,0.667-0.501,0.667c-0.833,0-1.334-0.278-1.501-0.834
			c-3.781-2.335-7.144-6.282-10.089-11.84c-2.169-3.891-3.809-10.006-4.92-18.345c-0.779-4.891-2.251-8.894-4.419-12.007
			c-1.835-2.501-4.031-4.363-6.588-5.587c0.277,5.67,0.417,12.397,0.417,20.179c0,15.73-0.278,24.652-0.834,26.766
			c-0.167,1.168-0.417,1.752-0.75,1.752c-0.224-0.112-0.446-0.751-0.668-1.919c-0.723-3.446-1.084-12.312-1.084-26.599
			c0.055-8.283,0.167-14.953,0.334-20.012c-2.613,1.167-4.726,3.002-6.337,5.503c-1.946,2.891-3.281,6.643-4.002,11.257
			c-0.891,8.284-2.308,14.398-4.253,18.344c-2.669,5.558-5.671,9.505-9.005,11.84c-0.168,0.667-0.668,1.001-1.502,1.001
			c-0.333,0-0.5-0.25-0.5-0.75c3.724-3.56,6.671-8.645,8.839-15.26c1.167-3.891,2.112-8.95,2.835-15.176
			c1.445-4.836,3.057-8.449,4.836-10.84c1.835-2.779,4.336-4.808,7.505-6.087c0.667-0.388,1.194-0.611,1.584-0.667
			c0.055-0.5,0.083-0.972,0.083-1.417h-20.929c-1.113,0-1.667-0.472-1.667-1.417C521.498,50.626,522.303,50.209,523.915,50.098z
			 M545.262,24.249c0.834,0,1.306,0.723,1.418,2.168v0.834c6.225,0.056,12.312,0.583,18.261,1.584
			c0.722-0.833,1.639-1.611,2.751-2.334c0.223,0,0.334,0.056,0.334,0.167c0,0.112-0.084,0.333-0.25,0.667
			c-0.557,1.891-0.834,3.586-0.834,5.086c0,0.446,0.084,1.001,0.25,1.668c0.277,0.667,0.611,1.39,1.001,2.168
			c0,0.167-0.057,0.306-0.167,0.417c-0.279,0-0.529-0.083-0.75-0.25c-1.057-0.444-1.947-1.139-2.669-2.084
			c-0.556-0.834-0.834-1.639-0.834-2.418c0-0.278,0.028-0.472,0.084-0.584c-6.171-0.944-12.397-1.417-18.679-1.417
			c-5.836,0-11.59,0.39-17.26,1.167c-0.112,2.391-0.945,4.419-2.502,6.087c-0.445,0.557-0.807,0.834-1.084,0.834
			c-0.333,0-0.5-0.277-0.5-0.834c0.444-2.668,0.694-4.641,0.75-5.92c0-1.389-0.278-2.863-0.834-4.419
			c0-0.555,0.167-0.834,0.501-0.834c0.388,0,0.694,0.279,0.917,0.834c0.889,0.612,1.528,1.167,1.918,1.667
			c5.504-0.778,11.034-1.195,16.593-1.25v-0.834C543.677,25.083,544.205,24.36,545.262,24.249z M541.343,30.085
			c0.834,0,1.251,0.779,1.251,2.334c-0.112,0.612-0.279,1.113-0.5,1.501h19.262c1.277,0.112,1.917,0.557,1.917,1.334
			c0,0.779-0.556,1.167-1.667,1.167h-3.753c-0.279,0.39-0.724,0.834-1.334,1.334c-1.946,1.39-3.976,2.613-6.087,3.669
			c4.279,1.167,8.532,2.53,12.758,4.085c0.611,0.223,0.917,0.667,0.917,1.334c0,0.833-0.529,1.25-1.584,1.25
			c-5.337-1.889-10.507-3.557-15.51-5.003c-5.727,2.558-12.063,4.392-19.011,5.503c-0.779,0-1.168-0.194-1.168-0.584
			c0-0.555,0.472-1,1.418-1.334c4.612-1.111,9.422-2.668,14.425-4.669c-2.335-0.611-4.614-1.139-6.837-1.584
			c-0.946-0.111-1.418-0.417-1.418-0.917c0-0.222,0.222-0.5,0.667-0.834c0.556-0.555,1.167-1.111,1.834-1.667
			c0.278-0.222,0.501-0.417,0.667-0.584h-7.921c-1.001,0-1.501-0.388-1.501-1.167c0-0.778,0.694-1.222,2.084-1.334h9.34
			c0.5-0.833,0.806-1.667,0.917-2.501C540.676,30.531,540.953,30.085,541.343,30.085z M554.518,36.422h-14.092
			c-0.5,0.612-1.057,1.113-1.668,1.501c0,0.39,0.139,0.64,0.417,0.75c2.445,0.5,4.863,1.057,7.255,1.668
			C549.098,39.174,551.793,37.869,554.518,36.422z"/>
	</g>
	<g>
		<path fill="#404040" d="M268.59,146.917h3.236c0.683,0,1.238,0.235,1.666,0.705c0.47,0.47,0.705,1.036,0.705,1.698v8.619
			c0,0.149,0.032,0.267,0.096,0.352c0.021,0.065,0.096,0.161,0.225,0.289c0.064,0.043,0.123,0.075,0.176,0.097
			c0.053,0.021,0.112,0.031,0.176,0.031c0.106,0.044,0.224,0.044,0.352,0l2.884-0.864l0.449,1.537l-2.884,0.834
			c-0.32,0.106-0.684,0.128-1.089,0.063c-0.406-0.063-0.748-0.214-1.025-0.448c-0.32-0.235-0.556-0.513-0.705-0.833
			c-0.171-0.342-0.256-0.694-0.256-1.058v-8.619c0-0.235-0.075-0.427-0.225-0.577c-0.149-0.149-0.332-0.225-0.544-0.225h-3.236
			V146.917z M274.934,145.476l-5.287-2.66l0.737-1.409l5.287,2.659L274.934,145.476z M299.99,160.535l-10.285-3.301l-10.285,3.301
			l-0.513-1.507l8.299-2.659l-6.44-2.019c-0.214-0.064-0.4-0.16-0.561-0.289c-0.16-0.127-0.293-0.276-0.4-0.447
			c-0.214-0.386-0.288-0.78-0.224-1.187c0.085-0.448,0.288-0.811,0.609-1.089c0.341-0.277,0.726-0.416,1.153-0.416h16.726
			c0.427,0,0.812,0.139,1.153,0.416c0.321,0.32,0.513,0.684,0.577,1.089c0.085,0.406,0.011,0.801-0.224,1.187
			c-0.214,0.363-0.523,0.608-0.929,0.736l-6.44,2.019l8.299,2.659L299.99,160.535z M279.9,150.089v-5.991
			c0-0.705,0.235-1.271,0.705-1.699c0.427-0.469,0.982-0.704,1.666-0.704h13.618c0.705,0,1.271,0.235,1.698,0.704
			c0.469,0.429,0.705,0.994,0.705,1.699v3.524c0,0.213,0.085,0.405,0.256,0.576c0.149,0.149,0.331,0.225,0.545,0.225h1.538v1.602
			h-1.538c-0.32,0-0.625-0.063-0.913-0.192c-0.289-0.127-0.55-0.298-0.785-0.512c-0.214-0.235-0.384-0.491-0.513-0.769
			c-0.128-0.278-0.192-0.588-0.192-0.93v-3.524c0-0.257-0.074-0.449-0.224-0.577c-0.128-0.148-0.32-0.224-0.576-0.224h-13.588
			c-0.235,0-0.416,0.075-0.544,0.224c-0.171,0.128-0.256,0.32-0.256,0.577v5.991H279.9z M289.719,155.536l8.413-2.691
			c0.021,0,0.053-0.021,0.096-0.063v-0.097c0-0.021-0.005-0.032-0.016-0.032s-0.016-0.01-0.016-0.032v-0.031
			c-0.043-0.043-0.085-0.064-0.128-0.064H281.37c-0.043,0-0.085,0.021-0.128,0.064c-0.021,0-0.032,0.031-0.032,0.096v0.097
			c0.042,0.042,0.075,0.063,0.096,0.063L289.719,155.536z"/>
		<path fill="#404040" d="M300.631,147.045h4.838c0.683,0,1.238,0.235,1.666,0.705c0.47,0.47,0.705,1.036,0.705,1.698v8.491
			c0,0.149,0.032,0.267,0.097,0.352c0.021,0.065,0.095,0.161,0.224,0.289c0.063,0.043,0.122,0.075,0.177,0.097
			c0.052,0.021,0.111,0.031,0.176,0.031c0.106,0.044,0.225,0.044,0.353,0l5.735-2.563l0.641,1.442l-5.928,2.628
			c-0.32,0.106-0.684,0.128-1.09,0.063c-0.405-0.063-0.747-0.214-1.025-0.448c-0.32-0.235-0.556-0.513-0.704-0.833
			c-0.172-0.342-0.256-0.694-0.256-1.058v-8.491c0-0.234-0.075-0.427-0.225-0.576c-0.15-0.149-0.331-0.225-0.545-0.225h-4.838
			V147.045z M308.706,145.892l-6.729-2.98l0.641-1.473l6.729,2.979L308.706,145.892z M323.092,141.534v6.185h9.581v1.602h-9.581
			v11.215h-1.602V149.32h-9.549v-1.602h9.549v-6.185H323.092z"/>
		<path fill="#404040" d="M363.016,159.958h-28.901v-1.602h13.649v-14.323h-12.336v-1.602h26.307v1.602h-12.369v14.323h13.65
			V159.958z"/>
		<path fill="#404040" d="M374.103,142.591l-3.333,3.204v14.74h-1.602v-13.201l-3.269,3.14l-1.122-1.153l8.235-7.882
			L374.103,142.591z M379.518,142.207l-0.994,1.891h18.136v1.602H384.58v3.909h11.182v1.602H384.58v3.686h11.182v1.603H384.58v4.037
			h-1.603v-14.836h-5.255l-3.204,6.216l-1.441-0.705l5.029-9.708L379.518,142.207z"/>
		<path fill="#404040" d="M427.258,156.433h-13.745v2.468h14.386v1.602h-30.375V158.9h14.387v-2.468h-13.745v-1.602h13.745v-1.603
			h-10.253c-0.172,0-0.326-0.021-0.465-0.063c-0.14-0.042-0.283-0.097-0.432-0.16h0.031c-0.3-0.149-0.523-0.374-0.673-0.673
			c-0.064-0.149-0.117-0.293-0.16-0.433c-0.043-0.139-0.064-0.293-0.064-0.465c0-0.299,0.086-0.598,0.257-0.896l1.538-2.403h-3.396
			v-1.603h28.837v1.603h-23.55l-2.052,3.268c-0.021,0.021-0.031,0.043-0.031,0.064c0,0.043,0.01,0.075,0.031,0.097l0.065,0.031
			c0,0.022,0.021,0.032,0.063,0.032h22.204c0-0.021,0.006-0.032,0.017-0.032s0.016-0.01,0.016-0.031
			c0.021-0.021,0.032-0.054,0.032-0.097v-0.064l-1.057-2.114l1.409-0.705l1.058,2.083c0.128,0.299,0.191,0.587,0.191,0.865
			c0,0.3-0.085,0.588-0.256,0.865s-0.385,0.48-0.641,0.608c-0.235,0.149-0.524,0.224-0.865,0.224h-10.253v1.603h13.745V156.433z
			 M413.513,141.406v1.058h11.567c0.704,0,1.27,0.234,1.697,0.704c0.47,0.471,0.705,1.037,0.705,1.698v1.09h-1.602v-1.09
			c0-0.235-0.076-0.427-0.225-0.576c-0.15-0.149-0.342-0.225-0.576-0.225h-24.736c-0.192,0-0.385,0.075-0.577,0.225
			c-0.149,0.191-0.224,0.384-0.224,0.576v1.09h-1.603v-1.09c0-0.661,0.235-1.228,0.705-1.698c0.427-0.47,0.993-0.704,1.698-0.704
			h11.566v-1.058H413.513z"/>
	</g>
	<linearGradient id="SVGID_1_" gradientUnits="userSpaceOnUse" x1="45.9595" y1="63.271" x2="134.7794" y2="35.4685">
		<stop  offset="0" style="stop-color:#22C9F0"/>
		<stop  offset="1" style="stop-color:#00ACE9"/>
	</linearGradient>
	<polygon fill="url(#SVGID_1_)" points="44.47,76.17 137.41,54.37 137.54,14.91 44.47,44.01 	"/>
	<linearGradient id="SVGID_2_" gradientUnits="userSpaceOnUse" x1="46.4351" y1="103.9512" x2="138.0139" y2="87.5334">
		<stop  offset="0" style="stop-color:#22C9F0"/>
		<stop  offset="1" style="stop-color:#00ACE9"/>
	</linearGradient>
	<polygon fill="url(#SVGID_2_)" points="44.47,86.08 137.51,67.9 137.43,107.36 44.47,118.09 	"/>
	<linearGradient id="SVGID_3_" gradientUnits="userSpaceOnUse" x1="44.7607" y1="144.916" x2="137.5878" y2="138.7708">
		<stop  offset="0" style="stop-color:#22C9F0"/>
		<stop  offset="1" style="stop-color:#00ACE9"/>
	</linearGradient>
	<polygon fill="url(#SVGID_3_)" points="44.47,128.16 137.5,120.931 137.39,156.63 44.47,160.12 	"/>
	<linearGradient id="SVGID_4_" gradientUnits="userSpaceOnUse" x1="138.0903" y1="34.9033" x2="191.9629" y2="57.9343">
		<stop  offset="0" style="stop-color:#22C9F0"/>
		<stop  offset="1" style="stop-color:#00ACE9"/>
	</linearGradient>
	<polygon fill="url(#SVGID_4_)" points="137.54,14.91 193.47,44.42 193.538,77.28 137.41,54.37 	"/>
	<linearGradient id="SVGID_5_" gradientUnits="userSpaceOnUse" x1="138.4209" y1="87.8535" x2="193.0354" y2="100.68">
		<stop  offset="0" style="stop-color:#22C9F0"/>
		<stop  offset="1" style="stop-color:#00ACE9"/>
	</linearGradient>
	<polygon fill="url(#SVGID_5_)" points="137.51,67.9 193.49,86.36 193.53,118.2 137.43,107.36 	"/>
	<linearGradient id="SVGID_6_" gradientUnits="userSpaceOnUse" x1="137.5723" y1="138.793" x2="193.4063" y2="144.6469">
		<stop  offset="0" style="stop-color:#22C9F0"/>
		<stop  offset="1" style="stop-color:#00ACE9"/>
	</linearGradient>
	<polygon fill="url(#SVGID_6_)" points="193.53,128.29 193.53,160.12 137.39,156.63 137.5,120.931 	"/>
	<linearGradient id="SVGID_7_" gradientUnits="userSpaceOnUse" x1="137.4097" y1="138.707" x2="157.4356" y2="140.2006">
		<stop  offset="0" style="stop-color:#48CCF2"/>
		<stop  offset="1" style="stop-color:#1ECBF0"/>
	</linearGradient>
	<path fill="url(#SVGID_7_)" d="M137.428,120.784l-0.038,35.846c0,0,7.86,0.12,14.24,0.53c1.02-10.205,3.036-21.816,5.842-33.764
		L137.428,120.784z"/>
	<linearGradient id="SVGID_8_" gradientUnits="userSpaceOnUse" x1="138.103" y1="87.7344" x2="170.3132" y2="98.3846">
		<stop  offset="0" style="stop-color:#48CCF2"/>
		<stop  offset="1" style="stop-color:#1ECBF0"/>
	</linearGradient>
	<path fill="url(#SVGID_8_)" d="M171.368,78.966l-33.883-11.343l-0.042,39.8l22.961,4.422
		C163.477,100.588,167.178,89.337,171.368,78.966z"/>
	<linearGradient id="SVGID_9_" gradientUnits="userSpaceOnUse" x1="140.2847" y1="35.7163" x2="189.8012" y2="56.3485">
		<stop  offset="0" style="stop-color:#48CCF2"/>
		<stop  offset="1" style="stop-color:#1ECBF0"/>
	</linearGradient>
	<path fill="url(#SVGID_9_)" d="M191.141,43.208C179.282,36.417,137.54,14.91,137.54,14.91l-0.042,39.307l37.747,15.684
		C180.102,59.274,185.466,49.997,191.141,43.208z"/>
	<linearGradient id="SVGID_10_" gradientUnits="userSpaceOnUse" x1="44.6797" y1="144.293" x2="76.6887" y2="141.273">
		<stop  offset="0" style="stop-color:#48CCF2"/>
		<stop  offset="1" style="stop-color:#1ECBF0"/>
	</linearGradient>
	<path fill="url(#SVGID_10_)" d="M44.47,128.038v32.082c0,0,14.78-0.62,24.92-2.03c0.947-9.202,3.44-20.293,7.231-32.447
		L44.47,128.038z"/>
	<linearGradient id="SVGID_11_" gradientUnits="userSpaceOnUse" x1="45.5576" y1="102.8477" x2="97.0982" y2="93.2906">
		<stop  offset="0" style="stop-color:#48CCF2"/>
		<stop  offset="1" style="stop-color:#1ECBF0"/>
	</linearGradient>
	<path fill="url(#SVGID_11_)" d="M44.47,86.033v32.117l36.108-4.278c4.385-12.187,9.888-25.108,16.31-38.06L44.47,86.033z"/>
	<linearGradient id="SVGID_12_" gradientUnits="userSpaceOnUse" x1="48.3428" y1="58.6895" x2="134.8115" y2="34.6023">
		<stop  offset="0" style="stop-color:#48CCF2"/>
		<stop  offset="1" style="stop-color:#1ECBF0"/>
	</linearGradient>
	<path fill="url(#SVGID_12_)" d="M134.231,15.938C125.462,18.877,44.47,44.01,44.47,44.01v32.223l59.622-14.247
		C112.949,45.802,123.13,29.979,134.231,15.938z"/>
	<path fill="none" stroke="#FFFFFF" stroke-width="0.25" stroke-miterlimit="10" d="M134.231,15.938
		C111.667,40.176,72.667,119.843,69.563,158.09"/>
	<path fill="none" stroke="#FFFFFF" stroke-width="0.25" stroke-miterlimit="10" d="M191.141,43.208
		c-18.974,19.134-38.974,92.634-39.511,113.952"/>
	<path fill="#404040" d="M193.53,160.12c-13.94-1.33-27.91-2.37-41.9-2.96c-4.75-0.19-9.5-0.4-14.24-0.53
		c-22.67-0.58-45.37-0.05-68,1.46c-8.31,0.55-16.62,1.261-24.92,2.03c-11.541,1.22-23.09,2.49-34.51,4.54
		c2.53,0.21,5.07,0.09,7.59-0.11c67.84-5.1,136.05-5.08,203.88,0.07c2.21,0.17,4.44,0.25,6.66,0.09
		C216.66,162.561,205.08,161.39,193.53,160.12z"/>
</g>
<g>
	<path fill="#404040" d="M666.843,145.042c0.456,0,0.725,0.377,0.805,1.127v1.729h10.34c0.616,0.053,0.924,0.269,0.924,0.645
		c0,0.402-0.254,0.603-0.762,0.603h-21.564c-0.51,0-0.765-0.2-0.765-0.603c0-0.376,0.363-0.592,1.087-0.645h9.212v-1.729
		C666.119,145.472,666.36,145.096,666.843,145.042z M673.844,150.353c0.133,0,0.201,0.201,0.201,0.604
		c0,1.985-0.591,4.05-1.771,6.195c-0.831,1.852-2.118,3.688-3.861,5.512c1.636,1.958,3.191,4.076,4.666,6.355
		c2.629,4.051,4.104,8.623,4.426,13.719c0,0.242-0.054,0.363-0.159,0.363c-0.081-0.027-0.148-0.149-0.202-0.363
		c-1.02-4.479-2.549-8.368-4.587-11.666c-1.851-2.602-3.688-4.949-5.512-7.04l-0.039,0.039c-2.521,2.575-4.587,5.351-6.196,8.328
		c-1.931,3.647-3.205,6.973-3.822,9.978c-0.134,0.535-0.268,0.805-0.401,0.805c-0.216,0-0.323-0.229-0.323-0.684
		c0.483-3.701,1.41-6.974,2.777-9.816c1.475-3.3,3.445-6.303,5.913-9.012c0.348-0.322,0.685-0.645,1.007-0.966
		c-0.27-0.268-0.511-0.522-0.726-0.764c-3.056-2.979-5.002-6.665-5.833-11.064c0-0.214,0.04-0.321,0.121-0.321
		c0.08,0,0.174,0.107,0.281,0.321c1.287,3.38,3.18,6.249,5.673,8.61c0.644,0.616,1.232,1.234,1.771,1.85
		c1.394-1.475,2.548-2.91,3.459-4.305c1.448-2.092,2.36-4.115,2.736-6.074C673.441,150.554,673.575,150.353,673.844,150.353z"/>
	<path fill="#404040" d="M707.798,145.203c0.483,0,0.75,0.417,0.805,1.247v0.885c2.896,0.054,5.765,0.376,8.608,0.967
		c0.375-0.563,0.887-1.061,1.529-1.49c0.161,0,0.242,0.027,0.242,0.081c0,0.055-0.069,0.161-0.201,0.322
		c-0.376,1.152-0.564,2.185-0.564,3.097c0,0.511,0.053,1.114,0.161,1.812s0.255,1.422,0.443,2.172c0,0.107-0.026,0.201-0.081,0.282
		c-0.161,0-0.296-0.066-0.402-0.202c-0.456-0.402-0.858-1.031-1.206-1.891c-0.296-0.829-0.444-1.623-0.444-2.372
		c0-0.242,0.015-0.443,0.041-0.604c-3.031-0.616-6.103-0.925-9.212-0.925c-2.925,0-5.809,0.336-8.65,1.005
		c0.055,0.27,0.081,0.511,0.081,0.724c0,1.609-0.55,3.032-1.649,4.266c-0.216,0.268-0.402,0.402-0.563,0.402
		c-0.188,0-0.281-0.135-0.281-0.402c0.535-1.824,0.83-3.179,0.884-4.063c0-0.967-0.16-1.997-0.481-3.098
		c0-0.27,0.081-0.402,0.24-0.402c0.188,0,0.335,0.133,0.443,0.402c0.348,0.322,0.63,0.644,0.845,0.966
		c2.896-0.671,5.779-1.032,8.649-1.087v-0.845C707.033,145.699,707.287,145.284,707.798,145.203z M698.183,180.525h20.315
		c0.67,0.053,1.007,0.255,1.007,0.603c0,0.43-0.283,0.645-0.845,0.645h-20.8c-0.509,0-0.765-0.215-0.765-0.645
		C697.096,180.78,697.459,180.578,698.183,180.525z M701.481,151.921h12.794c0.589,0.027,0.884,0.216,0.884,0.563
		c0,0.431-0.241,0.645-0.724,0.645h-13.236c-0.481,0-0.724-0.214-0.724-0.645C700.476,152.137,700.81,151.948,701.481,151.921z
		 M707.636,155.864c2.066,0,4.104,0.161,6.116,0.482c0.16-0.616,0.362-0.926,0.603-0.926c0.536,0,0.831,1.033,0.886,3.098v7.121
		c0,8.02-2.389,12.029-7.16,12.029c-4.99,0-7.483-4.01-7.483-12.029v-7.845c0-1.609,0.294-2.415,0.885-2.415
		c0.187,0,0.349,0.27,0.482,0.806C703.867,155.972,705.76,155.864,707.636,155.864z M702.125,157.474
		c0.027,0.135,0.041,0.241,0.041,0.321v3.299h11.426v-2.575c0-0.374,0.012-0.696,0.038-0.964c-1.984-0.27-3.995-0.403-6.034-0.403
		C705.746,157.151,703.922,157.259,702.125,157.474z M702.166,162.301v3.259c0,7.055,1.942,10.581,5.833,10.581
		c3.728,0,5.593-3.526,5.593-10.581v-3.259H702.166z"/>
	<path fill="#404040" d="M748.229,147.416v-0.805c0-0.778,0.269-1.207,0.806-1.287c0.481,0,0.777,0.429,0.884,1.287v0.805
		c2.896,0.054,5.768,0.295,8.61,0.724c0.161-0.455,0.415-0.845,0.764-1.166c0.135-0.215,0.282-0.323,0.442-0.323
		c0.188,0,0.282,0.108,0.282,0.323c-0.269,0.805-0.402,1.676-0.402,2.614c0,1.608,0.281,3.179,0.845,4.707
		c0,0.27-0.055,0.402-0.161,0.402c-0.161,0-0.322-0.106-0.483-0.322c-1.1-1.205-1.649-2.747-1.649-4.626
		c0-0.107,0.013-0.202,0.04-0.281c-3.11-0.483-6.248-0.726-9.413-0.726c-3.085,0-6.143,0.269-9.173,0.805v0.202
		c0,1.879-0.631,3.421-1.89,4.626c-0.161,0.216-0.31,0.322-0.442,0.322c-0.108,0-0.162-0.133-0.162-0.402
		c0.697-1.528,1.046-3.099,1.046-4.707c0-0.938-0.054-1.822-0.16-2.654c0-0.215,0.094-0.322,0.282-0.322
		c0.16,0,0.307,0.107,0.441,0.322c0.323,0.295,0.55,0.737,0.684,1.327C742.341,147.725,745.277,147.442,748.229,147.416z
		 M742.233,150.353c0.135,0,0.256,0.094,0.363,0.281c0.134,0.269,0.255,0.563,0.363,0.886c1.956-0.349,3.914-0.524,5.872-0.524
		c2.092,0,4.171,0.149,6.236,0.443c0.054-0.294,0.105-0.55,0.161-0.764c0.053-0.242,0.146-0.363,0.281-0.363
		c0.106,0.081,0.16,0.202,0.16,0.363c-0.054,2.414-0.08,5.847-0.08,10.298c0,7.456,0.71,13.947,2.133,19.472h2.172
		c0.697,0.055,1.046,0.282,1.046,0.684c0,0.43-0.296,0.645-0.886,0.645h-21.924c-0.591,0-0.886-0.215-0.886-0.645
		c0-0.401,0.403-0.629,1.207-0.684h1.328c1.609-4.988,2.44-11.049,2.492-18.185v-5.511c0-2.709-0.065-4.748-0.199-6.115
		C742.074,150.446,742.127,150.353,742.233,150.353z M753.941,161.135h-10.099v1.125c-0.187,7.725-1.342,13.786-3.458,18.185h16.614
		C755.015,175.591,753.995,169.153,753.941,161.135z M754.787,152.686c-1.985-0.269-3.997-0.402-6.035-0.402
		c-1.798,0-3.595,0.147-5.391,0.442c0.241,0.993,0.39,2.079,0.442,3.259h10.5C754.437,154.751,754.599,153.652,754.787,152.686z
		 M754.183,157.192h-10.34v2.774h10.14C754.035,158.976,754.103,158.051,754.183,157.192z"/>
	<path fill="#404040" d="M779.366,156.911h9.775c0.027-0.591,0.055-1.101,0.081-1.531c0.135-0.454,0.282-0.683,0.444-0.683
		c0.106,0,0.213,0.201,0.32,0.604c0.054,0.51,0.106,1.046,0.161,1.61h10.179c0.616,0.053,0.925,0.254,0.925,0.602
		c0,0.457-0.255,0.686-0.765,0.686h-10.258c0.026,0.213,0.04,0.416,0.04,0.603c0.134,0.055,0.241,0.107,0.321,0.16
		c1.771,0.644,3.164,1.69,4.185,3.139c0.91,1.234,1.771,3.097,2.575,5.592c0.428,3.004,0.965,5.445,1.608,7.321
		c1.207,3.165,2.83,5.605,4.868,7.323c0,0.213-0.081,0.321-0.242,0.321c-0.4,0-0.643-0.134-0.724-0.401
		c-1.824-1.128-3.446-3.032-4.867-5.713c-1.047-1.878-1.839-4.828-2.374-8.852c-0.376-2.36-1.087-4.291-2.132-5.793
		c-0.886-1.208-1.945-2.104-3.179-2.696c0.135,2.737,0.201,5.983,0.201,9.736c0,7.591-0.134,11.895-0.402,12.914
		c-0.081,0.564-0.201,0.845-0.361,0.845c-0.107-0.054-0.216-0.361-0.323-0.925c-0.349-1.663-0.522-5.939-0.522-12.834
		c0.026-3.996,0.08-7.215,0.16-9.655c-1.261,0.564-2.279,1.45-3.056,2.656c-0.94,1.395-1.584,3.205-1.932,5.431
		c-0.43,3.995-1.113,6.946-2.052,8.851c-1.287,2.681-2.736,4.587-4.345,5.712c-0.08,0.323-0.322,0.484-0.724,0.484
		c-0.162,0-0.242-0.122-0.242-0.363c1.797-1.717,3.219-4.17,4.265-7.362c0.563-1.877,1.019-4.316,1.367-7.321
		c0.698-2.333,1.475-4.076,2.333-5.229c0.885-1.342,2.093-2.32,3.622-2.938c0.321-0.187,0.575-0.294,0.763-0.321
		c0.026-0.24,0.04-0.47,0.04-0.683h-10.097c-0.537,0-0.805-0.229-0.805-0.686C778.2,157.165,778.588,156.964,779.366,156.911z
		 M789.667,144.438c0.401,0,0.629,0.35,0.683,1.047v0.401c3.004,0.027,5.941,0.282,8.811,0.764c0.349-0.401,0.791-0.776,1.327-1.125
		c0.108,0,0.161,0.027,0.161,0.078c0,0.056-0.041,0.162-0.12,0.324c-0.269,0.911-0.402,1.73-0.402,2.454
		c0,0.213,0.04,0.482,0.121,0.805c0.132,0.321,0.294,0.671,0.482,1.045c0,0.08-0.027,0.147-0.081,0.201
		c-0.135,0-0.256-0.04-0.361-0.121c-0.51-0.213-0.939-0.549-1.288-1.005c-0.268-0.403-0.402-0.79-0.402-1.167
		c0-0.134,0.014-0.228,0.041-0.28c-2.978-0.457-5.981-0.686-9.012-0.686c-2.815,0-5.593,0.188-8.327,0.564
		c-0.055,1.153-0.458,2.132-1.208,2.937c-0.215,0.268-0.39,0.401-0.523,0.401c-0.16,0-0.241-0.134-0.241-0.401
		c0.215-1.288,0.336-2.239,0.363-2.855c0-0.673-0.136-1.383-0.403-2.134c0-0.267,0.08-0.401,0.241-0.401
		c0.188,0,0.336,0.135,0.443,0.401c0.429,0.296,0.737,0.563,0.925,0.805c2.655-0.375,5.323-0.576,8.006-0.604v-0.401
		C788.901,144.842,789.156,144.493,789.667,144.438z M787.774,147.255c0.403,0,0.605,0.376,0.605,1.127
		c-0.055,0.294-0.136,0.537-0.242,0.724h9.293c0.616,0.055,0.925,0.268,0.925,0.644c0,0.375-0.268,0.563-0.805,0.563h-1.81
		c-0.136,0.189-0.35,0.402-0.644,0.645c-0.939,0.672-1.919,1.262-2.938,1.77c2.065,0.563,4.117,1.221,6.155,1.972
		c0.295,0.107,0.442,0.321,0.442,0.645c0,0.401-0.255,0.603-0.764,0.603c-2.575-0.911-5.07-1.716-7.483-2.413
		c-2.764,1.232-5.82,2.118-9.172,2.654c-0.376,0-0.564-0.093-0.564-0.281c0-0.269,0.229-0.483,0.686-0.644
		c2.225-0.536,4.546-1.288,6.958-2.252c-1.125-0.296-2.226-0.549-3.298-0.766c-0.457-0.053-0.684-0.201-0.684-0.442
		c0-0.108,0.107-0.24,0.32-0.402c0.27-0.269,0.564-0.537,0.886-0.805c0.135-0.106,0.242-0.201,0.322-0.282h-3.821
		c-0.484,0-0.725-0.188-0.725-0.563c0-0.376,0.334-0.589,1.006-0.644h4.506c0.241-0.402,0.389-0.804,0.443-1.207
		C787.454,147.47,787.586,147.255,787.774,147.255z M794.132,150.312h-6.799c-0.241,0.297-0.51,0.538-0.805,0.725
		c0,0.188,0.066,0.309,0.202,0.362c1.179,0.24,2.345,0.51,3.499,0.806C791.517,151.639,792.817,151.011,794.132,150.312z"/>
</g>
<path fill="none" stroke="#33FFFF" stroke-miterlimit="10" d="M661.958,176.99"/>
<linearGradient id="SVGID_13_" gradientUnits="userSpaceOnUse" x1="656.7578" y1="36.6191" x2="745.5781" y2="8.8165">
	<stop  offset="0" style="stop-color:#22C9F0"/>
	<stop  offset="1" style="stop-color:#00ACE9"/>
</linearGradient>
<polygon fill="url(#SVGID_13_)" points="655.27,49.519 748.209,27.719 748.339,-11.741 655.27,17.358 "/>
<linearGradient id="SVGID_14_" gradientUnits="userSpaceOnUse" x1="657.2334" y1="77.2988" x2="748.8127" y2="60.881">
	<stop  offset="0" style="stop-color:#22C9F0"/>
	<stop  offset="1" style="stop-color:#00ACE9"/>
</linearGradient>
<polygon fill="url(#SVGID_14_)" points="655.27,59.429 748.309,41.249 748.229,80.709 655.27,91.438 "/>
<linearGradient id="SVGID_15_" gradientUnits="userSpaceOnUse" x1="655.5605" y1="118.2637" x2="748.3857" y2="112.1186">
	<stop  offset="0" style="stop-color:#22C9F0"/>
	<stop  offset="1" style="stop-color:#00ACE9"/>
</linearGradient>
<polygon fill="url(#SVGID_15_)" points="655.27,101.509 748.299,94.279 748.189,129.979 655.27,133.469 "/>
<linearGradient id="SVGID_16_" gradientUnits="userSpaceOnUse" x1="748.8896" y1="8.252" x2="802.7622" y2="31.2829">
	<stop  offset="0" style="stop-color:#22C9F0"/>
	<stop  offset="1" style="stop-color:#00ACE9"/>
</linearGradient>
<polygon fill="url(#SVGID_16_)" points="748.339,-11.741 804.27,17.769 804.337,50.628 748.209,27.719 "/>
<linearGradient id="SVGID_17_" gradientUnits="userSpaceOnUse" x1="749.2188" y1="61.2026" x2="803.8324" y2="74.029">
	<stop  offset="0" style="stop-color:#22C9F0"/>
	<stop  offset="1" style="stop-color:#00ACE9"/>
</linearGradient>
<polygon fill="url(#SVGID_17_)" points="748.309,41.249 804.289,59.708 804.328,91.549 748.229,80.709 "/>
<linearGradient id="SVGID_18_" gradientUnits="userSpaceOnUse" x1="748.3711" y1="112.1426" x2="804.2042" y2="117.9964">
	<stop  offset="0" style="stop-color:#22C9F0"/>
	<stop  offset="1" style="stop-color:#00ACE9"/>
</linearGradient>
<polygon fill="url(#SVGID_18_)" points="804.328,101.639 804.328,133.469 748.189,129.979 748.299,94.279 "/>
<linearGradient id="SVGID_19_" gradientUnits="userSpaceOnUse" x1="748.207" y1="112.0547" x2="768.233" y2="113.5483">
	<stop  offset="0" style="stop-color:#48CCF2"/>
	<stop  offset="1" style="stop-color:#1ECBF0"/>
</linearGradient>
<path fill="url(#SVGID_19_)" d="M748.227,94.133l-0.037,35.846c0,0,7.859,0.12,14.239,0.53c1.021-10.205,3.036-21.816,5.842-33.764
	L748.227,94.133z"/>
<linearGradient id="SVGID_20_" gradientUnits="userSpaceOnUse" x1="748.9023" y1="61.0825" x2="781.1117" y2="71.7325">
	<stop  offset="0" style="stop-color:#48CCF2"/>
	<stop  offset="1" style="stop-color:#1ECBF0"/>
</linearGradient>
<path fill="url(#SVGID_20_)" d="M782.166,52.314l-33.883-11.343l-0.042,39.8l22.961,4.422
	C774.275,73.937,777.977,62.686,782.166,52.314z"/>
<linearGradient id="SVGID_21_" gradientUnits="userSpaceOnUse" x1="751.084" y1="9.0645" x2="800.6005" y2="29.6967">
	<stop  offset="0" style="stop-color:#48CCF2"/>
	<stop  offset="1" style="stop-color:#1ECBF0"/>
</linearGradient>
<path fill="url(#SVGID_21_)" d="M801.939,16.558c-11.858-6.792-53.601-28.299-53.601-28.299l-0.042,39.307l37.748,15.684
	C790.9,32.623,796.266,23.345,801.939,16.558z"/>
<linearGradient id="SVGID_22_" gradientUnits="userSpaceOnUse" x1="655.4785" y1="117.6396" x2="687.4871" y2="114.6197">
	<stop  offset="0" style="stop-color:#48CCF2"/>
	<stop  offset="1" style="stop-color:#1ECBF0"/>
</linearGradient>
<path fill="url(#SVGID_22_)" d="M655.27,101.387v32.082c0,0,14.779-0.62,24.92-2.03c0.946-9.202,3.439-20.293,7.23-32.447
	L655.27,101.387z"/>
<linearGradient id="SVGID_23_" gradientUnits="userSpaceOnUse" x1="656.3574" y1="76.1973" x2="707.8972" y2="66.6404">
	<stop  offset="0" style="stop-color:#48CCF2"/>
	<stop  offset="1" style="stop-color:#1ECBF0"/>
</linearGradient>
<path fill="url(#SVGID_23_)" d="M655.27,59.382v32.117l36.107-4.278c4.386-12.187,9.889-25.108,16.311-38.06L655.27,59.382z"/>
<linearGradient id="SVGID_24_" gradientUnits="userSpaceOnUse" x1="659.1426" y1="32.0381" x2="745.61" y2="7.9512">
	<stop  offset="0" style="stop-color:#48CCF2"/>
	<stop  offset="1" style="stop-color:#1ECBF0"/>
</linearGradient>
<path fill="url(#SVGID_24_)" d="M745.029-10.713c-8.769,2.938-89.76,28.071-89.76,28.071v32.223l59.621-14.246
	C723.748,19.15,733.929,3.328,745.029-10.713z"/>
<path fill="none" stroke="#FFFFFF" stroke-width="0.25" stroke-miterlimit="10" d="M745.029-10.713
	c-22.563,24.237-61.564,103.904-64.668,142.151"/>
<path fill="none" stroke="#FFFFFF" stroke-width="0.25" stroke-miterlimit="10" d="M801.939,16.558
	c-18.974,19.134-38.974,92.634-39.511,113.951"/>
<path fill="#404040" d="M804.328,133.469c-13.939-1.33-27.909-2.37-41.899-2.96c-4.75-0.19-9.5-0.4-14.239-0.53
	c-22.67-0.58-45.371-0.05-68,1.46c-8.311,0.55-16.621,1.261-24.92,2.03c-11.541,1.22-23.091,2.49-34.511,4.54
	c2.53,0.21,5.069,0.09,7.59-0.11c67.841-5.1,136.05-5.08,203.88,0.07c2.211,0.17,4.44,0.25,6.66,0.09
	C827.459,135.909,815.879,134.738,804.328,133.469z"/>
</svg>
