<svg id="workspace" xmlns="http://www.w3.org/2000/svg" xmlns:xlink="http://www.w3.org/1999/xlink" style="text-rendering: geometricprecision; cursor: auto;"><desc>Created with Snap</desc><defs><linearGradient x1="0" y1="0.5" x2="1" y2="0.5" id="linearGradientSk54t600rhg"><stop offset="0%" stop-color="#ffc400"></stop><stop offset="100%" stop-color="#ffc400"></stop></linearGradient><linearGradient x1="0" y1="0.5" x2="1" y2="0.5" id="linearGradientSk54t600rhp"><stop offset="0%" stop-color="#ffc400"></stop><stop offset="100%" stop-color="#ffc400"></stop></linearGradient><linearGradient x1="0" y1="0.5" x2="1" y2="0.5" id="linearGradientSk54t600rhy"><stop offset="0%" stop-color="#ffc400"></stop><stop offset="100%" stop-color="#ffc400"></stop></linearGradient><linearGradient x1="0" y1="0.5" x2="1" y2="0.5" id="linearGradientSk54t600ri7"><stop offset="0%" stop-color="#000000"></stop><stop offset="100%" stop-color="#000000"></stop></linearGradient><linearGradient x1="0" y1="0.5" x2="1" y2="0.5" id="linearGradientSk54t600rih"><stop offset="0%" stop-color="#ffc400"></stop><stop offset="100%" stop-color="#ffc400"></stop></linearGradient><linearGradient x1="0" y1="0.5" x2="1" y2="0.5" id="linearGradientSk54t600rik"><stop offset="0%" stop-color="#ffc400"></stop><stop offset="100%" stop-color="#ffc400"></stop></linearGradient><linearGradient x1="0" y1="0.5" x2="1" y2="0.5" id="linearGradientSk54t600rin"><stop offset="0%" stop-color="#ffc400"></stop><stop offset="100%" stop-color="#ffc400"></stop></linearGradient><linearGradient x1="0" y1="0.5" x2="1" y2="0.5" id="linearGradientSk54t600riq"><stop offset="0%" stop-color="#000000"></stop><stop offset="100%" stop-color="#000000"></stop></linearGradient><linearGradient x1="0" y1="0.5" x2="1" y2="0.5" id="linearGradientSk54t600riw"><stop offset="0%" stop-color="#ffc400"></stop><stop offset="100%" stop-color="#ffc400"></stop></linearGradient><linearGradient x1="0" y1="0.5" x2="1" y2="0.5" id="linearGradientSk54t600riz"><stop offset="0%" stop-color="#ffc400"></stop><stop offset="100%" stop-color="#ffc400"></stop></linearGradient><linearGradient x1="0" y1="0.5" x2="1" y2="0.5" id="linearGradientSk54t600rj2"><stop offset="0%" stop-color="#ffc400"></stop><stop offset="100%" stop-color="#ffc400"></stop></linearGradient><linearGradient x1="0" y1="0.5" x2="1" y2="0.5" id="linearGradientSk54t600rj5"><stop offset="0%" stop-color="#000000"></stop><stop offset="100%" stop-color="#000000"></stop></linearGradient><linearGradient x1="0" y1="0.5" x2="1" y2="0.5" id="linearGradientSk54t600rj8"><stop offset="0%" stop-color="#000000"></stop><stop offset="100%" stop-color="#000000"></stop></linearGradient><linearGradient x1="0" y1="0.5" x2="1" y2="0.5" id="linearGradientSk54t600rjb"><stop offset="0%" stop-color="#ffc400"></stop><stop offset="100%" stop-color="#ffc400"></stop></linearGradient><linearGradient x1="0" y1="0.5" x2="1" y2="0.5" id="linearGradientSk54t600rje"><stop offset="0%" stop-color="#ffc400"></stop><stop offset="100%" stop-color="#ffc400"></stop></linearGradient><linearGradient x1="0" y1="0.5" x2="1" y2="0.5" id="linearGradientSk54t600rjh"><stop offset="0%" stop-color="#ffc400"></stop><stop offset="100%" stop-color="#ffc400"></stop></linearGradient></defs><g class="background-part"><rect x="0" y="0" width="1851" height="1202" fill="rgba(255,255,255,0.25)" style=""></rect></g><g class="selector-part"><rect x="0" y="0" width="1851" height="1202" fill="rgba(255,255,255,0)" style="transition: all 0.6s ease 0s;"></rect></g><g class="selector-part" transform="matrix(1,0,0,1,760,496)"><rect x="0" y="0" width="0" height="0" fill="rgba(255,255,255,0)" style="cursor: move;"></rect></g><g class="svg-clip svg-visible" transform="matrix(0.9425,0,0,0.9425,777.3508,513.3508)" style="cursor: move; opacity: 1;"><rect x="0" y="0" width="186" height="186" fill="none" class="svg-hitbox" style=""></rect><svg width="186.614" height="186.614" viewBox="-5,-4.987,186.614,186.614" class="thumb"><desc>Created with Snap</desc><defs></defs><g></g><g><path d="M88.307,0.013C39.536,0.013,0,39.549,0,88.32c0,48.77,39.536,88.307,88.307,88.307
	c48.77,0,88.307-39.537,88.307-88.307C176.613,39.549,137.076,0.013,88.307,0.013z M88.307,163.341
	c-41.433,0-75.021-33.589-75.021-75.021c0-41.433,33.587-75.021,75.021-75.021c41.432,0,75.021,33.587,75.021,75.021
	C163.327,129.752,129.738,163.341,88.307,163.341z" fill="url('#linearGradientSk54t600rjb')" stroke="none" style=""></path></g></svg></g><g class="svg-clip svg-visible" transform="matrix(1.0753,0,0,1.0753,764.9999,500.9999)" style="cursor: move; opacity: 1;"><rect x="0" y="0" width="186" height="186" fill="none" class="svg-hitbox" style=""></rect><svg width="186.614" height="186.614" viewBox="-5,-4.987,186.614,186.614" class="thumb"><desc>Created with Snap</desc><defs></defs><g></g><g><path d="M88.307,0.013C39.536,0.013,0,39.549,0,88.32c0,48.77,39.536,88.307,88.307,88.307
	c48.77,0,88.307-39.537,88.307-88.307C176.613,39.549,137.076,0.013,88.307,0.013z M88.307,163.341
	c-41.433,0-75.021-33.589-75.021-75.021c0-41.433,33.587-75.021,75.021-75.021c41.432,0,75.021,33.587,75.021,75.021
	C163.327,129.752,129.738,163.341,88.307,163.341z" fill="url('#linearGradientSk54t600rjh')" stroke="none" style=""></path></g></svg></g><g class="svg-clip svg-visible" transform="matrix(0.8425,0,0,0.8425,786.6493,521.6493)" style="cursor: move; opacity: 1;"><rect x="0" y="0" width="186" height="186" fill="none" class="svg-hitbox" style=""></rect><svg width="186.614" height="186.614" viewBox="-5,-4.987,186.614,186.614" class="thumb"><desc>Created with Snap</desc><defs></defs><g></g><g><path d="M88.307,0.013C39.536,0.013,0,39.549,0,88.32c0,48.77,39.536,88.307,88.307,88.307
	c48.77,0,88.307-39.537,88.307-88.307C176.613,39.549,137.076,0.013,88.307,0.013z M88.307,163.341
	c-41.433,0-75.021-33.589-75.021-75.021c0-41.433,33.587-75.021,75.021-75.021c41.432,0,75.021,33.587,75.021,75.021
	C163.327,129.752,129.738,163.341,88.307,163.341z" fill="url('#linearGradientSk54t600rj2')" stroke="none" style=""></path></g></svg></g><g class="svg-clip svg-visible" transform="matrix(0.439,0,0,1.0753,768.1746,594.8602)" style="cursor: move; opacity: 1;"><rect x="0" y="0" width="186" height="17" fill="none" class="svg-hitbox" style=""></rect><svg width="186.742" height="17.218999999999994" viewBox="-5,79.525,186.742,17.218999999999994" class="thumb"><desc>Created with Snap</desc><defs></defs><g></g><g><rect y="84.525" width="176.742" height="7.219" fill="url('#linearGradientSk54t600rj5')" stroke="none" style=""></rect></g></svg></g><g class="svg-text svg-visible" transform="matrix(0.5,0,0,0.5,942,555)" style="pointer-events: fill; cursor: move; opacity: 1;"><path fill="none" style="" d="M-45.166015625,105.68359375 C-20,104.68359375 20,104.68359375 45.166015625,105.68359375"></path><path d="M-38.716015625-15.72L-38.716015625-67.24L-26.366015625-67.24L-26.366015625-16.7Q-26.366015625-12.26 -24.996015625-10.52Q-23.636015625-8.79 -20.996015625-8.79L-20.996015625-8.79Q-19.136015625-8.79 -17.386015625-9.81Q-15.626015625-10.84 -14.206015625-12.74L-14.206015625-12.74L-14.206015625-67.24L-1.8560156249999977-67.24L-1.8560156249999977 0L-11.276015625 0L-12.496015624999998-7.18L-12.546015625000003-7.18Q-14.016015625000001-4.88 -15.646015625-3.34Q-17.286015625-1.81 -19.066015625-0.9Q-20.846015625 0 -22.706015625 0.39Q-24.556015625 0.78 -26.416015625 0.78L-26.416015625 0.78Q-32.326015625 0.78 -35.526015625-3.32Q-38.716015625-7.42 -38.716015625-15.72L-38.716015625-15.72ZM 8.3975-14.06L 8.3975-14.06Q 8.3975-16.26  8.817499999999999-18.31Q 9.2275-20.36  9.6175-21.58L 9.6175-21.58L 18.307499999999997-21.58Q 18.307499999999997-17.92  18.677500000000002-15.45Q 19.0475-12.99  19.877499999999998-11.52Q 20.7075-10.06  22.0975-9.42Q 23.4875-8.79  25.4875-8.79L 25.4875-8.79Q 28.2675-8.79  29.5375-10.35Q 30.8075-11.91  30.8075-13.96L 30.8075-13.96Q 30.8075-15.04  30.5175-16.02Q 30.2275-16.99  29.6875-17.99Q 29.1475-18.99  28.3675-20.02Q 27.5875-21.04  26.6075-22.27L 26.6075-22.27L 17.5775-32.91Q 15.8175-35.11  14.1875-37.38Q 12.5475-39.65  11.307500000000001-42.07Q 10.057500000000001-44.48  9.2975-47.12Q 8.5475-49.76  8.5475-52.69L 8.5475-52.69Q 8.5475-56.59  9.8875-59.47Q 11.2275-62.35  13.4975-64.26Q 15.7675-66.16  18.747500000000002-67.09Q 21.7275-68.02  25.0475-68.02L 25.0475-68.02Q 28.7075-68.02  31.6375-67.14Q 34.567499999999995-66.26  36.667500000000004-64.5Q 38.7675-62.74  39.8975-60.13Q 41.0175-57.52  41.0175-54.05L 41.0175-54.05Q 41.0175-51.71  40.5975-49.51Q 40.1875-47.31  39.7975-45.75L 39.7975-45.75L 31.2475-45.75Q 31.1975-49.07  30.9575-51.56Q 30.7175-54.05  30.0575-55.69Q 29.3975-57.32  28.2475-58.15Q 27.0975-58.98  25.2475-58.98L 25.2475-58.98Q 23.6375-58.98  22.5575-58.47Q 21.4875-57.96  20.8275-57.13Q 20.1675-56.3  19.8975-55.27Q 19.627499999999998-54.25  19.627499999999998-53.17L 19.627499999999998-53.17Q 19.627499999999998-50.83  20.7475-48.83Q 21.8775-46.83  23.7275-44.48L 23.7275-44.48L 33.5975-32.91Q 34.667500000000004-31.59  36.0875-29.71Q 37.4975-27.83  38.7675-25.56Q 40.0375-23.29  40.9175-20.61Q 41.7975-17.92  41.7975-14.99L 41.7975-14.99Q 41.7975-11.43  40.6775-8.52Q 39.5475-5.62  37.3575-3.56Q 35.1575-1.51  31.9575-0.39Q 28.7575 0.73  24.6575 0.73L 24.6575 0.73Q 21.2875 0.73  18.307499999999997-0.02Q 15.3275-0.78  13.1375-2.51Q 10.9375-4.25  9.6675-7.08Q 8.3975-9.91  8.3975-14.06Z" data-textpath="us" data-text-anchor="middle" data-font-size="100" data-letterspacing="0" data-side="left" data-offset="0" data-dx="0" data-dy="94.2626953125" data-href="" data-font="Fjalla One" data-font-src="/Content/clientfonts/fjallaone.woff" data-font-scale="contain" transform="translate(0,94.2626953125)" data-xmlspace="preserve" fill="url('#linearGradientSk54t600rj8')"></path><rect x="0" y="0" width="0" height="0"></rect></g><g><rect x="0" y="0" width="0" height="0" fill="rgba(255,136,0,0.1)" stroke="#ff8800" style="stroke-width: 1;"></rect></g><g class="selector-part"><rect x="0" y="0" width="0" height="0" fill="rgba(168,202,236,0.5)" stroke="#3399ff" style="stroke-width: 1;"></rect></g><g class="selector-part" transform="matrix(1,0,0,1,760,496)"><rect x="0" y="0" width="0" height="0" fill="none" stroke="#2390bb" style="stroke-width: 2;"></rect><g transform="matrix(0.5,0,0,0.5,0,0)"><svg version="1.1" id="Calque_1" xmlns="http://www.w3.org/2000/svg" xmlns:xlink="http://www.w3.org/1999/xlink" x="0" y="-71px" width="28.94px" height="30px" viewBox="0 -15 28.94 30" enable-background="new 0 -15 28.94 30" xml:space="preserve" style="cursor: pointer;">
<g>
	<path fill="rgba(0,0,0,0)" d="M23.355-9.979c-0.352-0.263-0.712-0.511-1.084-0.739L20.34-7.486c0.317,0.195,0.629,0.414,0.929,0.646
		L23.355-9.979z" style=""></path>
	<path fill="rgba(0,0,0,0)" d="M28.894,0.081L25.092-0.13c0.292,2.317-0.217,4.718-1.539,6.756l-0.037-0.021
		c-0.376,0.583-0.821,1.137-1.335,1.648c-3.808,3.809-9.902,3.942-13.871,0.396C8.282,8.623,8.255,8.602,8.227,8.576
		C8.143,8.498,8.059,8.421,7.976,8.339c-0.052-0.051-0.104-0.1-0.153-0.152C7.8,8.163,7.776,8.14,7.753,8.115
		c-0.084-0.091-0.167-0.18-0.25-0.271v0.002C4.312,4.293,4.087-0.98,6.821-4.782l4.123,4.124l3.401-14.306L0.037-11.566l4.102,4.098
		C-0.064-2.14,0.193,5.554,4.917,10.587l0,0c0.012,0.016,0.023,0.025,0.033,0.037c0.091,0.098,0.181,0.199,0.278,0.293
		c0.021,0.023,0.047,0.043,0.07,0.068c0.075,0.074,0.148,0.146,0.225,0.22c0.051,0.045,0.099,0.086,0.15,0.133
		c0.053,0.047,0.104,0.094,0.156,0.14c0.144,0.13,0.291,0.257,0.439,0.375c0.01,0.012,0.018,0.016,0.027,0.023
		c5.574,4.563,13.804,4.115,18.842-1.194C27.94,7.722,29.185,3.851,28.894,0.081z" style=""></path>
	<path fill="rgba(0,0,0,0)" d="M24.122-3.353l3.544-1.319c-0.426-0.932-0.962-1.826-1.611-2.662L22.88-5.276
		C23.373-4.675,23.79-4.027,24.122-3.353z" style=""></path>
</g>
<desc>Created with Snap</desc><defs></defs><circle cx="14.5" cy="0" r="15" style="" fill="rgba(0,0,0,0)"></circle></svg></g><rect x="0" y="-21" width="0" height="21" fill="rgba(255,255,255,0)" stroke="#2390bb" style="stroke-width: 1; cursor: pointer;"></rect><circle cx="210" cy="210" r="0" fill="#ffffff" stroke="#2390bb" style="stroke-width: 2; cursor: se-resize;"></circle><circle cx="0" cy="210" r="0" fill="#ffffff" stroke="#2390bb" style="stroke-width: 2; cursor: sw-resize;"></circle><circle cx="210" cy="0" r="0" fill="#ffffff" stroke="#2390bb" style="stroke-width: 2; cursor: ne-resize;"></circle><circle cx="0" cy="0" r="0" fill="#ffffff" stroke="#2390bb" style="stroke-width: 2; cursor: nw-resize;"></circle><circle cx="105" cy="210" r="0" fill="#ffffff" stroke="#2390bb" style="stroke-width: 2; cursor: s-resize;"></circle><circle cx="105" cy="0" r="0" fill="#ffffff" stroke="#2390bb" style="stroke-width: 2; cursor: n-resize;"></circle><circle cx="0" cy="105" r="0" fill="#ffffff" stroke="#2390bb" style="stroke-width: 2; cursor: w-resize;"></circle><circle cx="210" cy="105" r="0" fill="#ffffff" stroke="#2390bb" style="stroke-width: 2; cursor: e-resize;"></circle><path stroke="#ff0000" fill="none" style="stroke-width: 3;"></path><line x1="0" x2="0" y1="0" y2="0" fill="rgba(255,255,255,0)" stroke="#2390bb" style="stroke-width: 1;"></line><line x1="0" x2="0" y1="0" y2="0" fill="rgba(255,255,255,0)" stroke="#2390bb" style="stroke-width: 1;"></line><circle cx="0" cy="0" r="0" fill="#ff0000" stroke="#2390bb" style="stroke-width: 2; cursor: pointer;"></circle><circle cx="0" cy="0" r="0" fill="#ffa500" stroke="#2390bb" style="stroke-width: 2; cursor: pointer;"></circle><circle cx="0" cy="0" r="0" fill="#ffa500" stroke="#2390bb" style="stroke-width: 2; cursor: pointer;"></circle><circle cx="0" cy="0" r="0" fill="#ff0000" stroke="#2390bb" style="stroke-width: 2; cursor: pointer;"></circle><g style="cursor: pointer; visibility: hidden; opacity: 0;" transform="matrix(1,0,0,1,-50,-15)"><rect x="0" y="0" width="30" height="30" fill="#2390bb" rx="5" ry="5" style=""></rect><rect x="6" y="6" width="18" height="4" style="" fill="#ffffff"></rect><rect x="6" y="13" width="18" height="4" fill="#ffffff" style=""></rect><rect x="6" y="20" width="18" height="4" fill="#ffffff" style=""></rect></g></g></svg>