<?xml version="1.0" encoding="utf-8"?>
<!-- Generator: Adobe Illustrator 16.0.0, SVG Export Plug-In . SVG Version: 6.00 Build 0)  -->
<!DOCTYPE svg PUBLIC "-//W3C//DTD SVG 1.1//EN" "http://www.w3.org/Graphics/SVG/1.1/DTD/svg11.dtd">
<svg version="1.1" id="图层_1" xmlns="http://www.w3.org/2000/svg" xmlns:xlink="http://www.w3.org/1999/xlink" x="0px" y="0px"
	 width="144.399px" height="142.438px" viewBox="0 0 144.399 142.438" enable-background="new 0 0 144.399 142.438"
	 xml:space="preserve">
<g>
	<path fill="#FFC400" d="M71.192,8.766C36.719,8.766,8.77,36.715,8.77,71.188c0,34.476,27.949,62.422,62.422,62.422
		c34.476,0,62.422-27.946,62.422-62.422C133.614,36.715,105.664,8.766,71.192,8.766L71.192,8.766z M71.192,124.219
		c-29.289,0-53.031-23.742-53.031-53.031c0-29.289,23.742-53.031,53.031-53.031s53.031,23.742,53.031,53.031
		C124.224,100.477,100.481,124.219,71.192,124.219L71.192,124.219z M71.192,124.219"/>
	<path fill="#FFC400" d="M71.223,0C31.891,0,0.004,31.887,0.004,71.219c0,39.332,31.887,71.219,71.219,71.219
		c39.332,0,71.219-31.887,71.219-71.219C142.438,31.887,110.555,0,71.223,0L71.223,0z M71.223,131.723
		c-33.414,0-60.504-27.09-60.504-60.504c0-33.414,27.09-60.504,60.504-60.504c33.414,0,60.504,27.09,60.504,60.504
		C131.724,104.633,104.637,131.723,71.223,131.723L71.223,131.723z M71.223,131.723"/>
	<path fill="#FFC400" d="M71.168,14.614c-30.816,0-55.8,24.984-55.8,55.8c0,30.817,24.984,55.801,55.8,55.801
		c30.817,0,55.801-24.983,55.801-55.801C126.965,39.598,101.985,14.614,71.168,14.614L71.168,14.614z M71.168,117.817
		c-26.179,0-47.402-21.224-47.402-47.403c0-26.179,21.223-47.402,47.402-47.402c26.181,0,47.403,21.223,47.403,47.402
		C118.571,96.594,97.349,117.817,71.168,117.817L71.168,117.817z M71.168,117.817"/>
	<rect y="70.395" width="58.191" height="5.824"/>
	<path d="M114.203,65.922v-19.32h4.633v18.953c0,1.109,0.172,1.883,0.513,2.316c0.34,0.434,0.84,0.649,1.5,0.649
		c0.465,0,0.918-0.125,1.354-0.383c0.442-0.254,0.836-0.621,1.192-1.098V46.602h4.633v25.215h-3.532l-0.46-2.692h-0.016
		c-0.367,0.574-0.759,1.055-1.164,1.442c-0.41,0.382-0.836,0.687-1.281,0.914c-0.446,0.222-0.903,0.386-1.368,0.484
		c-0.461,0.098-0.925,0.145-1.39,0.145c-1.478,0-2.617-0.511-3.414-1.535C114.603,69.547,114.203,67.996,114.203,65.922
		L114.203,65.922z M131.871,66.543c0-0.547,0.055-1.078,0.157-1.594c0.104-0.511,0.203-0.917,0.3-1.222h3.262
		c0,0.914,0.043,1.68,0.138,2.297c0.094,0.613,0.241,1.105,0.448,1.472c0.207,0.368,0.485,0.629,0.832,0.789
		c0.349,0.157,0.774,0.235,1.274,0.235c0.695,0,1.199-0.196,1.519-0.582c0.317-0.391,0.478-0.844,0.478-1.356
		c0-0.269-0.039-0.527-0.11-0.773c-0.074-0.242-0.175-0.488-0.312-0.738c-0.138-0.25-0.302-0.504-0.496-0.762
		c-0.196-0.254-0.414-0.535-0.66-0.844l-3.387-3.988c-0.438-0.551-0.863-1.11-1.271-1.676c-0.41-0.57-0.769-1.156-1.078-1.758
		c-0.312-0.605-0.565-1.234-0.754-1.894c-0.187-0.66-0.281-1.356-0.281-2.09c0-0.977,0.164-1.824,0.5-2.543
		c0.337-0.719,0.785-1.317,1.356-1.797c0.566-0.473,1.222-0.828,1.968-1.059c0.742-0.234,1.532-0.351,2.364-0.351
		c0.914,0,1.738,0.109,2.468,0.332c0.735,0.219,1.364,0.551,1.888,0.988c0.522,0.442,0.93,0.988,1.211,1.641
		c0.28,0.652,0.422,1.41,0.422,2.277c0,0.586-0.056,1.152-0.16,1.703c-0.103,0.551-0.2,1.02-0.297,1.41h-3.207
		c-0.013-0.828-0.051-1.554-0.11-2.179c-0.058-0.621-0.171-1.137-0.336-1.547c-0.168-0.406-0.394-0.715-0.679-0.922
		c-0.289-0.207-0.664-0.313-1.125-0.313c-0.403,0-0.739,0.063-1.008,0.192c-0.271,0.129-0.484,0.297-0.652,0.504
		c-0.164,0.207-0.282,0.437-0.348,0.695c-0.066,0.258-0.103,0.52-0.103,0.789c0,0.586,0.142,1.129,0.422,1.629
		c0.282,0.5,0.653,1.043,1.117,1.629l3.7,4.34c0.269,0.328,0.582,0.73,0.933,1.199c0.356,0.469,0.688,0.988,1.008,1.555
		c0.316,0.57,0.587,1.187,0.806,1.859s0.332,1.375,0.332,2.106c0,0.89-0.142,1.699-0.422,2.425c-0.281,0.727-0.699,1.348-1.246,1.86
		c-0.547,0.515-1.224,0.91-2.024,1.191c-0.8,0.277-1.711,0.418-2.738,0.418c-0.844,0-1.637-0.094-2.379-0.281
		c-0.746-0.188-1.394-0.5-1.94-0.934c-0.551-0.433-0.985-1.004-1.301-1.711C132.032,68.453,131.871,67.582,131.871,66.543
		L131.871,66.543z M131.871,66.543"/>
</g>
</svg>
